G04 #@! TF.GenerationSoftware,KiCad,Pcbnew,(5.0.2)-1*
G04 #@! TF.CreationDate,2019-03-25T01:50:17-07:00*
G04 #@! TF.ProjectId,Orion,4f72696f-6e2e-46b6-9963-61645f706362,rev?*
G04 #@! TF.SameCoordinates,Original*
G04 #@! TF.FileFunction,Soldermask,Top*
G04 #@! TF.FilePolarity,Negative*
%FSLAX46Y46*%
G04 Gerber Fmt 4.6, Leading zero omitted, Abs format (unit mm)*
G04 Created by KiCad (PCBNEW (5.0.2)-1) date 3/25/2019 1:50:17 AM*
%MOMM*%
%LPD*%
G01*
G04 APERTURE LIST*
%ADD10C,0.100000*%
G04 APERTURE END LIST*
D10*
G36*
X105308445Y-92766254D02*
X105656593Y-92835504D01*
X106066249Y-93005189D01*
X106434929Y-93251534D01*
X106748466Y-93565071D01*
X106994811Y-93933751D01*
X107164496Y-94343407D01*
X107215336Y-94599000D01*
X107251000Y-94778294D01*
X107251000Y-95221706D01*
X107233746Y-95308445D01*
X107164496Y-95656593D01*
X106994811Y-96066249D01*
X106748466Y-96434929D01*
X106434929Y-96748466D01*
X106066249Y-96994811D01*
X105656593Y-97164496D01*
X105308445Y-97233746D01*
X105221706Y-97251000D01*
X104778294Y-97251000D01*
X104691555Y-97233746D01*
X104343407Y-97164496D01*
X103933751Y-96994811D01*
X103565071Y-96748466D01*
X103251534Y-96434929D01*
X103005189Y-96066249D01*
X102835504Y-95656593D01*
X102766254Y-95308445D01*
X102749000Y-95221706D01*
X102749000Y-94778294D01*
X102784664Y-94599000D01*
X102835504Y-94343407D01*
X103005189Y-93933751D01*
X103251534Y-93565071D01*
X103565071Y-93251534D01*
X103933751Y-93005189D01*
X104343407Y-92835504D01*
X104691555Y-92766254D01*
X104778294Y-92749000D01*
X105221706Y-92749000D01*
X105308445Y-92766254D01*
X105308445Y-92766254D01*
G37*
G36*
X55308445Y-92766254D02*
X55656593Y-92835504D01*
X56066249Y-93005189D01*
X56434929Y-93251534D01*
X56748466Y-93565071D01*
X56994811Y-93933751D01*
X57164496Y-94343407D01*
X57215336Y-94599000D01*
X57251000Y-94778294D01*
X57251000Y-95221706D01*
X57233746Y-95308445D01*
X57164496Y-95656593D01*
X56994811Y-96066249D01*
X56748466Y-96434929D01*
X56434929Y-96748466D01*
X56066249Y-96994811D01*
X55656593Y-97164496D01*
X55308445Y-97233746D01*
X55221706Y-97251000D01*
X54778294Y-97251000D01*
X54691555Y-97233746D01*
X54343407Y-97164496D01*
X53933751Y-96994811D01*
X53565071Y-96748466D01*
X53251534Y-96434929D01*
X53005189Y-96066249D01*
X52835504Y-95656593D01*
X52766254Y-95308445D01*
X52749000Y-95221706D01*
X52749000Y-94778294D01*
X52784664Y-94599000D01*
X52835504Y-94343407D01*
X53005189Y-93933751D01*
X53251534Y-93565071D01*
X53565071Y-93251534D01*
X53933751Y-93005189D01*
X54343407Y-92835504D01*
X54691555Y-92766254D01*
X54778294Y-92749000D01*
X55221706Y-92749000D01*
X55308445Y-92766254D01*
X55308445Y-92766254D01*
G37*
G36*
X57815331Y-86268211D02*
X58143092Y-86403974D01*
X58438073Y-86601074D01*
X58688926Y-86851927D01*
X58886026Y-87146908D01*
X59021789Y-87474669D01*
X59091000Y-87822616D01*
X59091000Y-88177384D01*
X59021789Y-88525331D01*
X58886026Y-88853092D01*
X58688926Y-89148073D01*
X58438073Y-89398926D01*
X58143092Y-89596026D01*
X57815331Y-89731789D01*
X57467384Y-89801000D01*
X57112616Y-89801000D01*
X56764669Y-89731789D01*
X56436908Y-89596026D01*
X56141927Y-89398926D01*
X55891074Y-89148073D01*
X55693974Y-88853092D01*
X55558211Y-88525331D01*
X55489000Y-88177384D01*
X55489000Y-87822616D01*
X55558211Y-87474669D01*
X55693974Y-87146908D01*
X55891074Y-86851927D01*
X56141927Y-86601074D01*
X56436908Y-86403974D01*
X56764669Y-86268211D01*
X57112616Y-86199000D01*
X57467384Y-86199000D01*
X57815331Y-86268211D01*
X57815331Y-86268211D01*
G37*
G36*
X103235331Y-86268211D02*
X103563092Y-86403974D01*
X103858073Y-86601074D01*
X104108926Y-86851927D01*
X104306026Y-87146908D01*
X104441789Y-87474669D01*
X104511000Y-87822616D01*
X104511000Y-88177384D01*
X104441789Y-88525331D01*
X104306026Y-88853092D01*
X104108926Y-89148073D01*
X103858073Y-89398926D01*
X103563092Y-89596026D01*
X103235331Y-89731789D01*
X102887384Y-89801000D01*
X102532616Y-89801000D01*
X102184669Y-89731789D01*
X101856908Y-89596026D01*
X101561927Y-89398926D01*
X101311074Y-89148073D01*
X101113974Y-88853092D01*
X100978211Y-88525331D01*
X100909000Y-88177384D01*
X100909000Y-87822616D01*
X100978211Y-87474669D01*
X101113974Y-87146908D01*
X101311074Y-86851927D01*
X101561927Y-86601074D01*
X101856908Y-86403974D01*
X102184669Y-86268211D01*
X102532616Y-86199000D01*
X102887384Y-86199000D01*
X103235331Y-86268211D01*
X103235331Y-86268211D01*
G37*
G36*
X97066000Y-87821000D02*
X94934000Y-87821000D01*
X94934000Y-86579000D01*
X97066000Y-86579000D01*
X97066000Y-87821000D01*
X97066000Y-87821000D01*
G37*
G36*
X97066000Y-85421000D02*
X94934000Y-85421000D01*
X94934000Y-84179000D01*
X97066000Y-84179000D01*
X97066000Y-85421000D01*
X97066000Y-85421000D01*
G37*
G36*
X100407025Y-83710590D02*
X100558012Y-83756392D01*
X100697165Y-83830770D01*
X100819133Y-83930867D01*
X100919230Y-84052835D01*
X100993608Y-84191988D01*
X101039410Y-84342975D01*
X101054875Y-84500000D01*
X101039410Y-84657025D01*
X100993608Y-84808012D01*
X100919230Y-84947165D01*
X100819133Y-85069133D01*
X100697165Y-85169230D01*
X100558012Y-85243608D01*
X100407025Y-85289410D01*
X100289346Y-85301000D01*
X99710654Y-85301000D01*
X99592975Y-85289410D01*
X99441988Y-85243608D01*
X99302835Y-85169230D01*
X99180867Y-85069133D01*
X99080770Y-84947165D01*
X99006392Y-84808012D01*
X98960590Y-84657025D01*
X98945125Y-84500000D01*
X98960590Y-84342975D01*
X99006392Y-84191988D01*
X99080770Y-84052835D01*
X99180867Y-83930867D01*
X99302835Y-83830770D01*
X99441988Y-83756392D01*
X99592975Y-83710590D01*
X99710654Y-83699000D01*
X100289346Y-83699000D01*
X100407025Y-83710590D01*
X100407025Y-83710590D01*
G37*
G36*
X60407025Y-83710590D02*
X60558012Y-83756392D01*
X60697165Y-83830770D01*
X60819133Y-83930867D01*
X60919230Y-84052835D01*
X60993608Y-84191988D01*
X61039410Y-84342975D01*
X61054875Y-84500000D01*
X61039410Y-84657025D01*
X60993608Y-84808012D01*
X60919230Y-84947165D01*
X60819133Y-85069133D01*
X60697165Y-85169230D01*
X60558012Y-85243608D01*
X60407025Y-85289410D01*
X60289346Y-85301000D01*
X59710654Y-85301000D01*
X59592975Y-85289410D01*
X59441988Y-85243608D01*
X59302835Y-85169230D01*
X59180867Y-85069133D01*
X59080770Y-84947165D01*
X59006392Y-84808012D01*
X58960590Y-84657025D01*
X58945125Y-84500000D01*
X58960590Y-84342975D01*
X59006392Y-84191988D01*
X59080770Y-84052835D01*
X59180867Y-83930867D01*
X59302835Y-83830770D01*
X59441988Y-83756392D01*
X59592975Y-83710590D01*
X59710654Y-83699000D01*
X60289346Y-83699000D01*
X60407025Y-83710590D01*
X60407025Y-83710590D01*
G37*
G36*
X100407025Y-81210590D02*
X100558012Y-81256392D01*
X100697165Y-81330770D01*
X100819133Y-81430867D01*
X100919230Y-81552835D01*
X100993608Y-81691988D01*
X101039410Y-81842975D01*
X101054875Y-82000000D01*
X101039410Y-82157025D01*
X100993608Y-82308012D01*
X100919230Y-82447165D01*
X100819133Y-82569133D01*
X100697165Y-82669230D01*
X100558012Y-82743608D01*
X100407025Y-82789410D01*
X100289346Y-82801000D01*
X99710654Y-82801000D01*
X99592975Y-82789410D01*
X99441988Y-82743608D01*
X99302835Y-82669230D01*
X99180867Y-82569133D01*
X99080770Y-82447165D01*
X99006392Y-82308012D01*
X98960590Y-82157025D01*
X98945125Y-82000000D01*
X98960590Y-81842975D01*
X99006392Y-81691988D01*
X99080770Y-81552835D01*
X99180867Y-81430867D01*
X99302835Y-81330770D01*
X99441988Y-81256392D01*
X99592975Y-81210590D01*
X99710654Y-81199000D01*
X100289346Y-81199000D01*
X100407025Y-81210590D01*
X100407025Y-81210590D01*
G37*
G36*
X60407025Y-81210590D02*
X60558012Y-81256392D01*
X60697165Y-81330770D01*
X60819133Y-81430867D01*
X60919230Y-81552835D01*
X60993608Y-81691988D01*
X61039410Y-81842975D01*
X61054875Y-82000000D01*
X61039410Y-82157025D01*
X60993608Y-82308012D01*
X60919230Y-82447165D01*
X60819133Y-82569133D01*
X60697165Y-82669230D01*
X60558012Y-82743608D01*
X60407025Y-82789410D01*
X60289346Y-82801000D01*
X59710654Y-82801000D01*
X59592975Y-82789410D01*
X59441988Y-82743608D01*
X59302835Y-82669230D01*
X59180867Y-82569133D01*
X59080770Y-82447165D01*
X59006392Y-82308012D01*
X58960590Y-82157025D01*
X58945125Y-82000000D01*
X58960590Y-81842975D01*
X59006392Y-81691988D01*
X59080770Y-81552835D01*
X59180867Y-81430867D01*
X59302835Y-81330770D01*
X59441988Y-81256392D01*
X59592975Y-81210590D01*
X59710654Y-81199000D01*
X60289346Y-81199000D01*
X60407025Y-81210590D01*
X60407025Y-81210590D01*
G37*
G36*
X100407025Y-79210590D02*
X100558012Y-79256392D01*
X100697165Y-79330770D01*
X100819133Y-79430867D01*
X100919230Y-79552835D01*
X100993608Y-79691988D01*
X101039410Y-79842975D01*
X101054875Y-80000000D01*
X101039410Y-80157025D01*
X100993608Y-80308012D01*
X100919230Y-80447165D01*
X100819133Y-80569133D01*
X100697165Y-80669230D01*
X100558012Y-80743608D01*
X100407025Y-80789410D01*
X100289346Y-80801000D01*
X99710654Y-80801000D01*
X99592975Y-80789410D01*
X99441988Y-80743608D01*
X99302835Y-80669230D01*
X99180867Y-80569133D01*
X99080770Y-80447165D01*
X99006392Y-80308012D01*
X98960590Y-80157025D01*
X98945125Y-80000000D01*
X98960590Y-79842975D01*
X99006392Y-79691988D01*
X99080770Y-79552835D01*
X99180867Y-79430867D01*
X99302835Y-79330770D01*
X99441988Y-79256392D01*
X99592975Y-79210590D01*
X99710654Y-79199000D01*
X100289346Y-79199000D01*
X100407025Y-79210590D01*
X100407025Y-79210590D01*
G37*
G36*
X60407025Y-79210590D02*
X60558012Y-79256392D01*
X60697165Y-79330770D01*
X60819133Y-79430867D01*
X60919230Y-79552835D01*
X60993608Y-79691988D01*
X61039410Y-79842975D01*
X61054875Y-80000000D01*
X61039410Y-80157025D01*
X60993608Y-80308012D01*
X60919230Y-80447165D01*
X60819133Y-80569133D01*
X60697165Y-80669230D01*
X60558012Y-80743608D01*
X60407025Y-80789410D01*
X60289346Y-80801000D01*
X59710654Y-80801000D01*
X59592975Y-80789410D01*
X59441988Y-80743608D01*
X59302835Y-80669230D01*
X59180867Y-80569133D01*
X59080770Y-80447165D01*
X59006392Y-80308012D01*
X58960590Y-80157025D01*
X58945125Y-80000000D01*
X58960590Y-79842975D01*
X59006392Y-79691988D01*
X59080770Y-79552835D01*
X59180867Y-79430867D01*
X59302835Y-79330770D01*
X59441988Y-79256392D01*
X59592975Y-79210590D01*
X59710654Y-79199000D01*
X60289346Y-79199000D01*
X60407025Y-79210590D01*
X60407025Y-79210590D01*
G37*
G36*
X60407025Y-76710590D02*
X60558012Y-76756392D01*
X60697165Y-76830770D01*
X60819133Y-76930867D01*
X60919230Y-77052835D01*
X60993608Y-77191988D01*
X61039410Y-77342975D01*
X61054875Y-77500000D01*
X61039410Y-77657025D01*
X60993608Y-77808012D01*
X60919230Y-77947165D01*
X60819133Y-78069133D01*
X60697165Y-78169230D01*
X60558012Y-78243608D01*
X60407025Y-78289410D01*
X60289346Y-78301000D01*
X59710654Y-78301000D01*
X59592975Y-78289410D01*
X59441988Y-78243608D01*
X59302835Y-78169230D01*
X59180867Y-78069133D01*
X59080770Y-77947165D01*
X59006392Y-77808012D01*
X58960590Y-77657025D01*
X58945125Y-77500000D01*
X58960590Y-77342975D01*
X59006392Y-77191988D01*
X59080770Y-77052835D01*
X59180867Y-76930867D01*
X59302835Y-76830770D01*
X59441988Y-76756392D01*
X59592975Y-76710590D01*
X59710654Y-76699000D01*
X60289346Y-76699000D01*
X60407025Y-76710590D01*
X60407025Y-76710590D01*
G37*
G36*
X100407025Y-76710590D02*
X100558012Y-76756392D01*
X100697165Y-76830770D01*
X100819133Y-76930867D01*
X100919230Y-77052835D01*
X100993608Y-77191988D01*
X101039410Y-77342975D01*
X101054875Y-77500000D01*
X101039410Y-77657025D01*
X100993608Y-77808012D01*
X100919230Y-77947165D01*
X100819133Y-78069133D01*
X100697165Y-78169230D01*
X100558012Y-78243608D01*
X100407025Y-78289410D01*
X100289346Y-78301000D01*
X99710654Y-78301000D01*
X99592975Y-78289410D01*
X99441988Y-78243608D01*
X99302835Y-78169230D01*
X99180867Y-78069133D01*
X99080770Y-77947165D01*
X99006392Y-77808012D01*
X98960590Y-77657025D01*
X98945125Y-77500000D01*
X98960590Y-77342975D01*
X99006392Y-77191988D01*
X99080770Y-77052835D01*
X99180867Y-76930867D01*
X99302835Y-76830770D01*
X99441988Y-76756392D01*
X99592975Y-76710590D01*
X99710654Y-76699000D01*
X100289346Y-76699000D01*
X100407025Y-76710590D01*
X100407025Y-76710590D01*
G37*
G36*
X65066000Y-77821000D02*
X62934000Y-77821000D01*
X62934000Y-76579000D01*
X65066000Y-76579000D01*
X65066000Y-77821000D01*
X65066000Y-77821000D01*
G37*
G36*
X57815331Y-72268211D02*
X58143092Y-72403974D01*
X58438073Y-72601074D01*
X58688926Y-72851927D01*
X58886026Y-73146908D01*
X59021789Y-73474669D01*
X59091000Y-73822616D01*
X59091000Y-74177384D01*
X59021789Y-74525331D01*
X58886026Y-74853092D01*
X58688926Y-75148073D01*
X58438073Y-75398926D01*
X58143092Y-75596026D01*
X57815331Y-75731789D01*
X57467384Y-75801000D01*
X57112616Y-75801000D01*
X56764669Y-75731789D01*
X56436908Y-75596026D01*
X56141927Y-75398926D01*
X55891074Y-75148073D01*
X55693974Y-74853092D01*
X55558211Y-74525331D01*
X55489000Y-74177384D01*
X55489000Y-73822616D01*
X55558211Y-73474669D01*
X55693974Y-73146908D01*
X55891074Y-72851927D01*
X56141927Y-72601074D01*
X56436908Y-72403974D01*
X56764669Y-72268211D01*
X57112616Y-72199000D01*
X57467384Y-72199000D01*
X57815331Y-72268211D01*
X57815331Y-72268211D01*
G37*
G36*
X103235331Y-72268211D02*
X103563092Y-72403974D01*
X103858073Y-72601074D01*
X104108926Y-72851927D01*
X104306026Y-73146908D01*
X104441789Y-73474669D01*
X104511000Y-73822616D01*
X104511000Y-74177384D01*
X104441789Y-74525331D01*
X104306026Y-74853092D01*
X104108926Y-75148073D01*
X103858073Y-75398926D01*
X103563092Y-75596026D01*
X103235331Y-75731789D01*
X102887384Y-75801000D01*
X102532616Y-75801000D01*
X102184669Y-75731789D01*
X101856908Y-75596026D01*
X101561927Y-75398926D01*
X101311074Y-75148073D01*
X101113974Y-74853092D01*
X100978211Y-74525331D01*
X100909000Y-74177384D01*
X100909000Y-73822616D01*
X100978211Y-73474669D01*
X101113974Y-73146908D01*
X101311074Y-72851927D01*
X101561927Y-72601074D01*
X101856908Y-72403974D01*
X102184669Y-72268211D01*
X102532616Y-72199000D01*
X102887384Y-72199000D01*
X103235331Y-72268211D01*
X103235331Y-72268211D01*
G37*
G36*
X65066000Y-75421000D02*
X62934000Y-75421000D01*
X62934000Y-74179000D01*
X65066000Y-74179000D01*
X65066000Y-75421000D01*
X65066000Y-75421000D01*
G37*
G36*
X88551000Y-73301000D02*
X86499000Y-73301000D01*
X86499000Y-70699000D01*
X88551000Y-70699000D01*
X88551000Y-73301000D01*
X88551000Y-73301000D01*
G37*
G36*
X85501000Y-73301000D02*
X83449000Y-73301000D01*
X83449000Y-70699000D01*
X85501000Y-70699000D01*
X85501000Y-73301000D01*
X85501000Y-73301000D01*
G37*
G36*
X73151000Y-72001000D02*
X71649000Y-72001000D01*
X71649000Y-70699000D01*
X73151000Y-70699000D01*
X73151000Y-72001000D01*
X73151000Y-72001000D01*
G37*
G36*
X75351000Y-72001000D02*
X73849000Y-72001000D01*
X73849000Y-70699000D01*
X75351000Y-70699000D01*
X75351000Y-72001000D01*
X75351000Y-72001000D01*
G37*
G36*
X73151000Y-70301000D02*
X71649000Y-70301000D01*
X71649000Y-68999000D01*
X73151000Y-68999000D01*
X73151000Y-70301000D01*
X73151000Y-70301000D01*
G37*
G36*
X75351000Y-70301000D02*
X73849000Y-70301000D01*
X73849000Y-68999000D01*
X75351000Y-68999000D01*
X75351000Y-70301000D01*
X75351000Y-70301000D01*
G37*
G36*
X87551000Y-69176000D02*
X86449000Y-69176000D01*
X86449000Y-67824000D01*
X87551000Y-67824000D01*
X87551000Y-69176000D01*
X87551000Y-69176000D01*
G37*
G36*
X85551000Y-69176000D02*
X84449000Y-69176000D01*
X84449000Y-67824000D01*
X85551000Y-67824000D01*
X85551000Y-69176000D01*
X85551000Y-69176000D01*
G37*
G36*
X103235331Y-65268211D02*
X103563092Y-65403974D01*
X103858073Y-65601074D01*
X104108926Y-65851927D01*
X104306026Y-66146908D01*
X104441789Y-66474669D01*
X104511000Y-66822616D01*
X104511000Y-67177384D01*
X104441789Y-67525331D01*
X104306026Y-67853092D01*
X104108926Y-68148073D01*
X103858073Y-68398926D01*
X103563092Y-68596026D01*
X103235331Y-68731789D01*
X102887384Y-68801000D01*
X102532616Y-68801000D01*
X102184669Y-68731789D01*
X101856908Y-68596026D01*
X101561927Y-68398926D01*
X101311074Y-68148073D01*
X101113974Y-67853092D01*
X100978211Y-67525331D01*
X100909000Y-67177384D01*
X100909000Y-66822616D01*
X100978211Y-66474669D01*
X101113974Y-66146908D01*
X101311074Y-65851927D01*
X101561927Y-65601074D01*
X101856908Y-65403974D01*
X102184669Y-65268211D01*
X102532616Y-65199000D01*
X102887384Y-65199000D01*
X103235331Y-65268211D01*
X103235331Y-65268211D01*
G37*
G36*
X57815331Y-64268211D02*
X58143092Y-64403974D01*
X58438073Y-64601074D01*
X58688926Y-64851927D01*
X58886026Y-65146908D01*
X59021789Y-65474669D01*
X59091000Y-65822616D01*
X59091000Y-66177384D01*
X59021789Y-66525331D01*
X58886026Y-66853092D01*
X58688926Y-67148073D01*
X58438073Y-67398926D01*
X58143092Y-67596026D01*
X57815331Y-67731789D01*
X57467384Y-67801000D01*
X57112616Y-67801000D01*
X56764669Y-67731789D01*
X56436908Y-67596026D01*
X56141927Y-67398926D01*
X55891074Y-67148073D01*
X55693974Y-66853092D01*
X55558211Y-66525331D01*
X55489000Y-66177384D01*
X55489000Y-65822616D01*
X55558211Y-65474669D01*
X55693974Y-65146908D01*
X55891074Y-64851927D01*
X56141927Y-64601074D01*
X56436908Y-64403974D01*
X56764669Y-64268211D01*
X57112616Y-64199000D01*
X57467384Y-64199000D01*
X57815331Y-64268211D01*
X57815331Y-64268211D01*
G37*
G36*
X97066000Y-66821000D02*
X94934000Y-66821000D01*
X94934000Y-65579000D01*
X97066000Y-65579000D01*
X97066000Y-66821000D01*
X97066000Y-66821000D01*
G37*
G36*
X84378500Y-66751000D02*
X75621500Y-66751000D01*
X75621500Y-65449000D01*
X84378500Y-65449000D01*
X84378500Y-66751000D01*
X84378500Y-66751000D01*
G37*
G36*
X88201000Y-64851000D02*
X86799000Y-64851000D01*
X86799000Y-64049000D01*
X88201000Y-64049000D01*
X88201000Y-64851000D01*
X88201000Y-64851000D01*
G37*
G36*
X97066000Y-64421000D02*
X94934000Y-64421000D01*
X94934000Y-63179000D01*
X97066000Y-63179000D01*
X97066000Y-64421000D01*
X97066000Y-64421000D01*
G37*
G36*
X100407025Y-62710590D02*
X100558012Y-62756392D01*
X100697165Y-62830770D01*
X100819133Y-62930867D01*
X100919230Y-63052835D01*
X100993608Y-63191988D01*
X101039410Y-63342975D01*
X101054875Y-63500000D01*
X101039410Y-63657025D01*
X100993608Y-63808012D01*
X100919230Y-63947165D01*
X100819133Y-64069133D01*
X100697165Y-64169230D01*
X100558012Y-64243608D01*
X100407025Y-64289410D01*
X100289346Y-64301000D01*
X99710654Y-64301000D01*
X99592975Y-64289410D01*
X99441988Y-64243608D01*
X99302835Y-64169230D01*
X99180867Y-64069133D01*
X99080770Y-63947165D01*
X99006392Y-63808012D01*
X98960590Y-63657025D01*
X98945125Y-63500000D01*
X98960590Y-63342975D01*
X99006392Y-63191988D01*
X99080770Y-63052835D01*
X99180867Y-62930867D01*
X99302835Y-62830770D01*
X99441988Y-62756392D01*
X99592975Y-62710590D01*
X99710654Y-62699000D01*
X100289346Y-62699000D01*
X100407025Y-62710590D01*
X100407025Y-62710590D01*
G37*
G36*
X71551000Y-63676000D02*
X70449000Y-63676000D01*
X70449000Y-62324000D01*
X71551000Y-62324000D01*
X71551000Y-63676000D01*
X71551000Y-63676000D01*
G37*
G36*
X73551000Y-63676000D02*
X72449000Y-63676000D01*
X72449000Y-62324000D01*
X73551000Y-62324000D01*
X73551000Y-63676000D01*
X73551000Y-63676000D01*
G37*
G36*
X60407025Y-61710590D02*
X60558012Y-61756392D01*
X60697165Y-61830770D01*
X60819133Y-61930867D01*
X60919230Y-62052835D01*
X60993608Y-62191988D01*
X61039410Y-62342975D01*
X61054875Y-62500000D01*
X61039410Y-62657025D01*
X60993608Y-62808012D01*
X60919230Y-62947165D01*
X60819133Y-63069133D01*
X60697165Y-63169230D01*
X60558012Y-63243608D01*
X60407025Y-63289410D01*
X60289346Y-63301000D01*
X59710654Y-63301000D01*
X59592975Y-63289410D01*
X59441988Y-63243608D01*
X59302835Y-63169230D01*
X59180867Y-63069133D01*
X59080770Y-62947165D01*
X59006392Y-62808012D01*
X58960590Y-62657025D01*
X58945125Y-62500000D01*
X58960590Y-62342975D01*
X59006392Y-62191988D01*
X59080770Y-62052835D01*
X59180867Y-61930867D01*
X59302835Y-61830770D01*
X59441988Y-61756392D01*
X59592975Y-61710590D01*
X59710654Y-61699000D01*
X60289346Y-61699000D01*
X60407025Y-61710590D01*
X60407025Y-61710590D01*
G37*
G36*
X88201000Y-62951000D02*
X86799000Y-62951000D01*
X86799000Y-62149000D01*
X88201000Y-62149000D01*
X88201000Y-62951000D01*
X88201000Y-62951000D01*
G37*
G36*
X100407025Y-60210590D02*
X100558012Y-60256392D01*
X100697165Y-60330770D01*
X100819133Y-60430867D01*
X100919230Y-60552835D01*
X100993608Y-60691988D01*
X101039410Y-60842975D01*
X101054875Y-61000000D01*
X101039410Y-61157025D01*
X100993608Y-61308012D01*
X100919230Y-61447165D01*
X100819133Y-61569133D01*
X100697165Y-61669230D01*
X100558012Y-61743608D01*
X100407025Y-61789410D01*
X100289346Y-61801000D01*
X99710654Y-61801000D01*
X99592975Y-61789410D01*
X99441988Y-61743608D01*
X99302835Y-61669230D01*
X99180867Y-61569133D01*
X99080770Y-61447165D01*
X99006392Y-61308012D01*
X98960590Y-61157025D01*
X98945125Y-61000000D01*
X98960590Y-60842975D01*
X99006392Y-60691988D01*
X99080770Y-60552835D01*
X99180867Y-60430867D01*
X99302835Y-60330770D01*
X99441988Y-60256392D01*
X99592975Y-60210590D01*
X99710654Y-60199000D01*
X100289346Y-60199000D01*
X100407025Y-60210590D01*
X100407025Y-60210590D01*
G37*
G36*
X84378500Y-61551000D02*
X75621500Y-61551000D01*
X75621500Y-60249000D01*
X84378500Y-60249000D01*
X84378500Y-61551000D01*
X84378500Y-61551000D01*
G37*
G36*
X60407025Y-59210590D02*
X60558012Y-59256392D01*
X60697165Y-59330770D01*
X60819133Y-59430867D01*
X60919230Y-59552835D01*
X60993608Y-59691988D01*
X61039410Y-59842975D01*
X61054875Y-60000000D01*
X61039410Y-60157025D01*
X60993608Y-60308012D01*
X60919230Y-60447165D01*
X60819133Y-60569133D01*
X60697165Y-60669230D01*
X60558012Y-60743608D01*
X60407025Y-60789410D01*
X60289346Y-60801000D01*
X59710654Y-60801000D01*
X59592975Y-60789410D01*
X59441988Y-60743608D01*
X59302835Y-60669230D01*
X59180867Y-60569133D01*
X59080770Y-60447165D01*
X59006392Y-60308012D01*
X58960590Y-60157025D01*
X58945125Y-60000000D01*
X58960590Y-59842975D01*
X59006392Y-59691988D01*
X59080770Y-59552835D01*
X59180867Y-59430867D01*
X59302835Y-59330770D01*
X59441988Y-59256392D01*
X59592975Y-59210590D01*
X59710654Y-59199000D01*
X60289346Y-59199000D01*
X60407025Y-59210590D01*
X60407025Y-59210590D01*
G37*
G36*
X73301000Y-60551000D02*
X70699000Y-60551000D01*
X70699000Y-58499000D01*
X73301000Y-58499000D01*
X73301000Y-60551000D01*
X73301000Y-60551000D01*
G37*
G36*
X100407025Y-58210590D02*
X100558012Y-58256392D01*
X100697165Y-58330770D01*
X100819133Y-58430867D01*
X100919230Y-58552835D01*
X100993608Y-58691988D01*
X101039410Y-58842975D01*
X101054875Y-59000000D01*
X101039410Y-59157025D01*
X100993608Y-59308012D01*
X100919230Y-59447165D01*
X100819133Y-59569133D01*
X100697165Y-59669230D01*
X100558012Y-59743608D01*
X100407025Y-59789410D01*
X100289346Y-59801000D01*
X99710654Y-59801000D01*
X99592975Y-59789410D01*
X99441988Y-59743608D01*
X99302835Y-59669230D01*
X99180867Y-59569133D01*
X99080770Y-59447165D01*
X99006392Y-59308012D01*
X98960590Y-59157025D01*
X98945125Y-59000000D01*
X98960590Y-58842975D01*
X99006392Y-58691988D01*
X99080770Y-58552835D01*
X99180867Y-58430867D01*
X99302835Y-58330770D01*
X99441988Y-58256392D01*
X99592975Y-58210590D01*
X99710654Y-58199000D01*
X100289346Y-58199000D01*
X100407025Y-58210590D01*
X100407025Y-58210590D01*
G37*
G36*
X60407025Y-57210590D02*
X60558012Y-57256392D01*
X60697165Y-57330770D01*
X60819133Y-57430867D01*
X60919230Y-57552835D01*
X60993608Y-57691988D01*
X61039410Y-57842975D01*
X61054875Y-58000000D01*
X61039410Y-58157025D01*
X60993608Y-58308012D01*
X60919230Y-58447165D01*
X60819133Y-58569133D01*
X60697165Y-58669230D01*
X60558012Y-58743608D01*
X60407025Y-58789410D01*
X60289346Y-58801000D01*
X59710654Y-58801000D01*
X59592975Y-58789410D01*
X59441988Y-58743608D01*
X59302835Y-58669230D01*
X59180867Y-58569133D01*
X59080770Y-58447165D01*
X59006392Y-58308012D01*
X58960590Y-58157025D01*
X58945125Y-58000000D01*
X58960590Y-57842975D01*
X59006392Y-57691988D01*
X59080770Y-57552835D01*
X59180867Y-57430867D01*
X59302835Y-57330770D01*
X59441988Y-57256392D01*
X59592975Y-57210590D01*
X59710654Y-57199000D01*
X60289346Y-57199000D01*
X60407025Y-57210590D01*
X60407025Y-57210590D01*
G37*
G36*
X80551000Y-58301000D02*
X78499000Y-58301000D01*
X78499000Y-55699000D01*
X80551000Y-55699000D01*
X80551000Y-58301000D01*
X80551000Y-58301000D01*
G37*
G36*
X77501000Y-58301000D02*
X75449000Y-58301000D01*
X75449000Y-55699000D01*
X77501000Y-55699000D01*
X77501000Y-58301000D01*
X77501000Y-58301000D01*
G37*
G36*
X73301000Y-57501000D02*
X70699000Y-57501000D01*
X70699000Y-55449000D01*
X73301000Y-55449000D01*
X73301000Y-57501000D01*
X73301000Y-57501000D01*
G37*
G36*
X100407025Y-55710590D02*
X100558012Y-55756392D01*
X100697165Y-55830770D01*
X100819133Y-55930867D01*
X100919230Y-56052835D01*
X100993608Y-56191988D01*
X101039410Y-56342975D01*
X101054875Y-56500000D01*
X101039410Y-56657025D01*
X100993608Y-56808012D01*
X100919230Y-56947165D01*
X100819133Y-57069133D01*
X100697165Y-57169230D01*
X100558012Y-57243608D01*
X100407025Y-57289410D01*
X100289346Y-57301000D01*
X99710654Y-57301000D01*
X99592975Y-57289410D01*
X99441988Y-57243608D01*
X99302835Y-57169230D01*
X99180867Y-57069133D01*
X99080770Y-56947165D01*
X99006392Y-56808012D01*
X98960590Y-56657025D01*
X98945125Y-56500000D01*
X98960590Y-56342975D01*
X99006392Y-56191988D01*
X99080770Y-56052835D01*
X99180867Y-55930867D01*
X99302835Y-55830770D01*
X99441988Y-55756392D01*
X99592975Y-55710590D01*
X99710654Y-55699000D01*
X100289346Y-55699000D01*
X100407025Y-55710590D01*
X100407025Y-55710590D01*
G37*
G36*
X60407025Y-54710590D02*
X60558012Y-54756392D01*
X60697165Y-54830770D01*
X60819133Y-54930867D01*
X60919230Y-55052835D01*
X60993608Y-55191988D01*
X61039410Y-55342975D01*
X61054875Y-55500000D01*
X61039410Y-55657025D01*
X60993608Y-55808012D01*
X60919230Y-55947165D01*
X60819133Y-56069133D01*
X60697165Y-56169230D01*
X60558012Y-56243608D01*
X60407025Y-56289410D01*
X60289346Y-56301000D01*
X59710654Y-56301000D01*
X59592975Y-56289410D01*
X59441988Y-56243608D01*
X59302835Y-56169230D01*
X59180867Y-56069133D01*
X59080770Y-55947165D01*
X59006392Y-55808012D01*
X58960590Y-55657025D01*
X58945125Y-55500000D01*
X58960590Y-55342975D01*
X59006392Y-55191988D01*
X59080770Y-55052835D01*
X59180867Y-54930867D01*
X59302835Y-54830770D01*
X59441988Y-54756392D01*
X59592975Y-54710590D01*
X59710654Y-54699000D01*
X60289346Y-54699000D01*
X60407025Y-54710590D01*
X60407025Y-54710590D01*
G37*
G36*
X65066000Y-55821000D02*
X62934000Y-55821000D01*
X62934000Y-54579000D01*
X65066000Y-54579000D01*
X65066000Y-55821000D01*
X65066000Y-55821000D01*
G37*
G36*
X103235331Y-51268211D02*
X103563092Y-51403974D01*
X103858073Y-51601074D01*
X104108926Y-51851927D01*
X104306026Y-52146908D01*
X104441789Y-52474669D01*
X104511000Y-52822616D01*
X104511000Y-53177384D01*
X104441789Y-53525331D01*
X104306026Y-53853092D01*
X104108926Y-54148073D01*
X103858073Y-54398926D01*
X103563092Y-54596026D01*
X103235331Y-54731789D01*
X102887384Y-54801000D01*
X102532616Y-54801000D01*
X102184669Y-54731789D01*
X101856908Y-54596026D01*
X101561927Y-54398926D01*
X101311074Y-54148073D01*
X101113974Y-53853092D01*
X100978211Y-53525331D01*
X100909000Y-53177384D01*
X100909000Y-52822616D01*
X100978211Y-52474669D01*
X101113974Y-52146908D01*
X101311074Y-51851927D01*
X101561927Y-51601074D01*
X101856908Y-51403974D01*
X102184669Y-51268211D01*
X102532616Y-51199000D01*
X102887384Y-51199000D01*
X103235331Y-51268211D01*
X103235331Y-51268211D01*
G37*
G36*
X77201000Y-53851000D02*
X75799000Y-53851000D01*
X75799000Y-53049000D01*
X77201000Y-53049000D01*
X77201000Y-53851000D01*
X77201000Y-53851000D01*
G37*
G36*
X84201000Y-53851000D02*
X82799000Y-53851000D01*
X82799000Y-53049000D01*
X84201000Y-53049000D01*
X84201000Y-53851000D01*
X84201000Y-53851000D01*
G37*
G36*
X79401000Y-53801000D02*
X78599000Y-53801000D01*
X78599000Y-53099000D01*
X79401000Y-53099000D01*
X79401000Y-53801000D01*
X79401000Y-53801000D01*
G37*
G36*
X57815331Y-50268211D02*
X58143092Y-50403974D01*
X58438073Y-50601074D01*
X58688926Y-50851927D01*
X58886026Y-51146908D01*
X59021789Y-51474669D01*
X59091000Y-51822616D01*
X59091000Y-52177384D01*
X59021789Y-52525331D01*
X58886026Y-52853092D01*
X58688926Y-53148073D01*
X58438073Y-53398926D01*
X58143092Y-53596026D01*
X57815331Y-53731789D01*
X57467384Y-53801000D01*
X57112616Y-53801000D01*
X56764669Y-53731789D01*
X56436908Y-53596026D01*
X56141927Y-53398926D01*
X55891074Y-53148073D01*
X55693974Y-52853092D01*
X55558211Y-52525331D01*
X55489000Y-52177384D01*
X55489000Y-51822616D01*
X55558211Y-51474669D01*
X55693974Y-51146908D01*
X55891074Y-50851927D01*
X56141927Y-50601074D01*
X56436908Y-50403974D01*
X56764669Y-50268211D01*
X57112616Y-50199000D01*
X57467384Y-50199000D01*
X57815331Y-50268211D01*
X57815331Y-50268211D01*
G37*
G36*
X81401000Y-53801000D02*
X80599000Y-53801000D01*
X80599000Y-53099000D01*
X81401000Y-53099000D01*
X81401000Y-53801000D01*
X81401000Y-53801000D01*
G37*
G36*
X65066000Y-53421000D02*
X62934000Y-53421000D01*
X62934000Y-52179000D01*
X65066000Y-52179000D01*
X65066000Y-53421000D01*
X65066000Y-53421000D01*
G37*
G36*
X79401000Y-52301000D02*
X78599000Y-52301000D01*
X78599000Y-51199000D01*
X79401000Y-51199000D01*
X79401000Y-52301000D01*
X79401000Y-52301000D01*
G37*
G36*
X84201000Y-51951000D02*
X82799000Y-51951000D01*
X82799000Y-51149000D01*
X84201000Y-51149000D01*
X84201000Y-51951000D01*
X84201000Y-51951000D01*
G37*
G36*
X77201000Y-51951000D02*
X75799000Y-51951000D01*
X75799000Y-51149000D01*
X77201000Y-51149000D01*
X77201000Y-51951000D01*
X77201000Y-51951000D01*
G37*
G36*
X81401000Y-51901000D02*
X80599000Y-51901000D01*
X80599000Y-51199000D01*
X81401000Y-51199000D01*
X81401000Y-51901000D01*
X81401000Y-51901000D01*
G37*
G36*
X87701000Y-49351000D02*
X86299000Y-49351000D01*
X86299000Y-48549000D01*
X87701000Y-48549000D01*
X87701000Y-49351000D01*
X87701000Y-49351000D01*
G37*
G36*
X84428015Y-45686973D02*
X84531879Y-45718479D01*
X84627600Y-45769644D01*
X84711501Y-45838499D01*
X84780356Y-45922400D01*
X84831521Y-46018121D01*
X84863027Y-46121985D01*
X84871000Y-46202933D01*
X84871000Y-47357067D01*
X84863027Y-47438015D01*
X84831521Y-47541879D01*
X84780356Y-47637600D01*
X84711501Y-47721501D01*
X84627600Y-47790356D01*
X84531878Y-47841521D01*
X84428014Y-47873027D01*
X84320000Y-47883666D01*
X84211985Y-47873027D01*
X84108121Y-47841521D01*
X84012400Y-47790356D01*
X83928499Y-47721501D01*
X83859644Y-47637600D01*
X83811234Y-47547031D01*
X83797626Y-47526666D01*
X83780299Y-47509339D01*
X83759924Y-47495726D01*
X83737285Y-47486348D01*
X83713252Y-47481568D01*
X83688747Y-47481568D01*
X83664714Y-47486349D01*
X83642075Y-47495726D01*
X83621700Y-47509340D01*
X83604373Y-47526667D01*
X83590760Y-47547042D01*
X83581382Y-47569681D01*
X83576000Y-47605966D01*
X83576000Y-48471000D01*
X76424000Y-48471000D01*
X76424000Y-47605966D01*
X76421598Y-47581581D01*
X76414485Y-47558132D01*
X76402934Y-47536521D01*
X76387388Y-47517579D01*
X76368446Y-47502033D01*
X76346835Y-47490482D01*
X76323386Y-47483369D01*
X76299000Y-47480967D01*
X76274614Y-47483369D01*
X76251165Y-47490482D01*
X76229554Y-47502033D01*
X76210612Y-47517579D01*
X76188765Y-47547036D01*
X76140356Y-47637600D01*
X76071501Y-47721501D01*
X75987600Y-47790356D01*
X75891878Y-47841521D01*
X75788014Y-47873027D01*
X75680000Y-47883666D01*
X75571985Y-47873027D01*
X75468121Y-47841521D01*
X75372400Y-47790356D01*
X75288499Y-47721501D01*
X75219644Y-47637600D01*
X75168479Y-47541878D01*
X75136973Y-47438014D01*
X75129000Y-47357066D01*
X75129001Y-46202933D01*
X75136974Y-46121985D01*
X75168480Y-46018121D01*
X75219645Y-45922400D01*
X75288500Y-45838499D01*
X75372401Y-45769644D01*
X75468122Y-45718479D01*
X75571986Y-45686973D01*
X75680000Y-45676334D01*
X75788015Y-45686973D01*
X75891879Y-45718479D01*
X75987600Y-45769644D01*
X76071501Y-45838499D01*
X76140356Y-45922400D01*
X76191521Y-46018121D01*
X76223027Y-46121985D01*
X76231000Y-46202933D01*
X76231000Y-46794000D01*
X76233402Y-46818386D01*
X76240515Y-46841835D01*
X76252066Y-46863446D01*
X76267612Y-46882388D01*
X76286554Y-46897934D01*
X76308165Y-46909485D01*
X76331614Y-46916598D01*
X76356000Y-46919000D01*
X83644000Y-46919000D01*
X83668386Y-46916598D01*
X83691835Y-46909485D01*
X83713446Y-46897934D01*
X83732388Y-46882388D01*
X83747934Y-46863446D01*
X83759485Y-46841835D01*
X83766598Y-46818386D01*
X83769000Y-46794000D01*
X83769001Y-46202939D01*
X83769001Y-46202933D01*
X83776974Y-46121985D01*
X83808480Y-46018121D01*
X83859645Y-45922400D01*
X83928500Y-45838499D01*
X84012401Y-45769644D01*
X84108122Y-45718479D01*
X84211986Y-45686973D01*
X84320000Y-45676334D01*
X84428015Y-45686973D01*
X84428015Y-45686973D01*
G37*
G36*
X87701000Y-47451000D02*
X86299000Y-47451000D01*
X86299000Y-46649000D01*
X87701000Y-46649000D01*
X87701000Y-47451000D01*
X87701000Y-47451000D01*
G37*
G36*
X105308445Y-42766254D02*
X105656593Y-42835504D01*
X106066249Y-43005189D01*
X106434929Y-43251534D01*
X106748466Y-43565071D01*
X106994811Y-43933751D01*
X107164496Y-44343407D01*
X107215336Y-44599000D01*
X107251000Y-44778294D01*
X107251000Y-45221706D01*
X107233746Y-45308445D01*
X107164496Y-45656593D01*
X106994811Y-46066249D01*
X106748466Y-46434929D01*
X106434929Y-46748466D01*
X106066249Y-46994811D01*
X105656593Y-47164496D01*
X105308445Y-47233746D01*
X105221706Y-47251000D01*
X104778294Y-47251000D01*
X104691555Y-47233746D01*
X104343407Y-47164496D01*
X103933751Y-46994811D01*
X103565071Y-46748466D01*
X103251534Y-46434929D01*
X103005189Y-46066249D01*
X102835504Y-45656593D01*
X102766254Y-45308445D01*
X102749000Y-45221706D01*
X102749000Y-44778294D01*
X102784664Y-44599000D01*
X102835504Y-44343407D01*
X103005189Y-43933751D01*
X103251534Y-43565071D01*
X103565071Y-43251534D01*
X103933751Y-43005189D01*
X104343407Y-42835504D01*
X104691555Y-42766254D01*
X104778294Y-42749000D01*
X105221706Y-42749000D01*
X105308445Y-42766254D01*
X105308445Y-42766254D01*
G37*
G36*
X55308445Y-42766254D02*
X55656593Y-42835504D01*
X56066249Y-43005189D01*
X56434929Y-43251534D01*
X56748466Y-43565071D01*
X56994811Y-43933751D01*
X57164496Y-44343407D01*
X57215336Y-44599000D01*
X57251000Y-44778294D01*
X57251000Y-45221706D01*
X57233746Y-45308445D01*
X57164496Y-45656593D01*
X56994811Y-46066249D01*
X56748466Y-46434929D01*
X56434929Y-46748466D01*
X56066249Y-46994811D01*
X55656593Y-47164496D01*
X55308445Y-47233746D01*
X55221706Y-47251000D01*
X54778294Y-47251000D01*
X54691555Y-47233746D01*
X54343407Y-47164496D01*
X53933751Y-46994811D01*
X53565071Y-46748466D01*
X53251534Y-46434929D01*
X53005189Y-46066249D01*
X52835504Y-45656593D01*
X52766254Y-45308445D01*
X52749000Y-45221706D01*
X52749000Y-44778294D01*
X52784664Y-44599000D01*
X52835504Y-44343407D01*
X53005189Y-43933751D01*
X53251534Y-43565071D01*
X53565071Y-43251534D01*
X53933751Y-43005189D01*
X54343407Y-42835504D01*
X54691555Y-42766254D01*
X54778294Y-42749000D01*
X55221706Y-42749000D01*
X55308445Y-42766254D01*
X55308445Y-42766254D01*
G37*
G36*
X82999672Y-45888449D02*
X82999674Y-45888450D01*
X82999675Y-45888450D01*
X83068103Y-45916793D01*
X83129409Y-45957757D01*
X83129689Y-45957944D01*
X83182056Y-46010311D01*
X83182058Y-46010314D01*
X83223207Y-46071897D01*
X83251550Y-46140325D01*
X83266000Y-46212967D01*
X83266000Y-46287033D01*
X83251550Y-46359675D01*
X83223207Y-46428103D01*
X83201857Y-46460055D01*
X83182056Y-46489689D01*
X83129689Y-46542056D01*
X83129686Y-46542058D01*
X83068103Y-46583207D01*
X82999675Y-46611550D01*
X82999674Y-46611550D01*
X82999672Y-46611551D01*
X82927034Y-46626000D01*
X82852966Y-46626000D01*
X82780328Y-46611551D01*
X82780326Y-46611550D01*
X82780325Y-46611550D01*
X82711897Y-46583207D01*
X82650314Y-46542058D01*
X82650311Y-46542056D01*
X82597944Y-46489689D01*
X82578143Y-46460055D01*
X82556793Y-46428103D01*
X82528450Y-46359675D01*
X82514000Y-46287033D01*
X82514000Y-46212967D01*
X82528450Y-46140325D01*
X82556793Y-46071897D01*
X82597942Y-46010314D01*
X82597944Y-46010311D01*
X82650311Y-45957944D01*
X82650591Y-45957757D01*
X82711897Y-45916793D01*
X82780325Y-45888450D01*
X82780326Y-45888450D01*
X82780328Y-45888449D01*
X82852966Y-45874000D01*
X82927034Y-45874000D01*
X82999672Y-45888449D01*
X82999672Y-45888449D01*
G37*
G36*
X77219672Y-45888449D02*
X77219674Y-45888450D01*
X77219675Y-45888450D01*
X77288103Y-45916793D01*
X77349409Y-45957757D01*
X77349689Y-45957944D01*
X77402056Y-46010311D01*
X77402058Y-46010314D01*
X77443207Y-46071897D01*
X77471550Y-46140325D01*
X77486000Y-46212967D01*
X77486000Y-46287033D01*
X77471550Y-46359675D01*
X77443207Y-46428103D01*
X77421857Y-46460055D01*
X77402056Y-46489689D01*
X77349689Y-46542056D01*
X77349686Y-46542058D01*
X77288103Y-46583207D01*
X77219675Y-46611550D01*
X77219674Y-46611550D01*
X77219672Y-46611551D01*
X77147034Y-46626000D01*
X77072966Y-46626000D01*
X77000328Y-46611551D01*
X77000326Y-46611550D01*
X77000325Y-46611550D01*
X76931897Y-46583207D01*
X76870314Y-46542058D01*
X76870311Y-46542056D01*
X76817944Y-46489689D01*
X76798143Y-46460055D01*
X76776793Y-46428103D01*
X76748450Y-46359675D01*
X76734000Y-46287033D01*
X76734000Y-46212967D01*
X76748450Y-46140325D01*
X76776793Y-46071897D01*
X76817942Y-46010314D01*
X76817944Y-46010311D01*
X76870311Y-45957944D01*
X76870591Y-45957757D01*
X76931897Y-45916793D01*
X77000325Y-45888450D01*
X77000326Y-45888450D01*
X77000328Y-45888449D01*
X77072966Y-45874000D01*
X77147034Y-45874000D01*
X77219672Y-45888449D01*
X77219672Y-45888449D01*
G37*
G36*
X75788015Y-41756973D02*
X75891879Y-41788479D01*
X75987600Y-41839644D01*
X76071501Y-41908499D01*
X76140356Y-41992400D01*
X76191521Y-42088121D01*
X76223027Y-42191985D01*
X76231000Y-42272933D01*
X76231000Y-42927067D01*
X76223027Y-43008015D01*
X76191521Y-43111879D01*
X76140356Y-43207600D01*
X76071501Y-43291501D01*
X75987600Y-43360356D01*
X75891878Y-43411521D01*
X75788014Y-43443027D01*
X75680000Y-43453666D01*
X75571985Y-43443027D01*
X75468121Y-43411521D01*
X75372400Y-43360356D01*
X75288499Y-43291501D01*
X75219644Y-43207600D01*
X75168479Y-43111878D01*
X75136973Y-43008014D01*
X75129000Y-42927066D01*
X75129000Y-42272933D01*
X75136973Y-42191985D01*
X75168480Y-42088121D01*
X75219645Y-41992400D01*
X75288500Y-41908499D01*
X75372401Y-41839644D01*
X75468122Y-41788479D01*
X75571986Y-41756973D01*
X75680000Y-41746334D01*
X75788015Y-41756973D01*
X75788015Y-41756973D01*
G37*
G36*
X84428015Y-41756973D02*
X84531879Y-41788479D01*
X84627600Y-41839644D01*
X84711501Y-41908499D01*
X84780356Y-41992400D01*
X84831521Y-42088121D01*
X84863027Y-42191985D01*
X84871000Y-42272933D01*
X84871000Y-42927067D01*
X84863027Y-43008015D01*
X84831521Y-43111879D01*
X84780356Y-43207600D01*
X84711501Y-43291501D01*
X84627600Y-43360356D01*
X84531878Y-43411521D01*
X84428014Y-43443027D01*
X84320000Y-43453666D01*
X84211985Y-43443027D01*
X84108121Y-43411521D01*
X84012400Y-43360356D01*
X83928499Y-43291501D01*
X83859644Y-43207600D01*
X83808479Y-43111878D01*
X83776973Y-43008014D01*
X83769000Y-42927066D01*
X83769000Y-42272933D01*
X83776973Y-42191985D01*
X83808480Y-42088121D01*
X83859645Y-41992400D01*
X83928500Y-41908499D01*
X84012401Y-41839644D01*
X84108122Y-41788479D01*
X84211986Y-41756973D01*
X84320000Y-41746334D01*
X84428015Y-41756973D01*
X84428015Y-41756973D01*
G37*
M02*
