M48
;DRILL file {KiCad (5.0.2)-1} date 3/25/2019 2:21:13 AM
;FORMAT={-:-/ absolute / inch / decimal}
FMAT,2
INCH,TZ
T1C0.0157
T2C0.0236
T3C0.0354
T4C0.0827
T5C0.0866
%
G90
G05
T1
X2.4213Y-1.7913
X2.4213Y-1.9882
X2.52Y-2.89
X2.5787Y-3.1102
X2.6181Y-1.7913
X2.695Y-2.075
X2.7165Y-2.4803
X2.7165Y-2.6772
X2.7165Y-2.874
X2.75Y-2.345
X2.7559Y-3.3465
X2.7559Y-3.5433
X2.7559Y-3.7402
X2.7756Y-3.1102
X2.8937Y-2.9528
X2.905Y-2.13
X2.925Y-2.34
X2.9331Y-1.9882
X2.9528Y-3.3465
X2.9528Y-3.5433
X2.9528Y-3.7402
X2.9724Y-3.1102
X2.975Y-2.53
X3.015Y-1.98
X3.06Y-1.98
X3.095Y-1.95
X3.1496Y-3.3465
X3.1496Y-3.5433
X3.1496Y-3.7402
X3.2Y-2.34
X3.205Y-1.95
X3.23Y-1.995
X3.23Y-2.07
X3.285Y-1.98
X3.3071Y-3.0709
X3.335Y-1.93
X3.3465Y-3.3465
X3.3465Y-3.5433
X3.3465Y-3.7402
X3.3661Y-2.185
X3.3661Y-2.3819
X3.5039Y-3.0709
X3.5433Y-3.3465
X3.5433Y-3.5433
X3.5433Y-3.7402
X3.563Y-2.185
X3.563Y-2.3819
X3.563Y-2.5787
X3.563Y-2.7756
X3.6811Y-1.7913
X3.6811Y-3.0709
X3.7795Y-2.665
X3.78Y-3.08
X3.78Y-3.5
X3.85Y-2.85
X3.878Y-1.7913
X3.878Y-1.9882
X4.0689Y-3.7402
X4.0879Y-3.6942
X4.0879Y-3.7861
X4.1339Y-3.6752
X4.1339Y-3.8051
X4.1798Y-3.6942
X4.1798Y-3.7861
X4.1988Y-3.7402
X2.1004Y-3.7402
X2.1194Y-3.6942
X2.1194Y-3.7861
X2.1654Y-3.6752
X2.1654Y-3.8051
X2.2113Y-3.6942
X2.2113Y-3.7861
X2.2303Y-3.7402
X4.0689Y-1.7717
X4.0879Y-1.7257
X4.0879Y-1.8176
X4.1339Y-1.7067
X4.1339Y-1.8366
X4.1798Y-1.7257
X4.1798Y-1.8176
X4.1988Y-1.7717
X2.1004Y-1.7717
X2.1194Y-1.7257
X2.1194Y-1.8176
X2.1654Y-1.7067
X2.1654Y-1.8366
X2.2113Y-1.7257
X2.2113Y-1.8176
X2.2303Y-1.7717
T3
X2.3622Y-3.0512
X2.3622Y-3.1496
X2.3622Y-3.2283
X2.3622Y-3.3268
X3.937Y-3.0512
X3.937Y-3.1496
X3.937Y-3.2283
X3.937Y-3.3268
X2.3622Y-2.185
X2.3622Y-2.2835
X2.3622Y-2.3622
X2.3622Y-2.4606
X3.937Y-2.2244
X3.937Y-2.3228
X3.937Y-2.4016
X3.937Y-2.5
T4
X2.2555Y-2.9134
X2.2555Y-3.4646
X4.0437Y-2.9134
X4.0437Y-3.4646
X2.2555Y-2.0472
X2.2555Y-2.5984
X4.0437Y-2.0866
X4.0437Y-2.6378
T5
X2.1654Y-3.7402
X4.1339Y-1.7717
X2.1654Y-1.7717
X4.1339Y-3.7402
T2
X2.9795Y-1.689G85X2.9795Y-1.6654
G05
X2.9795Y-1.8634G85X2.9795Y-1.8201
G05
X3.3197Y-1.689G85X3.3197Y-1.6654
G05
X3.3197Y-1.8634G85X3.3197Y-1.8201
G05
T0
M30
