G04 #@! TF.GenerationSoftware,KiCad,Pcbnew,(5.0.2)-1*
G04 #@! TF.CreationDate,2019-03-25T02:21:11-07:00*
G04 #@! TF.ProjectId,Orion,4f72696f-6e2e-46b6-9963-61645f706362,rev?*
G04 #@! TF.SameCoordinates,Original*
G04 #@! TF.FileFunction,Copper,L1,Top*
G04 #@! TF.FilePolarity,Positive*
%FSLAX46Y46*%
G04 Gerber Fmt 4.6, Leading zero omitted, Abs format (unit mm)*
G04 Created by KiCad (PCBNEW (5.0.2)-1) date 3/25/2019 2:21:11 AM*
%MOMM*%
%LPD*%
G01*
G04 APERTURE LIST*
G04 #@! TA.AperFunction,SMDPad,CuDef*
%ADD10R,1.950000X2.500000*%
G04 #@! TD*
G04 #@! TA.AperFunction,SMDPad,CuDef*
%ADD11R,1.000000X1.250000*%
G04 #@! TD*
G04 #@! TA.AperFunction,SMDPad,CuDef*
%ADD12R,2.500000X1.950000*%
G04 #@! TD*
G04 #@! TA.AperFunction,ComponentPad*
%ADD13O,2.000000X1.500000*%
G04 #@! TD*
G04 #@! TA.AperFunction,ComponentPad*
%ADD14C,3.500000*%
G04 #@! TD*
G04 #@! TA.AperFunction,SMDPad,CuDef*
%ADD15R,1.300000X0.700000*%
G04 #@! TD*
G04 #@! TA.AperFunction,SMDPad,CuDef*
%ADD16R,0.400000X1.200000*%
G04 #@! TD*
G04 #@! TA.AperFunction,ComponentPad*
%ADD17O,1.000000X1.600000*%
G04 #@! TD*
G04 #@! TA.AperFunction,ComponentPad*
%ADD18O,1.000000X2.100000*%
G04 #@! TD*
G04 #@! TA.AperFunction,SMDPad,CuDef*
%ADD19R,0.300000X1.450000*%
G04 #@! TD*
G04 #@! TA.AperFunction,SMDPad,CuDef*
%ADD20R,0.600000X1.450000*%
G04 #@! TD*
G04 #@! TA.AperFunction,SMDPad,CuDef*
%ADD21R,1.400000X1.200000*%
G04 #@! TD*
G04 #@! TA.AperFunction,SMDPad,CuDef*
%ADD22R,0.700000X0.600000*%
G04 #@! TD*
G04 #@! TA.AperFunction,SMDPad,CuDef*
%ADD23R,0.700000X1.000000*%
G04 #@! TD*
G04 #@! TA.AperFunction,SMDPad,CuDef*
%ADD24R,2.030000X1.140000*%
G04 #@! TD*
G04 #@! TA.AperFunction,ComponentPad*
%ADD25C,4.400000*%
G04 #@! TD*
G04 #@! TA.AperFunction,ComponentPad*
%ADD26C,0.700000*%
G04 #@! TD*
G04 #@! TA.AperFunction,SMDPad,CuDef*
%ADD27R,0.600000X0.700000*%
G04 #@! TD*
G04 #@! TA.AperFunction,SMDPad,CuDef*
%ADD28R,1.000000X0.700000*%
G04 #@! TD*
G04 #@! TA.AperFunction,ViaPad*
%ADD29C,0.800000*%
G04 #@! TD*
G04 #@! TA.AperFunction,Conductor*
%ADD30C,0.381000*%
G04 #@! TD*
G04 #@! TA.AperFunction,Conductor*
%ADD31C,0.508000*%
G04 #@! TD*
G04 #@! TA.AperFunction,Conductor*
%ADD32C,0.254000*%
G04 #@! TD*
G04 #@! TA.AperFunction,Conductor*
%ADD33C,0.635000*%
G04 #@! TD*
G04 #@! TA.AperFunction,Conductor*
%ADD34C,0.152400*%
G04 #@! TD*
G04 #@! TA.AperFunction,Conductor*
%ADD35C,1.270000*%
G04 #@! TD*
G04 APERTURE END LIST*
D10*
G04 #@! TO.P,C1,1*
G04 #@! TO.N,+1V8*
X84475000Y-72000000D03*
G04 #@! TO.P,C1,2*
G04 #@! TO.N,GND*
X87525000Y-72000000D03*
G04 #@! TD*
G04 #@! TO.P,C2,2*
G04 #@! TO.N,GND*
X76475000Y-57000000D03*
G04 #@! TO.P,C2,1*
G04 #@! TO.N,+3V3*
X79525000Y-57000000D03*
G04 #@! TD*
D11*
G04 #@! TO.P,C3,2*
G04 #@! TO.N,GND*
X71000000Y-63000000D03*
G04 #@! TO.P,C3,1*
G04 #@! TO.N,+1V8*
X73000000Y-63000000D03*
G04 #@! TD*
G04 #@! TO.P,C4,1*
G04 #@! TO.N,+3V3*
X85000000Y-68500000D03*
G04 #@! TO.P,C4,2*
G04 #@! TO.N,GND*
X87000000Y-68500000D03*
G04 #@! TD*
D12*
G04 #@! TO.P,C5,2*
G04 #@! TO.N,GND*
X72000000Y-56475000D03*
G04 #@! TO.P,C5,1*
G04 #@! TO.N,+5V*
X72000000Y-59525000D03*
G04 #@! TD*
D13*
G04 #@! TO.P,J1,1*
G04 #@! TO.N,Net-(F1-Pad2)*
X100000000Y-63500000D03*
D14*
G04 #@! TO.P,J1,5*
G04 #@! TO.N,GNDA*
X102710000Y-53000000D03*
D13*
G04 #@! TO.P,J1,2*
G04 #@! TO.N,D1-*
X100000000Y-61000000D03*
G04 #@! TO.P,J1,3*
G04 #@! TO.N,D1+*
X100000000Y-59000000D03*
G04 #@! TO.P,J1,4*
G04 #@! TO.N,GND*
X100000000Y-56500000D03*
D14*
G04 #@! TO.P,J1,5*
G04 #@! TO.N,GNDA*
X102710000Y-67000000D03*
G04 #@! TD*
G04 #@! TO.P,J2,5*
G04 #@! TO.N,GNDA*
X102710000Y-88000000D03*
D13*
G04 #@! TO.P,J2,4*
G04 #@! TO.N,GND*
X100000000Y-77500000D03*
G04 #@! TO.P,J2,3*
G04 #@! TO.N,D2+*
X100000000Y-80000000D03*
G04 #@! TO.P,J2,2*
G04 #@! TO.N,D2-*
X100000000Y-82000000D03*
D14*
G04 #@! TO.P,J2,5*
G04 #@! TO.N,GNDA*
X102710000Y-74000000D03*
D13*
G04 #@! TO.P,J2,1*
G04 #@! TO.N,Net-(F2-Pad2)*
X100000000Y-84500000D03*
G04 #@! TD*
G04 #@! TO.P,J3,1*
G04 #@! TO.N,Net-(F3-Pad2)*
X60000000Y-77500000D03*
D14*
G04 #@! TO.P,J3,5*
G04 #@! TO.N,GNDA*
X57290000Y-88000000D03*
D13*
G04 #@! TO.P,J3,2*
G04 #@! TO.N,D3-*
X60000000Y-80000000D03*
G04 #@! TO.P,J3,3*
G04 #@! TO.N,D3+*
X60000000Y-82000000D03*
G04 #@! TO.P,J3,4*
G04 #@! TO.N,GND*
X60000000Y-84500000D03*
D14*
G04 #@! TO.P,J3,5*
G04 #@! TO.N,GNDA*
X57290000Y-74000000D03*
G04 #@! TD*
G04 #@! TO.P,J4,5*
G04 #@! TO.N,GNDA*
X57290000Y-52000000D03*
D13*
G04 #@! TO.P,J4,4*
G04 #@! TO.N,GND*
X60000000Y-62500000D03*
G04 #@! TO.P,J4,3*
G04 #@! TO.N,D4+*
X60000000Y-60000000D03*
G04 #@! TO.P,J4,2*
G04 #@! TO.N,D4-*
X60000000Y-58000000D03*
D14*
G04 #@! TO.P,J4,5*
G04 #@! TO.N,GNDA*
X57290000Y-66000000D03*
D13*
G04 #@! TO.P,J4,1*
G04 #@! TO.N,Net-(F4-Pad2)*
X60000000Y-55500000D03*
G04 #@! TD*
D15*
G04 #@! TO.P,R1,2*
G04 #@! TO.N,GND*
X87500000Y-62550000D03*
G04 #@! TO.P,R1,1*
G04 #@! TO.N,Net-(R1-Pad1)*
X87500000Y-64450000D03*
G04 #@! TD*
G04 #@! TO.P,R2,1*
G04 #@! TO.N,GND*
X76500000Y-53450000D03*
G04 #@! TO.P,R2,2*
G04 #@! TO.N,Net-(R2-Pad2)*
X76500000Y-51550000D03*
G04 #@! TD*
G04 #@! TO.P,R3,2*
G04 #@! TO.N,Net-(R3-Pad2)*
X83500000Y-51550000D03*
G04 #@! TO.P,R3,1*
G04 #@! TO.N,GND*
X83500000Y-53450000D03*
G04 #@! TD*
D16*
G04 #@! TO.P,U1,28*
G04 #@! TO.N,+1V8*
X75872500Y-60900000D03*
G04 #@! TO.P,U1,27*
G04 #@! TO.N,Net-(U1-Pad27)*
X76507500Y-60900000D03*
G04 #@! TO.P,U1,26*
G04 #@! TO.N,+3V3*
X77142500Y-60900000D03*
G04 #@! TO.P,U1,25*
G04 #@! TO.N,Net-(U1-Pad25)*
X77777500Y-60900000D03*
G04 #@! TO.P,U1,24*
G04 #@! TO.N,Net-(U1-Pad24)*
X78412500Y-60900000D03*
G04 #@! TO.P,U1,23*
G04 #@! TO.N,Net-(U1-Pad23)*
X79047500Y-60900000D03*
G04 #@! TO.P,U1,22*
G04 #@! TO.N,Net-(U1-Pad22)*
X79682500Y-60900000D03*
G04 #@! TO.P,U1,21*
G04 #@! TO.N,+3V3*
X80317500Y-60900000D03*
G04 #@! TO.P,U1,20*
G04 #@! TO.N,+5V*
X80952500Y-60900000D03*
G04 #@! TO.P,U1,19*
G04 #@! TO.N,+3V3*
X81587500Y-60900000D03*
G04 #@! TO.P,U1,18*
X82222500Y-60900000D03*
G04 #@! TO.P,U1,17*
X82857500Y-60900000D03*
G04 #@! TO.P,U1,16*
G04 #@! TO.N,DU+*
X83492500Y-60900000D03*
G04 #@! TO.P,U1,15*
G04 #@! TO.N,DU-*
X84127500Y-60900000D03*
G04 #@! TO.P,U1,14*
G04 #@! TO.N,Net-(R1-Pad1)*
X84127500Y-66100000D03*
G04 #@! TO.P,U1,13*
G04 #@! TO.N,+3V3*
X83492500Y-66100000D03*
G04 #@! TO.P,U1,12*
G04 #@! TO.N,+1V8*
X82857500Y-66100000D03*
G04 #@! TO.P,U1,11*
G04 #@! TO.N,D1+*
X82222500Y-66100000D03*
G04 #@! TO.P,U1,10*
G04 #@! TO.N,D1-*
X81587500Y-66100000D03*
G04 #@! TO.P,U1,9*
G04 #@! TO.N,D2+*
X80952500Y-66100000D03*
G04 #@! TO.P,U1,8*
G04 #@! TO.N,D2-*
X80317500Y-66100000D03*
G04 #@! TO.P,U1,7*
G04 #@! TO.N,D3+*
X79682500Y-66100000D03*
G04 #@! TO.P,U1,6*
G04 #@! TO.N,D3-*
X79047500Y-66100000D03*
G04 #@! TO.P,U1,5*
G04 #@! TO.N,D4+*
X78412500Y-66100000D03*
G04 #@! TO.P,U1,4*
G04 #@! TO.N,D4-*
X77777500Y-66100000D03*
G04 #@! TO.P,U1,3*
G04 #@! TO.N,Net-(U1-Pad3)*
X77142500Y-66100000D03*
G04 #@! TO.P,U1,2*
G04 #@! TO.N,Net-(U1-Pad2)*
X76507500Y-66100000D03*
G04 #@! TO.P,U1,1*
G04 #@! TO.N,GND*
X75872500Y-66100000D03*
G04 #@! TD*
D17*
G04 #@! TO.P,USB1,13*
G04 #@! TO.N,GNDA*
X75680000Y-42600000D03*
X84320000Y-42600000D03*
D18*
X75680000Y-46780000D03*
X84320000Y-46780000D03*
D19*
G04 #@! TO.P,USB1,6*
G04 #@! TO.N,DU+*
X80250000Y-47695000D03*
G04 #@! TO.P,USB1,7*
G04 #@! TO.N,DU-*
X79750000Y-47695000D03*
G04 #@! TO.P,USB1,8*
G04 #@! TO.N,DU+*
X79250000Y-47695000D03*
G04 #@! TO.P,USB1,5*
G04 #@! TO.N,DU-*
X80750000Y-47695000D03*
G04 #@! TO.P,USB1,9*
G04 #@! TO.N,Net-(USB1-Pad9)*
X78750000Y-47695000D03*
G04 #@! TO.P,USB1,4*
G04 #@! TO.N,Net-(R3-Pad2)*
X81250000Y-47695000D03*
G04 #@! TO.P,USB1,10*
G04 #@! TO.N,Net-(R2-Pad2)*
X78250000Y-47695000D03*
G04 #@! TO.P,USB1,3*
G04 #@! TO.N,Net-(USB1-Pad3)*
X81750000Y-47695000D03*
D20*
G04 #@! TO.P,USB1,2*
G04 #@! TO.N,+5V*
X82450000Y-47695000D03*
G04 #@! TO.P,USB1,11*
X77550000Y-47695000D03*
G04 #@! TO.P,USB1,1*
G04 #@! TO.N,GND*
X83225000Y-47695000D03*
G04 #@! TO.P,USB1,12*
X76775000Y-47695000D03*
G04 #@! TD*
D21*
G04 #@! TO.P,Y1,4*
G04 #@! TO.N,GND*
X74600000Y-71350000D03*
G04 #@! TO.P,Y1,3*
G04 #@! TO.N,Net-(U1-Pad3)*
X72400000Y-71350000D03*
G04 #@! TO.P,Y1,2*
G04 #@! TO.N,GND*
X72400000Y-69650000D03*
G04 #@! TO.P,Y1,1*
G04 #@! TO.N,Net-(U1-Pad2)*
X74600000Y-69650000D03*
G04 #@! TD*
D22*
G04 #@! TO.P,U2,3*
G04 #@! TO.N,DU-*
X81000000Y-53450000D03*
G04 #@! TO.P,U2,2*
G04 #@! TO.N,DU+*
X79000000Y-53450000D03*
G04 #@! TO.P,U2,4*
G04 #@! TO.N,+5V*
X81000000Y-51550000D03*
D23*
G04 #@! TO.P,U2,1*
G04 #@! TO.N,GND*
X79000000Y-51750000D03*
G04 #@! TD*
D24*
G04 #@! TO.P,F1,1*
G04 #@! TO.N,+5V*
X96000000Y-66200000D03*
G04 #@! TO.P,F1,2*
G04 #@! TO.N,Net-(F1-Pad2)*
X96000000Y-63800000D03*
G04 #@! TD*
G04 #@! TO.P,F2,2*
G04 #@! TO.N,Net-(F2-Pad2)*
X96000000Y-84800000D03*
G04 #@! TO.P,F2,1*
G04 #@! TO.N,+5V*
X96000000Y-87200000D03*
G04 #@! TD*
G04 #@! TO.P,F3,1*
G04 #@! TO.N,+5V*
X64000000Y-74800000D03*
G04 #@! TO.P,F3,2*
G04 #@! TO.N,Net-(F3-Pad2)*
X64000000Y-77200000D03*
G04 #@! TD*
G04 #@! TO.P,F4,2*
G04 #@! TO.N,Net-(F4-Pad2)*
X64000000Y-55200000D03*
G04 #@! TO.P,F4,1*
G04 #@! TO.N,+5V*
X64000000Y-52800000D03*
G04 #@! TD*
D25*
G04 #@! TO.P,MH1,1*
G04 #@! TO.N,GNDA*
X55000000Y-45000000D03*
D26*
X56650000Y-45000000D03*
X56166726Y-46166726D03*
X55000000Y-46650000D03*
X53833274Y-46166726D03*
X53350000Y-45000000D03*
X53833274Y-43833274D03*
X55000000Y-43350000D03*
X56166726Y-43833274D03*
G04 #@! TD*
G04 #@! TO.P,MH2,1*
G04 #@! TO.N,GNDA*
X106166726Y-43833274D03*
X105000000Y-43350000D03*
X103833274Y-43833274D03*
X103350000Y-45000000D03*
X103833274Y-46166726D03*
X105000000Y-46650000D03*
X106166726Y-46166726D03*
X106650000Y-45000000D03*
D25*
X105000000Y-45000000D03*
G04 #@! TD*
G04 #@! TO.P,MH3,1*
G04 #@! TO.N,GNDA*
X55000000Y-95000000D03*
D26*
X56650000Y-95000000D03*
X56166726Y-96166726D03*
X55000000Y-96650000D03*
X53833274Y-96166726D03*
X53350000Y-95000000D03*
X53833274Y-93833274D03*
X55000000Y-93350000D03*
X56166726Y-93833274D03*
G04 #@! TD*
G04 #@! TO.P,MH4,1*
G04 #@! TO.N,GNDA*
X106166726Y-93833274D03*
X105000000Y-93350000D03*
X103833274Y-93833274D03*
X103350000Y-95000000D03*
X103833274Y-96166726D03*
X105000000Y-96650000D03*
X106166726Y-96166726D03*
X106650000Y-95000000D03*
D25*
X105000000Y-95000000D03*
G04 #@! TD*
D15*
G04 #@! TO.P,R4,2*
G04 #@! TO.N,GNDA*
X87000000Y-47050000D03*
G04 #@! TO.P,R4,1*
G04 #@! TO.N,GND*
X87000000Y-48950000D03*
G04 #@! TD*
D27*
G04 #@! TO.P,U3,3*
G04 #@! TO.N,D1-*
X95050000Y-61000000D03*
G04 #@! TO.P,U3,2*
G04 #@! TO.N,D1+*
X95050000Y-59000000D03*
G04 #@! TO.P,U3,4*
G04 #@! TO.N,Net-(F1-Pad2)*
X96950000Y-61000000D03*
D28*
G04 #@! TO.P,U3,1*
G04 #@! TO.N,GNDA*
X96750000Y-59000000D03*
G04 #@! TD*
D27*
G04 #@! TO.P,U4,3*
G04 #@! TO.N,D3-*
X64950000Y-80000000D03*
G04 #@! TO.P,U4,2*
G04 #@! TO.N,D3+*
X64950000Y-82000000D03*
G04 #@! TO.P,U4,4*
G04 #@! TO.N,Net-(F3-Pad2)*
X63050000Y-80000000D03*
D28*
G04 #@! TO.P,U4,1*
G04 #@! TO.N,GNDA*
X63250000Y-82000000D03*
G04 #@! TD*
G04 #@! TO.P,U5,1*
G04 #@! TO.N,GNDA*
X96750000Y-80000000D03*
D27*
G04 #@! TO.P,U5,4*
G04 #@! TO.N,Net-(F2-Pad2)*
X96950000Y-82000000D03*
G04 #@! TO.P,U5,2*
G04 #@! TO.N,D2+*
X95050000Y-80000000D03*
G04 #@! TO.P,U5,3*
G04 #@! TO.N,D2-*
X95050000Y-82000000D03*
G04 #@! TD*
D28*
G04 #@! TO.P,U6,1*
G04 #@! TO.N,GNDA*
X63250000Y-60000000D03*
D27*
G04 #@! TO.P,U6,4*
G04 #@! TO.N,Net-(F4-Pad2)*
X63050000Y-58000000D03*
G04 #@! TO.P,U6,2*
G04 #@! TO.N,D4+*
X64950000Y-60000000D03*
G04 #@! TO.P,U6,3*
G04 #@! TO.N,D4-*
X64950000Y-58000000D03*
G04 #@! TD*
D29*
G04 #@! TO.N,GND*
X74500000Y-50500000D03*
X75565000Y-64262000D03*
X73787000Y-54102000D03*
X84709000Y-49022000D03*
X70000000Y-85000000D03*
X75000000Y-85000000D03*
X80000000Y-85000000D03*
X85000000Y-85000000D03*
X90000000Y-85000000D03*
X70000000Y-90000000D03*
X75000000Y-90000000D03*
X80000000Y-90000000D03*
X85000000Y-90000000D03*
X90000000Y-90000000D03*
X70000000Y-95000000D03*
X75000000Y-95000000D03*
X80000000Y-95000000D03*
X85000000Y-95000000D03*
X90000000Y-95000000D03*
X93500000Y-78000000D03*
X89000000Y-78000000D03*
X84000000Y-78000000D03*
X65500000Y-79000000D03*
X70500000Y-79000000D03*
X75500000Y-79000000D03*
X90500000Y-55500000D03*
X90500000Y-60500000D03*
X90500000Y-65500000D03*
X90500000Y-70500000D03*
X69000000Y-73000000D03*
X69000000Y-68000000D03*
X69000000Y-63000000D03*
X73500000Y-75000000D03*
X98500000Y-45500000D03*
X93500000Y-45500000D03*
X98500000Y-50500000D03*
X61500000Y-45500000D03*
X66500000Y-45500000D03*
X61500000Y-50500000D03*
X85500000Y-60500000D03*
X85500000Y-55500000D03*
X97790000Y-72390000D03*
G04 #@! TO.N,+5V*
X77724000Y-50292000D03*
X82042000Y-50673000D03*
X81280000Y-59436000D03*
X74295000Y-59436000D03*
X82042000Y-52578000D03*
X69850000Y-59563000D03*
X64008000Y-73406000D03*
X68453000Y-52705000D03*
X96012000Y-78232000D03*
X96012000Y-88900000D03*
X96000000Y-67691000D03*
G04 #@! TO.N,Net-(R2-Pad2)*
X78613000Y-49530000D03*
X76581000Y-50292000D03*
G04 #@! TO.N,Net-(R3-Pad2)*
X81407000Y-49530000D03*
X83439000Y-50292000D03*
G04 #@! TD*
D30*
G04 #@! TO.N,+1V8*
X75872500Y-60900000D02*
X75872500Y-61795500D01*
X74668000Y-63000000D02*
X73000000Y-63000000D01*
X75872500Y-61795500D02*
X74668000Y-63000000D01*
X82857500Y-64442500D02*
X82857500Y-66100000D01*
X82042000Y-63627000D02*
X82857500Y-64442500D01*
X75872500Y-60900000D02*
X75872500Y-61775500D01*
X75872500Y-61775500D02*
X76835000Y-62738000D01*
X81153000Y-62738000D02*
X82042000Y-63627000D01*
X76835000Y-62738000D02*
X81153000Y-62738000D01*
X84475000Y-71394000D02*
X84475000Y-72000000D01*
X82857500Y-66100000D02*
X82857500Y-69776500D01*
X82857500Y-69776500D02*
X84475000Y-71394000D01*
D31*
G04 #@! TO.N,GND*
X79000000Y-51750000D02*
X78425000Y-51750000D01*
X78425000Y-51750000D02*
X77978000Y-52197000D01*
X77360000Y-53450000D02*
X77978000Y-52832000D01*
X76500000Y-53450000D02*
X77360000Y-53450000D01*
X77978000Y-52197000D02*
X77978000Y-52832000D01*
X76775000Y-47695000D02*
X76775000Y-48701000D01*
X76775000Y-48701000D02*
X75184000Y-50292000D01*
X75184000Y-50292000D02*
X75184000Y-53086000D01*
X75548000Y-53450000D02*
X76500000Y-53450000D01*
X75184000Y-53086000D02*
X75548000Y-53450000D01*
D30*
X72525000Y-57000000D02*
X72000000Y-56475000D01*
X76475000Y-57000000D02*
X72525000Y-57000000D01*
X72000000Y-56475000D02*
X72000000Y-55254000D01*
X74168000Y-53086000D02*
X75184000Y-53086000D01*
X74600000Y-71350000D02*
X74350000Y-71350000D01*
X72650000Y-69650000D02*
X72400000Y-69650000D01*
D32*
X74350000Y-71350000D02*
X72650000Y-69650000D01*
D30*
X75872500Y-66100000D02*
X75872500Y-66621500D01*
X75872500Y-66621500D02*
X74168000Y-68326000D01*
X74168000Y-68326000D02*
X73533000Y-68326000D01*
X72400000Y-69459000D02*
X72400000Y-69650000D01*
X73533000Y-68326000D02*
X72400000Y-69459000D01*
X83225000Y-48225000D02*
X83225000Y-47695000D01*
X74976000Y-50500000D02*
X75184000Y-50292000D01*
X74500000Y-50500000D02*
X74976000Y-50500000D01*
X87000000Y-69706000D02*
X87525000Y-70231000D01*
X87000000Y-68500000D02*
X87000000Y-69706000D01*
X87525000Y-72000000D02*
X87525000Y-70231000D01*
X71000000Y-63000000D02*
X71000000Y-64269000D01*
X75872500Y-66100000D02*
X75872500Y-65077500D01*
X75872500Y-65077500D02*
X75565000Y-64770000D01*
X71501000Y-64770000D02*
X71000000Y-64269000D01*
X75565000Y-64770000D02*
X71501000Y-64770000D01*
X75565000Y-64770000D02*
X75565000Y-64262000D01*
X73533000Y-53848000D02*
X73533000Y-53721000D01*
X73787000Y-54102000D02*
X73533000Y-53848000D01*
X72000000Y-55254000D02*
X73533000Y-53721000D01*
X73533000Y-53721000D02*
X74168000Y-53086000D01*
X83500000Y-53450000D02*
X84472000Y-53450000D01*
X85546000Y-52376000D02*
X85546000Y-50546000D01*
X84472000Y-53450000D02*
X85546000Y-52376000D01*
X84276000Y-49022000D02*
X84149000Y-49149000D01*
X84709000Y-49022000D02*
X84276000Y-49022000D01*
X85546000Y-50546000D02*
X84149000Y-49149000D01*
X84149000Y-49149000D02*
X83225000Y-48225000D01*
X87000000Y-48950000D02*
X87000000Y-50000000D01*
X86454000Y-50546000D02*
X85546000Y-50546000D01*
X87000000Y-50000000D02*
X86454000Y-50546000D01*
D33*
X70000000Y-85000000D02*
X75000000Y-85000000D01*
X80000000Y-85000000D02*
X85000000Y-85000000D01*
X70000000Y-85000000D02*
X70000000Y-90000000D01*
X75000000Y-90000000D02*
X80000000Y-90000000D01*
X85000000Y-90000000D02*
X90000000Y-90000000D01*
X70000000Y-95000000D02*
X75000000Y-95000000D01*
X80000000Y-95000000D02*
X85000000Y-95000000D01*
X93500000Y-78000000D02*
X89000000Y-78000000D01*
X65500000Y-79000000D02*
X70500000Y-79000000D01*
D30*
X90500000Y-55500000D02*
X85546000Y-50546000D01*
D33*
X90500000Y-60500000D02*
X90500000Y-65500000D01*
X88500000Y-68500000D02*
X90500000Y-70500000D01*
X90500000Y-61500000D02*
X90500000Y-60500000D01*
X89450000Y-62550000D02*
X90500000Y-61500000D01*
X89450000Y-62550000D02*
X89000000Y-62550000D01*
D30*
X87500000Y-62550000D02*
X89000000Y-62550000D01*
D33*
X88500000Y-68500000D02*
X88000000Y-68500000D01*
D30*
X87000000Y-68500000D02*
X88000000Y-68500000D01*
D33*
X69000000Y-73000000D02*
X69000000Y-68000000D01*
X90500000Y-55500000D02*
X90500000Y-53500000D01*
X90500000Y-53500000D02*
X98500000Y-45500000D01*
X98500000Y-45500000D02*
X98500000Y-50500000D01*
X61500000Y-45500000D02*
X66500000Y-45500000D01*
X90500000Y-60500000D02*
X85500000Y-60500000D01*
X90500000Y-55500000D02*
X85500000Y-55500000D01*
D30*
G04 #@! TO.N,+3V3*
X83492500Y-66100000D02*
X83492500Y-66992500D01*
X83492500Y-66992500D02*
X85000000Y-68500000D01*
X77142500Y-60900000D02*
X77142500Y-61783500D01*
X77142500Y-61783500D02*
X77470000Y-62111000D01*
X77470000Y-62111000D02*
X80010000Y-62111000D01*
X80317500Y-61803500D02*
X80317500Y-60900000D01*
X80010000Y-62111000D02*
X80317500Y-61803500D01*
X80625000Y-62111000D02*
X80317500Y-61803500D01*
X81534000Y-62111000D02*
X80625000Y-62111000D01*
X81587500Y-60900000D02*
X81587500Y-62057500D01*
X81587500Y-62057500D02*
X81534000Y-62111000D01*
X82857500Y-60900000D02*
X82857500Y-62057500D01*
X82857500Y-62057500D02*
X82804000Y-62111000D01*
X81641000Y-62111000D02*
X81587500Y-62057500D01*
X82222500Y-62057500D02*
X82169000Y-62111000D01*
X82222500Y-60900000D02*
X82222500Y-62057500D01*
X82804000Y-62111000D02*
X82169000Y-62111000D01*
X82169000Y-62111000D02*
X81641000Y-62111000D01*
X79525000Y-58547000D02*
X79525000Y-57000000D01*
X80317500Y-59339500D02*
X79525000Y-58547000D01*
X80317500Y-60900000D02*
X80317500Y-59339500D01*
X83492500Y-66100000D02*
X83492500Y-64061500D01*
X83492500Y-64061500D02*
X82857500Y-63426500D01*
X81641000Y-62210000D02*
X81641000Y-62111000D01*
X82857500Y-63426500D02*
X81641000Y-62210000D01*
D31*
G04 #@! TO.N,+5V*
X77550000Y-50118000D02*
X77724000Y-50292000D01*
X77550000Y-47695000D02*
X77550000Y-50118000D01*
X82450000Y-47695000D02*
X82450000Y-49884000D01*
X81000000Y-51334000D02*
X81000000Y-51550000D01*
X82042000Y-50546000D02*
X81915000Y-50419000D01*
X82042000Y-50673000D02*
X82042000Y-50546000D01*
X82450000Y-49884000D02*
X81915000Y-50419000D01*
X81915000Y-50419000D02*
X81000000Y-51334000D01*
D30*
X80952500Y-60900000D02*
X80952500Y-59763500D01*
X80952500Y-59763500D02*
X81280000Y-59436000D01*
X81000000Y-51550000D02*
X81000000Y-51917000D01*
X81000000Y-51917000D02*
X81661000Y-52578000D01*
X81661000Y-52578000D02*
X82042000Y-52578000D01*
D33*
X64008000Y-74792000D02*
X64000000Y-74800000D01*
X64008000Y-73406000D02*
X64008000Y-74792000D01*
X68358000Y-52800000D02*
X68453000Y-52705000D01*
X64000000Y-52800000D02*
X68358000Y-52800000D01*
X96000000Y-67691000D02*
X96000000Y-66200000D01*
X96000000Y-78220000D02*
X96012000Y-78232000D01*
X96000000Y-67691000D02*
X96000000Y-78220000D01*
X96012000Y-87212000D02*
X96000000Y-87200000D01*
X96012000Y-88900000D02*
X96012000Y-87212000D01*
X71962000Y-59563000D02*
X72000000Y-59525000D01*
X69850000Y-59563000D02*
X71962000Y-59563000D01*
X74206000Y-59525000D02*
X74295000Y-59436000D01*
X72000000Y-59525000D02*
X74206000Y-59525000D01*
D32*
G04 #@! TO.N,Net-(R1-Pad1)*
X85850000Y-66100000D02*
X87500000Y-64450000D01*
X84127500Y-66100000D02*
X85850000Y-66100000D01*
G04 #@! TO.N,Net-(R2-Pad2)*
X78250000Y-47695000D02*
X78250000Y-49167000D01*
X78250000Y-49167000D02*
X78613000Y-49530000D01*
X76581000Y-51469000D02*
X76500000Y-51550000D01*
X76581000Y-50292000D02*
X76581000Y-51469000D01*
G04 #@! TO.N,Net-(R3-Pad2)*
X81250000Y-47695000D02*
X81250000Y-49373000D01*
X81250000Y-49373000D02*
X81407000Y-49530000D01*
X83439000Y-51489000D02*
X83500000Y-51550000D01*
X83439000Y-50292000D02*
X83439000Y-51489000D01*
G04 #@! TO.N,Net-(U1-Pad3)*
X72400000Y-71511000D02*
X72400000Y-71350000D01*
X73406000Y-72517000D02*
X72400000Y-71511000D01*
X77142500Y-66100000D02*
X77142500Y-67129500D01*
X77142500Y-67129500D02*
X75946000Y-68326000D01*
X75946000Y-72136000D02*
X75565000Y-72517000D01*
X75946000Y-68326000D02*
X75946000Y-72136000D01*
X75565000Y-72517000D02*
X73406000Y-72517000D01*
G04 #@! TO.N,Net-(U1-Pad2)*
X74600000Y-68836500D02*
X76507500Y-66929000D01*
X74600000Y-69650000D02*
X74600000Y-68836500D01*
X76507500Y-66100000D02*
X76507500Y-66929000D01*
D33*
G04 #@! TO.N,Net-(F1-Pad2)*
X99700000Y-63800000D02*
X100000000Y-63500000D01*
X96000000Y-63800000D02*
X99700000Y-63800000D01*
D31*
X96950000Y-61000000D02*
X96950000Y-61800000D01*
X96000000Y-62750000D02*
X96000000Y-63800000D01*
X96950000Y-61800000D02*
X96000000Y-62750000D01*
D33*
G04 #@! TO.N,Net-(F2-Pad2)*
X99700000Y-84800000D02*
X100000000Y-84500000D01*
X96000000Y-84800000D02*
X99700000Y-84800000D01*
D31*
X96950000Y-82000000D02*
X96950000Y-82882000D01*
X96000000Y-83832000D02*
X96000000Y-84800000D01*
X96950000Y-82882000D02*
X96000000Y-83832000D01*
D33*
G04 #@! TO.N,Net-(F3-Pad2)*
X60300000Y-77200000D02*
X60000000Y-77500000D01*
X64000000Y-77200000D02*
X60300000Y-77200000D01*
D31*
X63050000Y-80000000D02*
X63050000Y-79190000D01*
X64000000Y-78240000D02*
X64000000Y-77200000D01*
X63050000Y-79190000D02*
X64000000Y-78240000D01*
D34*
G04 #@! TO.N,D1-*
X95872200Y-60177800D02*
X95050000Y-61000000D01*
X99177800Y-60177800D02*
X95872200Y-60177800D01*
X100000000Y-61000000D02*
X99177800Y-60177800D01*
X81727200Y-67139701D02*
X81727200Y-74104648D01*
X81587500Y-67000001D02*
X81727200Y-67139701D01*
X81587500Y-66100000D02*
X81587500Y-67000001D01*
X93395800Y-61157095D02*
X93552895Y-61000000D01*
X89227648Y-75234800D02*
X93395800Y-71066648D01*
X93395800Y-71066648D02*
X93395800Y-61157095D01*
X81727200Y-74104648D02*
X82857352Y-75234800D01*
X82857352Y-75234800D02*
X89227648Y-75234800D01*
X93552895Y-61000000D02*
X93559000Y-61000000D01*
X93980000Y-60579000D02*
X94629000Y-60579000D01*
X94629000Y-60579000D02*
X95050000Y-61000000D01*
X93559000Y-61000000D02*
X93980000Y-60579000D01*
G04 #@! TO.N,D1+*
X95872200Y-59822200D02*
X95050000Y-59000000D01*
X99177800Y-59822200D02*
X95872200Y-59822200D01*
X100000000Y-59000000D02*
X99177800Y-59822200D01*
X82082800Y-67139701D02*
X82082800Y-73957352D01*
X82222500Y-67000001D02*
X82082800Y-67139701D01*
X82222500Y-66100000D02*
X82222500Y-67000001D01*
X83004648Y-74879200D02*
X89080352Y-74879200D01*
X89080352Y-74879200D02*
X93040200Y-70919352D01*
X93301447Y-60748553D02*
X95050000Y-59000000D01*
X93040200Y-61009800D02*
X93301447Y-60748553D01*
X82082800Y-73957352D02*
X83004648Y-74879200D01*
X93040200Y-70919352D02*
X93040200Y-61009800D01*
G04 #@! TO.N,D2+*
X99177800Y-80822200D02*
X100000000Y-80000000D01*
X80812800Y-77386352D02*
X84248648Y-80822200D01*
X80812800Y-67139701D02*
X80812800Y-77386352D01*
X80952500Y-66100000D02*
X80952500Y-67000001D01*
X80952500Y-67000001D02*
X80812800Y-67139701D01*
X94227800Y-80822200D02*
X95050000Y-80000000D01*
X94107000Y-80822200D02*
X94227800Y-80822200D01*
X84248648Y-80822200D02*
X94107000Y-80822200D01*
X95872200Y-80822200D02*
X95050000Y-80000000D01*
X96139000Y-80822200D02*
X95872200Y-80822200D01*
X96139000Y-80822200D02*
X99177800Y-80822200D01*
G04 #@! TO.N,D2-*
X99177800Y-81177800D02*
X100000000Y-82000000D01*
X80457200Y-77533648D02*
X84101352Y-81177800D01*
X80457200Y-67139701D02*
X80457200Y-77533648D01*
X80317500Y-67000001D02*
X80457200Y-67139701D01*
X80317500Y-66100000D02*
X80317500Y-67000001D01*
X94227800Y-81177800D02*
X95050000Y-82000000D01*
X93726000Y-81177800D02*
X94227800Y-81177800D01*
X84101352Y-81177800D02*
X93726000Y-81177800D01*
X95872200Y-81177800D02*
X95050000Y-82000000D01*
X96266000Y-81177800D02*
X95872200Y-81177800D01*
X96266000Y-81177800D02*
X99177800Y-81177800D01*
G04 #@! TO.N,D3-*
X60822200Y-80822200D02*
X60000000Y-80000000D01*
X79187200Y-77406352D02*
X75771352Y-80822200D01*
X79187200Y-67139701D02*
X79187200Y-77406352D01*
X79047500Y-67000001D02*
X79187200Y-67139701D01*
X79047500Y-66100000D02*
X79047500Y-67000001D01*
X64127800Y-80822200D02*
X64950000Y-80000000D01*
X62230000Y-80822200D02*
X64127800Y-80822200D01*
X62230000Y-80822200D02*
X60822200Y-80822200D01*
X65772200Y-80822200D02*
X64950000Y-80000000D01*
X66167000Y-80822200D02*
X65772200Y-80822200D01*
X75771352Y-80822200D02*
X66167000Y-80822200D01*
G04 #@! TO.N,D3+*
X60822200Y-81177800D02*
X60000000Y-82000000D01*
X79542800Y-77553648D02*
X75918648Y-81177800D01*
X79542800Y-67139701D02*
X79542800Y-77553648D01*
X79682500Y-66100000D02*
X79682500Y-67000001D01*
X79682500Y-67000001D02*
X79542800Y-67139701D01*
X64127800Y-81177800D02*
X64950000Y-82000000D01*
X63754000Y-81177800D02*
X64127800Y-81177800D01*
X63754000Y-81177800D02*
X60822200Y-81177800D01*
X65772200Y-81177800D02*
X64950000Y-82000000D01*
X66421000Y-81177800D02*
X65772200Y-81177800D01*
X75918648Y-81177800D02*
X66421000Y-81177800D01*
G04 #@! TO.N,D4+*
X60822200Y-59177800D02*
X60000000Y-60000000D01*
X64127800Y-59177800D02*
X64950000Y-60000000D01*
X64008000Y-59177800D02*
X64127800Y-59177800D01*
X64008000Y-59177800D02*
X60822200Y-59177800D01*
X78412500Y-67000001D02*
X78412500Y-66100000D01*
X78272800Y-67139701D02*
X78412500Y-67000001D01*
X78272800Y-74378648D02*
X78272800Y-67139701D01*
X75511648Y-77139800D02*
X78272800Y-74378648D01*
X70284352Y-77139800D02*
X75511648Y-77139800D01*
X64950000Y-60000000D02*
X65000000Y-60000000D01*
X65000000Y-60000000D02*
X65437000Y-59563000D01*
X65437000Y-59563000D02*
X65735200Y-59563000D01*
X65735200Y-59563000D02*
X66116200Y-59944000D01*
X66116200Y-59944000D02*
X66116200Y-72971648D01*
X66116200Y-72971648D02*
X70284352Y-77139800D01*
G04 #@! TO.N,D4-*
X60822200Y-58822200D02*
X60000000Y-58000000D01*
X64127800Y-58822200D02*
X64950000Y-58000000D01*
X63754000Y-58822200D02*
X64127800Y-58822200D01*
X63754000Y-58822200D02*
X60822200Y-58822200D01*
X77917200Y-67139701D02*
X77917200Y-74231352D01*
X77777500Y-67000001D02*
X77917200Y-67139701D01*
X77777500Y-66100000D02*
X77777500Y-67000001D01*
X64950000Y-58219000D02*
X64950000Y-58000000D01*
X66471800Y-72824352D02*
X66471800Y-59740800D01*
X66471800Y-59740800D02*
X64950000Y-58219000D01*
X77917200Y-74231352D02*
X75364352Y-76784200D01*
X75364352Y-76784200D02*
X70431648Y-76784200D01*
X70431648Y-76784200D02*
X66471800Y-72824352D01*
G04 #@! TO.N,DU+*
X79832200Y-52617800D02*
X79832200Y-49456352D01*
X79000000Y-53450000D02*
X79832200Y-52617800D01*
X83632200Y-56070648D02*
X83632200Y-59860299D01*
X79779000Y-54229000D02*
X81790552Y-54229000D01*
X79000000Y-53450000D02*
X79779000Y-54229000D01*
X81790552Y-54229000D02*
X83632200Y-56070648D01*
X83632200Y-59860299D02*
X83492500Y-59999999D01*
X83492500Y-59999999D02*
X83492500Y-60900000D01*
X79250000Y-47695000D02*
X79250000Y-48516000D01*
X79819500Y-49085500D02*
X79832200Y-49085500D01*
X79250000Y-48516000D02*
X79819500Y-49085500D01*
X79832200Y-49456352D02*
X79832200Y-49085500D01*
X80250000Y-48667700D02*
X79832200Y-49085500D01*
X80250000Y-47695000D02*
X80250000Y-48667700D01*
G04 #@! TO.N,DU-*
X84127500Y-59999999D02*
X84127500Y-60900000D01*
X83987800Y-59860299D02*
X84127500Y-59999999D01*
X83987800Y-55923352D02*
X83987800Y-59860299D01*
X81000000Y-53450000D02*
X81136000Y-53450000D01*
X81136000Y-53450000D02*
X81534000Y-53848000D01*
X81534000Y-53848000D02*
X81912448Y-53848000D01*
X81912448Y-53848000D02*
X83987800Y-55923352D01*
X80750000Y-47695000D02*
X80750000Y-46777500D01*
X80750000Y-46777500D02*
X80581500Y-46609000D01*
X80581500Y-46609000D02*
X79946500Y-46609000D01*
X79750000Y-46805500D02*
X79750000Y-47695000D01*
X79946500Y-46609000D02*
X79750000Y-46805500D01*
X80750000Y-48641000D02*
X80750000Y-47695000D01*
X80750000Y-48688400D02*
X80750000Y-48641000D01*
X80187800Y-49250600D02*
X80750000Y-48688400D01*
X81000000Y-53450000D02*
X80187800Y-52637800D01*
X80187800Y-52637800D02*
X80187800Y-49250600D01*
D33*
G04 #@! TO.N,Net-(F4-Pad2)*
X60300000Y-55200000D02*
X60000000Y-55500000D01*
X64000000Y-55200000D02*
X60300000Y-55200000D01*
D31*
X63050000Y-58000000D02*
X63050000Y-57219000D01*
X64000000Y-56269000D02*
X64000000Y-55200000D01*
X63050000Y-57219000D02*
X64000000Y-56269000D01*
D33*
G04 #@! TO.N,GNDA*
X84320000Y-46780000D02*
X84320000Y-42600000D01*
X84320000Y-42600000D02*
X75680000Y-42600000D01*
X75680000Y-42600000D02*
X75680000Y-46780000D01*
D35*
X57400000Y-42600000D02*
X55000000Y-45000000D01*
X57400000Y-42600000D02*
X74000000Y-42600000D01*
D33*
X75680000Y-42600000D02*
X74000000Y-42600000D01*
D35*
X102600000Y-42600000D02*
X105000000Y-45000000D01*
D33*
X84320000Y-42600000D02*
X86000000Y-42600000D01*
D35*
X102600000Y-42600000D02*
X87000000Y-42600000D01*
X87000000Y-42600000D02*
X86000000Y-42600000D01*
X102710000Y-88000000D02*
X103000000Y-88000000D01*
X103000000Y-88000000D02*
X104500000Y-86500000D01*
X104500000Y-75790000D02*
X102710000Y-74000000D01*
X104500000Y-86500000D02*
X104500000Y-75790000D01*
X102710000Y-74000000D02*
X103000000Y-74000000D01*
X103000000Y-74000000D02*
X104500000Y-72500000D01*
X104500000Y-68790000D02*
X102710000Y-67000000D01*
X104500000Y-72500000D02*
X104500000Y-68790000D01*
X102710000Y-67000000D02*
X103000000Y-67000000D01*
X103000000Y-67000000D02*
X104500000Y-65500000D01*
X104500000Y-54790000D02*
X102710000Y-53000000D01*
X104500000Y-65500000D02*
X104500000Y-54790000D01*
X102710000Y-53000000D02*
X103000000Y-53000000D01*
X103000000Y-53000000D02*
X104500000Y-51500000D01*
X104500000Y-45500000D02*
X105000000Y-45000000D01*
X104500000Y-51500000D02*
X104500000Y-45500000D01*
X104500000Y-94500000D02*
X105000000Y-95000000D01*
X102710000Y-88000000D02*
X104500000Y-89790000D01*
X104500000Y-89790000D02*
X104500000Y-94500000D01*
X55500000Y-94500000D02*
X55000000Y-95000000D01*
X55500000Y-89790000D02*
X55500000Y-94500000D01*
X57290000Y-88000000D02*
X55500000Y-89790000D01*
X57290000Y-88000000D02*
X57290000Y-87790000D01*
X57290000Y-87790000D02*
X55500000Y-86000000D01*
X55500000Y-75790000D02*
X57290000Y-74000000D01*
X55500000Y-86000000D02*
X55500000Y-75790000D01*
X57290000Y-74000000D02*
X57290000Y-73790000D01*
X57290000Y-73790000D02*
X55500000Y-72000000D01*
X55500000Y-67790000D02*
X57290000Y-66000000D01*
X55500000Y-72000000D02*
X55500000Y-67790000D01*
X57290000Y-66000000D02*
X57000000Y-66000000D01*
X57000000Y-66000000D02*
X55500000Y-64500000D01*
X55500000Y-53790000D02*
X57290000Y-52000000D01*
X55500000Y-64500000D02*
X55500000Y-53790000D01*
X57290000Y-52000000D02*
X57290000Y-51790000D01*
X57290000Y-51790000D02*
X55500000Y-50000000D01*
X55500000Y-45500000D02*
X55000000Y-45000000D01*
X55500000Y-50000000D02*
X55500000Y-45500000D01*
D30*
X84590000Y-47050000D02*
X84320000Y-46780000D01*
X87000000Y-47050000D02*
X84590000Y-47050000D01*
D31*
X102710000Y-53000000D02*
X99400000Y-53000000D01*
X96750000Y-55650000D02*
X96750000Y-59000000D01*
X99400000Y-53000000D02*
X96750000Y-55650000D01*
X99990000Y-74000000D02*
X102710000Y-74000000D01*
X99482000Y-74000000D02*
X99990000Y-74000000D01*
X97155000Y-76327000D02*
X99482000Y-74000000D01*
X96750000Y-80000000D02*
X97155000Y-79595000D01*
X97155000Y-79595000D02*
X97155000Y-76327000D01*
X63250000Y-82000000D02*
X63250000Y-85975000D01*
X61225000Y-88000000D02*
X57290000Y-88000000D01*
X63250000Y-85975000D02*
X61225000Y-88000000D01*
X63250000Y-60000000D02*
X63250000Y-63877000D01*
X61127000Y-66000000D02*
X57290000Y-66000000D01*
X63250000Y-63877000D02*
X61127000Y-66000000D01*
G04 #@! TD*
D32*
G04 #@! TO.N,GND*
G36*
X83573754Y-81655990D02*
X83596025Y-81683127D01*
X83704319Y-81772002D01*
X83827871Y-81838042D01*
X83961932Y-81878709D01*
X84066416Y-81889000D01*
X84066425Y-81889000D01*
X84101351Y-81892440D01*
X84136277Y-81889000D01*
X93933212Y-81889000D01*
X94111928Y-82067716D01*
X94111928Y-82350000D01*
X94124188Y-82474482D01*
X94160498Y-82594180D01*
X94219463Y-82704494D01*
X94298815Y-82801185D01*
X94395506Y-82880537D01*
X94505820Y-82939502D01*
X94625518Y-82975812D01*
X94750000Y-82988072D01*
X95350000Y-82988072D01*
X95474482Y-82975812D01*
X95594180Y-82939502D01*
X95682439Y-82892326D01*
X95402264Y-83172501D01*
X95368341Y-83200341D01*
X95257247Y-83335710D01*
X95174697Y-83490150D01*
X95143824Y-83591928D01*
X94985000Y-83591928D01*
X94860518Y-83604188D01*
X94740820Y-83640498D01*
X94630506Y-83699463D01*
X94533815Y-83778815D01*
X94454463Y-83875506D01*
X94395498Y-83985820D01*
X94359188Y-84105518D01*
X94346928Y-84230000D01*
X94346928Y-85370000D01*
X94359188Y-85494482D01*
X94395498Y-85614180D01*
X94454463Y-85724494D01*
X94533815Y-85821185D01*
X94630506Y-85900537D01*
X94740820Y-85959502D01*
X94860518Y-85995812D01*
X94903041Y-86000000D01*
X94860518Y-86004188D01*
X94740820Y-86040498D01*
X94630506Y-86099463D01*
X94533815Y-86178815D01*
X94454463Y-86275506D01*
X94395498Y-86385820D01*
X94359188Y-86505518D01*
X94346928Y-86630000D01*
X94346928Y-87770000D01*
X94359188Y-87894482D01*
X94395498Y-88014180D01*
X94454463Y-88124494D01*
X94533815Y-88221185D01*
X94630506Y-88300537D01*
X94740820Y-88359502D01*
X94860518Y-88395812D01*
X94985000Y-88408072D01*
X95059500Y-88408072D01*
X95059500Y-88494952D01*
X95016774Y-88598102D01*
X94977000Y-88798061D01*
X94977000Y-89001939D01*
X95016774Y-89201898D01*
X95094795Y-89390256D01*
X95208063Y-89559774D01*
X95352226Y-89703937D01*
X95521744Y-89817205D01*
X95710102Y-89895226D01*
X95910061Y-89935000D01*
X96113939Y-89935000D01*
X96313898Y-89895226D01*
X96502256Y-89817205D01*
X96671774Y-89703937D01*
X96815937Y-89559774D01*
X96929205Y-89390256D01*
X97007226Y-89201898D01*
X97047000Y-89001939D01*
X97047000Y-88798061D01*
X97007226Y-88598102D01*
X96964500Y-88494953D01*
X96964500Y-88408072D01*
X97015000Y-88408072D01*
X97139482Y-88395812D01*
X97259180Y-88359502D01*
X97369494Y-88300537D01*
X97466185Y-88221185D01*
X97545537Y-88124494D01*
X97604502Y-88014180D01*
X97640812Y-87894482D01*
X97653072Y-87770000D01*
X97653072Y-86630000D01*
X97640812Y-86505518D01*
X97604502Y-86385820D01*
X97545537Y-86275506D01*
X97466185Y-86178815D01*
X97369494Y-86099463D01*
X97259180Y-86040498D01*
X97139482Y-86004188D01*
X97096959Y-86000000D01*
X97139482Y-85995812D01*
X97259180Y-85959502D01*
X97369494Y-85900537D01*
X97466185Y-85821185D01*
X97522553Y-85752500D01*
X99155186Y-85752500D01*
X99217419Y-85785764D01*
X99478493Y-85864960D01*
X99681963Y-85885000D01*
X99873000Y-85885000D01*
X99873000Y-99265000D01*
X60127000Y-99265000D01*
X60127000Y-88889000D01*
X61181340Y-88889000D01*
X61225000Y-88893300D01*
X61268660Y-88889000D01*
X61268667Y-88889000D01*
X61399274Y-88876136D01*
X61566851Y-88825303D01*
X61721291Y-88742753D01*
X61856659Y-88631659D01*
X61884499Y-88597736D01*
X63847742Y-86634494D01*
X63881659Y-86606659D01*
X63992753Y-86471291D01*
X64075303Y-86316851D01*
X64117175Y-86178815D01*
X64126136Y-86149276D01*
X64131042Y-86099463D01*
X64139000Y-86018667D01*
X64139000Y-86018661D01*
X64143300Y-85975001D01*
X64139000Y-85931341D01*
X64139000Y-82852219D01*
X64200000Y-82802158D01*
X64295506Y-82880537D01*
X64405820Y-82939502D01*
X64525518Y-82975812D01*
X64650000Y-82988072D01*
X65250000Y-82988072D01*
X65374482Y-82975812D01*
X65494180Y-82939502D01*
X65604494Y-82880537D01*
X65701185Y-82801185D01*
X65780537Y-82704494D01*
X65839502Y-82594180D01*
X65875812Y-82474482D01*
X65888072Y-82350000D01*
X65888072Y-82067716D01*
X66066788Y-81889000D01*
X75883722Y-81889000D01*
X75918648Y-81892440D01*
X75953574Y-81889000D01*
X75953584Y-81889000D01*
X76058068Y-81878709D01*
X76192129Y-81838042D01*
X76315681Y-81772002D01*
X76423975Y-81683127D01*
X76446250Y-81655985D01*
X80010000Y-78092236D01*
X83573754Y-81655990D01*
X83573754Y-81655990D01*
G37*
X83573754Y-81655990D02*
X83596025Y-81683127D01*
X83704319Y-81772002D01*
X83827871Y-81838042D01*
X83961932Y-81878709D01*
X84066416Y-81889000D01*
X84066425Y-81889000D01*
X84101351Y-81892440D01*
X84136277Y-81889000D01*
X93933212Y-81889000D01*
X94111928Y-82067716D01*
X94111928Y-82350000D01*
X94124188Y-82474482D01*
X94160498Y-82594180D01*
X94219463Y-82704494D01*
X94298815Y-82801185D01*
X94395506Y-82880537D01*
X94505820Y-82939502D01*
X94625518Y-82975812D01*
X94750000Y-82988072D01*
X95350000Y-82988072D01*
X95474482Y-82975812D01*
X95594180Y-82939502D01*
X95682439Y-82892326D01*
X95402264Y-83172501D01*
X95368341Y-83200341D01*
X95257247Y-83335710D01*
X95174697Y-83490150D01*
X95143824Y-83591928D01*
X94985000Y-83591928D01*
X94860518Y-83604188D01*
X94740820Y-83640498D01*
X94630506Y-83699463D01*
X94533815Y-83778815D01*
X94454463Y-83875506D01*
X94395498Y-83985820D01*
X94359188Y-84105518D01*
X94346928Y-84230000D01*
X94346928Y-85370000D01*
X94359188Y-85494482D01*
X94395498Y-85614180D01*
X94454463Y-85724494D01*
X94533815Y-85821185D01*
X94630506Y-85900537D01*
X94740820Y-85959502D01*
X94860518Y-85995812D01*
X94903041Y-86000000D01*
X94860518Y-86004188D01*
X94740820Y-86040498D01*
X94630506Y-86099463D01*
X94533815Y-86178815D01*
X94454463Y-86275506D01*
X94395498Y-86385820D01*
X94359188Y-86505518D01*
X94346928Y-86630000D01*
X94346928Y-87770000D01*
X94359188Y-87894482D01*
X94395498Y-88014180D01*
X94454463Y-88124494D01*
X94533815Y-88221185D01*
X94630506Y-88300537D01*
X94740820Y-88359502D01*
X94860518Y-88395812D01*
X94985000Y-88408072D01*
X95059500Y-88408072D01*
X95059500Y-88494952D01*
X95016774Y-88598102D01*
X94977000Y-88798061D01*
X94977000Y-89001939D01*
X95016774Y-89201898D01*
X95094795Y-89390256D01*
X95208063Y-89559774D01*
X95352226Y-89703937D01*
X95521744Y-89817205D01*
X95710102Y-89895226D01*
X95910061Y-89935000D01*
X96113939Y-89935000D01*
X96313898Y-89895226D01*
X96502256Y-89817205D01*
X96671774Y-89703937D01*
X96815937Y-89559774D01*
X96929205Y-89390256D01*
X97007226Y-89201898D01*
X97047000Y-89001939D01*
X97047000Y-88798061D01*
X97007226Y-88598102D01*
X96964500Y-88494953D01*
X96964500Y-88408072D01*
X97015000Y-88408072D01*
X97139482Y-88395812D01*
X97259180Y-88359502D01*
X97369494Y-88300537D01*
X97466185Y-88221185D01*
X97545537Y-88124494D01*
X97604502Y-88014180D01*
X97640812Y-87894482D01*
X97653072Y-87770000D01*
X97653072Y-86630000D01*
X97640812Y-86505518D01*
X97604502Y-86385820D01*
X97545537Y-86275506D01*
X97466185Y-86178815D01*
X97369494Y-86099463D01*
X97259180Y-86040498D01*
X97139482Y-86004188D01*
X97096959Y-86000000D01*
X97139482Y-85995812D01*
X97259180Y-85959502D01*
X97369494Y-85900537D01*
X97466185Y-85821185D01*
X97522553Y-85752500D01*
X99155186Y-85752500D01*
X99217419Y-85785764D01*
X99478493Y-85864960D01*
X99681963Y-85885000D01*
X99873000Y-85885000D01*
X99873000Y-99265000D01*
X60127000Y-99265000D01*
X60127000Y-88889000D01*
X61181340Y-88889000D01*
X61225000Y-88893300D01*
X61268660Y-88889000D01*
X61268667Y-88889000D01*
X61399274Y-88876136D01*
X61566851Y-88825303D01*
X61721291Y-88742753D01*
X61856659Y-88631659D01*
X61884499Y-88597736D01*
X63847742Y-86634494D01*
X63881659Y-86606659D01*
X63992753Y-86471291D01*
X64075303Y-86316851D01*
X64117175Y-86178815D01*
X64126136Y-86149276D01*
X64131042Y-86099463D01*
X64139000Y-86018667D01*
X64139000Y-86018661D01*
X64143300Y-85975001D01*
X64139000Y-85931341D01*
X64139000Y-82852219D01*
X64200000Y-82802158D01*
X64295506Y-82880537D01*
X64405820Y-82939502D01*
X64525518Y-82975812D01*
X64650000Y-82988072D01*
X65250000Y-82988072D01*
X65374482Y-82975812D01*
X65494180Y-82939502D01*
X65604494Y-82880537D01*
X65701185Y-82801185D01*
X65780537Y-82704494D01*
X65839502Y-82594180D01*
X65875812Y-82474482D01*
X65888072Y-82350000D01*
X65888072Y-82067716D01*
X66066788Y-81889000D01*
X75883722Y-81889000D01*
X75918648Y-81892440D01*
X75953574Y-81889000D01*
X75953584Y-81889000D01*
X76058068Y-81878709D01*
X76192129Y-81838042D01*
X76315681Y-81772002D01*
X76423975Y-81683127D01*
X76446250Y-81655985D01*
X80010000Y-78092236D01*
X83573754Y-81655990D01*
G36*
X62111928Y-82350000D02*
X62124188Y-82474482D01*
X62160498Y-82594180D01*
X62219463Y-82704494D01*
X62298815Y-82801185D01*
X62361000Y-82852219D01*
X62361001Y-85606763D01*
X60856765Y-87111000D01*
X60127000Y-87111000D01*
X60127000Y-85885000D01*
X60127002Y-85885000D01*
X60127002Y-85731874D01*
X60346056Y-85892744D01*
X60615921Y-85847243D01*
X60871724Y-85749968D01*
X61103634Y-85604658D01*
X61302740Y-85416897D01*
X61461390Y-85193900D01*
X61573487Y-84944236D01*
X61592318Y-84841185D01*
X61469656Y-84627000D01*
X60127000Y-84627000D01*
X60127000Y-84373000D01*
X61469656Y-84373000D01*
X61592318Y-84158815D01*
X61573487Y-84055764D01*
X61461390Y-83806100D01*
X61302740Y-83583103D01*
X61103634Y-83395342D01*
X60871724Y-83250032D01*
X60858698Y-83245079D01*
X61023188Y-83157157D01*
X61234081Y-82984081D01*
X61407157Y-82773188D01*
X61535764Y-82532581D01*
X61614960Y-82271507D01*
X61641701Y-82000000D01*
X61630768Y-81889000D01*
X62111928Y-81889000D01*
X62111928Y-82350000D01*
X62111928Y-82350000D01*
G37*
X62111928Y-82350000D02*
X62124188Y-82474482D01*
X62160498Y-82594180D01*
X62219463Y-82704494D01*
X62298815Y-82801185D01*
X62361000Y-82852219D01*
X62361001Y-85606763D01*
X60856765Y-87111000D01*
X60127000Y-87111000D01*
X60127000Y-85885000D01*
X60127002Y-85885000D01*
X60127002Y-85731874D01*
X60346056Y-85892744D01*
X60615921Y-85847243D01*
X60871724Y-85749968D01*
X61103634Y-85604658D01*
X61302740Y-85416897D01*
X61461390Y-85193900D01*
X61573487Y-84944236D01*
X61592318Y-84841185D01*
X61469656Y-84627000D01*
X60127000Y-84627000D01*
X60127000Y-84373000D01*
X61469656Y-84373000D01*
X61592318Y-84158815D01*
X61573487Y-84055764D01*
X61461390Y-83806100D01*
X61302740Y-83583103D01*
X61103634Y-83395342D01*
X60871724Y-83250032D01*
X60858698Y-83245079D01*
X61023188Y-83157157D01*
X61234081Y-82984081D01*
X61407157Y-82773188D01*
X61535764Y-82532581D01*
X61614960Y-82271507D01*
X61641701Y-82000000D01*
X61630768Y-81889000D01*
X62111928Y-81889000D01*
X62111928Y-82350000D01*
G36*
X94124188Y-61474482D02*
X94160498Y-61594180D01*
X94219463Y-61704494D01*
X94298815Y-61801185D01*
X94395506Y-61880537D01*
X94505820Y-61939502D01*
X94625518Y-61975812D01*
X94750000Y-61988072D01*
X95350000Y-61988072D01*
X95474482Y-61975812D01*
X95535446Y-61957319D01*
X95402264Y-62090501D01*
X95368341Y-62118341D01*
X95257247Y-62253710D01*
X95174697Y-62408150D01*
X95157392Y-62465199D01*
X95128073Y-62561853D01*
X95123864Y-62575727D01*
X95122268Y-62591928D01*
X94985000Y-62591928D01*
X94860518Y-62604188D01*
X94740820Y-62640498D01*
X94630506Y-62699463D01*
X94533815Y-62778815D01*
X94454463Y-62875506D01*
X94395498Y-62985820D01*
X94359188Y-63105518D01*
X94346928Y-63230000D01*
X94346928Y-64370000D01*
X94359188Y-64494482D01*
X94395498Y-64614180D01*
X94454463Y-64724494D01*
X94533815Y-64821185D01*
X94630506Y-64900537D01*
X94740820Y-64959502D01*
X94860518Y-64995812D01*
X94903041Y-65000000D01*
X94860518Y-65004188D01*
X94740820Y-65040498D01*
X94630506Y-65099463D01*
X94533815Y-65178815D01*
X94454463Y-65275506D01*
X94395498Y-65385820D01*
X94359188Y-65505518D01*
X94346928Y-65630000D01*
X94346928Y-66770000D01*
X94359188Y-66894482D01*
X94395498Y-67014180D01*
X94454463Y-67124494D01*
X94533815Y-67221185D01*
X94630506Y-67300537D01*
X94740820Y-67359502D01*
X94860518Y-67395812D01*
X94985000Y-67408072D01*
X95001001Y-67408072D01*
X94965000Y-67589061D01*
X94965000Y-67792939D01*
X95004774Y-67992898D01*
X95047500Y-68096047D01*
X95047501Y-77855921D01*
X95016774Y-77930102D01*
X94977000Y-78130061D01*
X94977000Y-78333939D01*
X95016774Y-78533898D01*
X95094795Y-78722256D01*
X95208063Y-78891774D01*
X95328217Y-79011928D01*
X94750000Y-79011928D01*
X94625518Y-79024188D01*
X94505820Y-79060498D01*
X94395506Y-79119463D01*
X94298815Y-79198815D01*
X94219463Y-79295506D01*
X94160498Y-79405820D01*
X94124188Y-79525518D01*
X94111928Y-79650000D01*
X94111928Y-79932284D01*
X93933212Y-80111000D01*
X84543236Y-80111000D01*
X81524000Y-77091765D01*
X81524000Y-74907236D01*
X82329759Y-75712996D01*
X82352025Y-75740127D01*
X82379156Y-75762393D01*
X82379160Y-75762397D01*
X82450794Y-75821185D01*
X82460319Y-75829002D01*
X82583871Y-75895042D01*
X82717932Y-75935709D01*
X82822416Y-75946000D01*
X82822425Y-75946000D01*
X82857351Y-75949440D01*
X82892277Y-75946000D01*
X89192722Y-75946000D01*
X89227648Y-75949440D01*
X89262574Y-75946000D01*
X89262584Y-75946000D01*
X89367068Y-75935709D01*
X89501129Y-75895042D01*
X89624681Y-75829002D01*
X89732975Y-75740127D01*
X89755250Y-75712985D01*
X93873995Y-71594241D01*
X93901126Y-71571975D01*
X93923393Y-71544843D01*
X93923397Y-71544839D01*
X93990002Y-71463681D01*
X94010849Y-71424679D01*
X94056042Y-71340129D01*
X94096709Y-71206068D01*
X94107000Y-71101584D01*
X94107000Y-71101575D01*
X94110440Y-71066649D01*
X94107000Y-71031723D01*
X94107000Y-61457787D01*
X94121150Y-61443637D01*
X94124188Y-61474482D01*
X94124188Y-61474482D01*
G37*
X94124188Y-61474482D02*
X94160498Y-61594180D01*
X94219463Y-61704494D01*
X94298815Y-61801185D01*
X94395506Y-61880537D01*
X94505820Y-61939502D01*
X94625518Y-61975812D01*
X94750000Y-61988072D01*
X95350000Y-61988072D01*
X95474482Y-61975812D01*
X95535446Y-61957319D01*
X95402264Y-62090501D01*
X95368341Y-62118341D01*
X95257247Y-62253710D01*
X95174697Y-62408150D01*
X95157392Y-62465199D01*
X95128073Y-62561853D01*
X95123864Y-62575727D01*
X95122268Y-62591928D01*
X94985000Y-62591928D01*
X94860518Y-62604188D01*
X94740820Y-62640498D01*
X94630506Y-62699463D01*
X94533815Y-62778815D01*
X94454463Y-62875506D01*
X94395498Y-62985820D01*
X94359188Y-63105518D01*
X94346928Y-63230000D01*
X94346928Y-64370000D01*
X94359188Y-64494482D01*
X94395498Y-64614180D01*
X94454463Y-64724494D01*
X94533815Y-64821185D01*
X94630506Y-64900537D01*
X94740820Y-64959502D01*
X94860518Y-64995812D01*
X94903041Y-65000000D01*
X94860518Y-65004188D01*
X94740820Y-65040498D01*
X94630506Y-65099463D01*
X94533815Y-65178815D01*
X94454463Y-65275506D01*
X94395498Y-65385820D01*
X94359188Y-65505518D01*
X94346928Y-65630000D01*
X94346928Y-66770000D01*
X94359188Y-66894482D01*
X94395498Y-67014180D01*
X94454463Y-67124494D01*
X94533815Y-67221185D01*
X94630506Y-67300537D01*
X94740820Y-67359502D01*
X94860518Y-67395812D01*
X94985000Y-67408072D01*
X95001001Y-67408072D01*
X94965000Y-67589061D01*
X94965000Y-67792939D01*
X95004774Y-67992898D01*
X95047500Y-68096047D01*
X95047501Y-77855921D01*
X95016774Y-77930102D01*
X94977000Y-78130061D01*
X94977000Y-78333939D01*
X95016774Y-78533898D01*
X95094795Y-78722256D01*
X95208063Y-78891774D01*
X95328217Y-79011928D01*
X94750000Y-79011928D01*
X94625518Y-79024188D01*
X94505820Y-79060498D01*
X94395506Y-79119463D01*
X94298815Y-79198815D01*
X94219463Y-79295506D01*
X94160498Y-79405820D01*
X94124188Y-79525518D01*
X94111928Y-79650000D01*
X94111928Y-79932284D01*
X93933212Y-80111000D01*
X84543236Y-80111000D01*
X81524000Y-77091765D01*
X81524000Y-74907236D01*
X82329759Y-75712996D01*
X82352025Y-75740127D01*
X82379156Y-75762393D01*
X82379160Y-75762397D01*
X82450794Y-75821185D01*
X82460319Y-75829002D01*
X82583871Y-75895042D01*
X82717932Y-75935709D01*
X82822416Y-75946000D01*
X82822425Y-75946000D01*
X82857351Y-75949440D01*
X82892277Y-75946000D01*
X89192722Y-75946000D01*
X89227648Y-75949440D01*
X89262574Y-75946000D01*
X89262584Y-75946000D01*
X89367068Y-75935709D01*
X89501129Y-75895042D01*
X89624681Y-75829002D01*
X89732975Y-75740127D01*
X89755250Y-75712985D01*
X93873995Y-71594241D01*
X93901126Y-71571975D01*
X93923393Y-71544843D01*
X93923397Y-71544839D01*
X93990002Y-71463681D01*
X94010849Y-71424679D01*
X94056042Y-71340129D01*
X94096709Y-71206068D01*
X94107000Y-71101584D01*
X94107000Y-71101575D01*
X94110440Y-71066649D01*
X94107000Y-71031723D01*
X94107000Y-61457787D01*
X94121150Y-61443637D01*
X94124188Y-61474482D01*
G36*
X64295506Y-60880537D02*
X64405820Y-60939502D01*
X64525518Y-60975812D01*
X64650000Y-60988072D01*
X65250000Y-60988072D01*
X65374482Y-60975812D01*
X65405000Y-60966554D01*
X65405001Y-72936712D01*
X65401560Y-72971648D01*
X65405001Y-73006584D01*
X65413989Y-73097833D01*
X65415292Y-73111067D01*
X65455959Y-73245129D01*
X65519043Y-73363150D01*
X65521999Y-73368681D01*
X65610874Y-73476975D01*
X65638010Y-73499245D01*
X69756755Y-77617991D01*
X69779025Y-77645127D01*
X69887319Y-77734002D01*
X70010871Y-77800042D01*
X70144932Y-77840709D01*
X70249416Y-77851000D01*
X70249425Y-77851000D01*
X70284351Y-77854440D01*
X70319277Y-77851000D01*
X75476722Y-77851000D01*
X75511648Y-77854440D01*
X75546574Y-77851000D01*
X75546584Y-77851000D01*
X75651068Y-77840709D01*
X75785129Y-77800042D01*
X75908681Y-77734002D01*
X76016975Y-77645127D01*
X76039250Y-77617985D01*
X78476001Y-75181236D01*
X78476001Y-77111762D01*
X75476765Y-80111000D01*
X66066788Y-80111000D01*
X65888072Y-79932284D01*
X65888072Y-79650000D01*
X65875812Y-79525518D01*
X65839502Y-79405820D01*
X65780537Y-79295506D01*
X65701185Y-79198815D01*
X65604494Y-79119463D01*
X65494180Y-79060498D01*
X65374482Y-79024188D01*
X65250000Y-79011928D01*
X64650000Y-79011928D01*
X64525518Y-79024188D01*
X64450200Y-79047035D01*
X64597743Y-78899493D01*
X64631659Y-78871659D01*
X64742753Y-78736291D01*
X64825303Y-78581851D01*
X64866134Y-78447247D01*
X64876136Y-78414275D01*
X64876747Y-78408072D01*
X65015000Y-78408072D01*
X65139482Y-78395812D01*
X65259180Y-78359502D01*
X65369494Y-78300537D01*
X65466185Y-78221185D01*
X65545537Y-78124494D01*
X65604502Y-78014180D01*
X65640812Y-77894482D01*
X65653072Y-77770000D01*
X65653072Y-76630000D01*
X65640812Y-76505518D01*
X65604502Y-76385820D01*
X65545537Y-76275506D01*
X65466185Y-76178815D01*
X65369494Y-76099463D01*
X65259180Y-76040498D01*
X65139482Y-76004188D01*
X65096959Y-76000000D01*
X65139482Y-75995812D01*
X65259180Y-75959502D01*
X65369494Y-75900537D01*
X65466185Y-75821185D01*
X65545537Y-75724494D01*
X65604502Y-75614180D01*
X65640812Y-75494482D01*
X65653072Y-75370000D01*
X65653072Y-74230000D01*
X65640812Y-74105518D01*
X65604502Y-73985820D01*
X65545537Y-73875506D01*
X65466185Y-73778815D01*
X65369494Y-73699463D01*
X65259180Y-73640498D01*
X65139482Y-73604188D01*
X65026077Y-73593019D01*
X65043000Y-73507939D01*
X65043000Y-73304061D01*
X65003226Y-73104102D01*
X64925205Y-72915744D01*
X64811937Y-72746226D01*
X64667774Y-72602063D01*
X64498256Y-72488795D01*
X64309898Y-72410774D01*
X64109939Y-72371000D01*
X63906061Y-72371000D01*
X63706102Y-72410774D01*
X63517744Y-72488795D01*
X63348226Y-72602063D01*
X63204063Y-72746226D01*
X63090795Y-72915744D01*
X63012774Y-73104102D01*
X62973000Y-73304061D01*
X62973000Y-73507939D01*
X62989706Y-73591928D01*
X62985000Y-73591928D01*
X62860518Y-73604188D01*
X62740820Y-73640498D01*
X62630506Y-73699463D01*
X62533815Y-73778815D01*
X62454463Y-73875506D01*
X62395498Y-73985820D01*
X62359188Y-74105518D01*
X62346928Y-74230000D01*
X62346928Y-75370000D01*
X62359188Y-75494482D01*
X62395498Y-75614180D01*
X62454463Y-75724494D01*
X62533815Y-75821185D01*
X62630506Y-75900537D01*
X62740820Y-75959502D01*
X62860518Y-75995812D01*
X62903041Y-76000000D01*
X62860518Y-76004188D01*
X62740820Y-76040498D01*
X62630506Y-76099463D01*
X62533815Y-76178815D01*
X62477447Y-76247500D01*
X60844814Y-76247500D01*
X60782581Y-76214236D01*
X60521507Y-76135040D01*
X60318037Y-76115000D01*
X60127000Y-76115000D01*
X60127000Y-66889000D01*
X61083340Y-66889000D01*
X61127000Y-66893300D01*
X61170660Y-66889000D01*
X61170667Y-66889000D01*
X61301274Y-66876136D01*
X61468851Y-66825303D01*
X61623291Y-66742753D01*
X61758659Y-66631659D01*
X61786499Y-66597736D01*
X63847736Y-64536499D01*
X63881659Y-64508659D01*
X63992753Y-64373291D01*
X64075303Y-64218851D01*
X64103752Y-64125066D01*
X64126136Y-64051276D01*
X64132494Y-63986722D01*
X64139000Y-63920667D01*
X64139000Y-63920661D01*
X64143300Y-63877001D01*
X64139000Y-63833341D01*
X64139000Y-60852219D01*
X64200000Y-60802158D01*
X64295506Y-60880537D01*
X64295506Y-60880537D01*
G37*
X64295506Y-60880537D02*
X64405820Y-60939502D01*
X64525518Y-60975812D01*
X64650000Y-60988072D01*
X65250000Y-60988072D01*
X65374482Y-60975812D01*
X65405000Y-60966554D01*
X65405001Y-72936712D01*
X65401560Y-72971648D01*
X65405001Y-73006584D01*
X65413989Y-73097833D01*
X65415292Y-73111067D01*
X65455959Y-73245129D01*
X65519043Y-73363150D01*
X65521999Y-73368681D01*
X65610874Y-73476975D01*
X65638010Y-73499245D01*
X69756755Y-77617991D01*
X69779025Y-77645127D01*
X69887319Y-77734002D01*
X70010871Y-77800042D01*
X70144932Y-77840709D01*
X70249416Y-77851000D01*
X70249425Y-77851000D01*
X70284351Y-77854440D01*
X70319277Y-77851000D01*
X75476722Y-77851000D01*
X75511648Y-77854440D01*
X75546574Y-77851000D01*
X75546584Y-77851000D01*
X75651068Y-77840709D01*
X75785129Y-77800042D01*
X75908681Y-77734002D01*
X76016975Y-77645127D01*
X76039250Y-77617985D01*
X78476001Y-75181236D01*
X78476001Y-77111762D01*
X75476765Y-80111000D01*
X66066788Y-80111000D01*
X65888072Y-79932284D01*
X65888072Y-79650000D01*
X65875812Y-79525518D01*
X65839502Y-79405820D01*
X65780537Y-79295506D01*
X65701185Y-79198815D01*
X65604494Y-79119463D01*
X65494180Y-79060498D01*
X65374482Y-79024188D01*
X65250000Y-79011928D01*
X64650000Y-79011928D01*
X64525518Y-79024188D01*
X64450200Y-79047035D01*
X64597743Y-78899493D01*
X64631659Y-78871659D01*
X64742753Y-78736291D01*
X64825303Y-78581851D01*
X64866134Y-78447247D01*
X64876136Y-78414275D01*
X64876747Y-78408072D01*
X65015000Y-78408072D01*
X65139482Y-78395812D01*
X65259180Y-78359502D01*
X65369494Y-78300537D01*
X65466185Y-78221185D01*
X65545537Y-78124494D01*
X65604502Y-78014180D01*
X65640812Y-77894482D01*
X65653072Y-77770000D01*
X65653072Y-76630000D01*
X65640812Y-76505518D01*
X65604502Y-76385820D01*
X65545537Y-76275506D01*
X65466185Y-76178815D01*
X65369494Y-76099463D01*
X65259180Y-76040498D01*
X65139482Y-76004188D01*
X65096959Y-76000000D01*
X65139482Y-75995812D01*
X65259180Y-75959502D01*
X65369494Y-75900537D01*
X65466185Y-75821185D01*
X65545537Y-75724494D01*
X65604502Y-75614180D01*
X65640812Y-75494482D01*
X65653072Y-75370000D01*
X65653072Y-74230000D01*
X65640812Y-74105518D01*
X65604502Y-73985820D01*
X65545537Y-73875506D01*
X65466185Y-73778815D01*
X65369494Y-73699463D01*
X65259180Y-73640498D01*
X65139482Y-73604188D01*
X65026077Y-73593019D01*
X65043000Y-73507939D01*
X65043000Y-73304061D01*
X65003226Y-73104102D01*
X64925205Y-72915744D01*
X64811937Y-72746226D01*
X64667774Y-72602063D01*
X64498256Y-72488795D01*
X64309898Y-72410774D01*
X64109939Y-72371000D01*
X63906061Y-72371000D01*
X63706102Y-72410774D01*
X63517744Y-72488795D01*
X63348226Y-72602063D01*
X63204063Y-72746226D01*
X63090795Y-72915744D01*
X63012774Y-73104102D01*
X62973000Y-73304061D01*
X62973000Y-73507939D01*
X62989706Y-73591928D01*
X62985000Y-73591928D01*
X62860518Y-73604188D01*
X62740820Y-73640498D01*
X62630506Y-73699463D01*
X62533815Y-73778815D01*
X62454463Y-73875506D01*
X62395498Y-73985820D01*
X62359188Y-74105518D01*
X62346928Y-74230000D01*
X62346928Y-75370000D01*
X62359188Y-75494482D01*
X62395498Y-75614180D01*
X62454463Y-75724494D01*
X62533815Y-75821185D01*
X62630506Y-75900537D01*
X62740820Y-75959502D01*
X62860518Y-75995812D01*
X62903041Y-76000000D01*
X62860518Y-76004188D01*
X62740820Y-76040498D01*
X62630506Y-76099463D01*
X62533815Y-76178815D01*
X62477447Y-76247500D01*
X60844814Y-76247500D01*
X60782581Y-76214236D01*
X60521507Y-76135040D01*
X60318037Y-76115000D01*
X60127000Y-76115000D01*
X60127000Y-66889000D01*
X61083340Y-66889000D01*
X61127000Y-66893300D01*
X61170660Y-66889000D01*
X61170667Y-66889000D01*
X61301274Y-66876136D01*
X61468851Y-66825303D01*
X61623291Y-66742753D01*
X61758659Y-66631659D01*
X61786499Y-66597736D01*
X63847736Y-64536499D01*
X63881659Y-64508659D01*
X63992753Y-64373291D01*
X64075303Y-64218851D01*
X64103752Y-64125066D01*
X64126136Y-64051276D01*
X64132494Y-63986722D01*
X64139000Y-63920667D01*
X64139000Y-63920661D01*
X64143300Y-63877001D01*
X64139000Y-63833341D01*
X64139000Y-60852219D01*
X64200000Y-60802158D01*
X64295506Y-60880537D01*
G36*
X99873000Y-76115000D02*
X99872998Y-76115000D01*
X99872998Y-76268126D01*
X99653944Y-76107256D01*
X99384079Y-76152757D01*
X99128276Y-76250032D01*
X98896366Y-76395342D01*
X98697260Y-76583103D01*
X98538610Y-76806100D01*
X98426513Y-77055764D01*
X98407682Y-77158815D01*
X98530344Y-77373000D01*
X99873000Y-77373000D01*
X99873000Y-77627000D01*
X98530344Y-77627000D01*
X98407682Y-77841185D01*
X98426513Y-77944236D01*
X98538610Y-78193900D01*
X98697260Y-78416897D01*
X98896366Y-78604658D01*
X99128276Y-78749968D01*
X99141302Y-78754921D01*
X98976812Y-78842843D01*
X98765919Y-79015919D01*
X98592843Y-79226812D01*
X98464236Y-79467419D01*
X98385040Y-79728493D01*
X98358299Y-80000000D01*
X98369232Y-80111000D01*
X97888072Y-80111000D01*
X97888072Y-80103087D01*
X97897753Y-80091291D01*
X97980303Y-79936851D01*
X98014012Y-79825726D01*
X98031136Y-79769276D01*
X98042081Y-79658148D01*
X98044000Y-79638667D01*
X98044000Y-79638661D01*
X98048300Y-79595001D01*
X98044000Y-79551341D01*
X98044000Y-76695235D01*
X99850236Y-74889000D01*
X99873000Y-74889000D01*
X99873000Y-76115000D01*
X99873000Y-76115000D01*
G37*
X99873000Y-76115000D02*
X99872998Y-76115000D01*
X99872998Y-76268126D01*
X99653944Y-76107256D01*
X99384079Y-76152757D01*
X99128276Y-76250032D01*
X98896366Y-76395342D01*
X98697260Y-76583103D01*
X98538610Y-76806100D01*
X98426513Y-77055764D01*
X98407682Y-77158815D01*
X98530344Y-77373000D01*
X99873000Y-77373000D01*
X99873000Y-77627000D01*
X98530344Y-77627000D01*
X98407682Y-77841185D01*
X98426513Y-77944236D01*
X98538610Y-78193900D01*
X98697260Y-78416897D01*
X98896366Y-78604658D01*
X99128276Y-78749968D01*
X99141302Y-78754921D01*
X98976812Y-78842843D01*
X98765919Y-79015919D01*
X98592843Y-79226812D01*
X98464236Y-79467419D01*
X98385040Y-79728493D01*
X98358299Y-80000000D01*
X98369232Y-80111000D01*
X97888072Y-80111000D01*
X97888072Y-80103087D01*
X97897753Y-80091291D01*
X97980303Y-79936851D01*
X98014012Y-79825726D01*
X98031136Y-79769276D01*
X98042081Y-79658148D01*
X98044000Y-79638667D01*
X98044000Y-79638661D01*
X98048300Y-79595001D01*
X98044000Y-79551341D01*
X98044000Y-76695235D01*
X99850236Y-74889000D01*
X99873000Y-74889000D01*
X99873000Y-76115000D01*
G36*
X74373000Y-48500000D02*
X74375440Y-48524776D01*
X74382667Y-48548601D01*
X74394403Y-48570557D01*
X74410197Y-48589803D01*
X74429443Y-48605597D01*
X74451399Y-48617333D01*
X74475224Y-48624560D01*
X74500000Y-48627000D01*
X75873423Y-48627000D01*
X75912270Y-48720785D01*
X75981763Y-48824789D01*
X76070211Y-48913237D01*
X76174215Y-48982730D01*
X76289777Y-49030597D01*
X76412458Y-49055000D01*
X76489250Y-49055000D01*
X76647998Y-48896252D01*
X76647998Y-49055000D01*
X76661001Y-49055000D01*
X76661001Y-49257000D01*
X76479061Y-49257000D01*
X76279102Y-49296774D01*
X76090744Y-49374795D01*
X75921226Y-49488063D01*
X75777063Y-49632226D01*
X75663795Y-49801744D01*
X75585774Y-49990102D01*
X75546000Y-50190061D01*
X75546000Y-50393939D01*
X75585774Y-50593898D01*
X75595037Y-50616262D01*
X75495506Y-50669463D01*
X75398815Y-50748815D01*
X75319463Y-50845506D01*
X75260498Y-50955820D01*
X75224188Y-51075518D01*
X75211928Y-51200000D01*
X75211928Y-51900000D01*
X75224188Y-52024482D01*
X75260498Y-52144180D01*
X75319463Y-52254494D01*
X75398815Y-52351185D01*
X75495506Y-52430537D01*
X75605820Y-52489502D01*
X75639715Y-52499784D01*
X75549215Y-52537270D01*
X75445211Y-52606763D01*
X75356763Y-52695211D01*
X75287270Y-52799215D01*
X75239403Y-52914777D01*
X75215000Y-53037458D01*
X75215000Y-53164250D01*
X75373750Y-53323000D01*
X76373000Y-53323000D01*
X76373000Y-53303000D01*
X76627000Y-53303000D01*
X76627000Y-53323000D01*
X77626250Y-53323000D01*
X77785000Y-53164250D01*
X77785000Y-53037458D01*
X77760597Y-52914777D01*
X77712730Y-52799215D01*
X77643237Y-52695211D01*
X77554789Y-52606763D01*
X77450785Y-52537270D01*
X77360285Y-52499784D01*
X77394180Y-52489502D01*
X77504494Y-52430537D01*
X77601185Y-52351185D01*
X77680537Y-52254494D01*
X77739502Y-52144180D01*
X77775812Y-52024482D01*
X77788072Y-51900000D01*
X77788072Y-51327000D01*
X77825939Y-51327000D01*
X78015000Y-51289394D01*
X78015000Y-51464250D01*
X78173750Y-51623000D01*
X78873000Y-51623000D01*
X78873000Y-50773750D01*
X78714250Y-50615000D01*
X78710485Y-50615000D01*
X78719226Y-50593898D01*
X78725388Y-50562922D01*
X78914898Y-50525226D01*
X79103256Y-50447205D01*
X79121001Y-50435348D01*
X79121000Y-51897000D01*
X78873000Y-51897000D01*
X78873000Y-51877000D01*
X78173750Y-51877000D01*
X78015000Y-52035750D01*
X78015000Y-52312542D01*
X78039403Y-52435223D01*
X78087270Y-52550785D01*
X78156763Y-52654789D01*
X78199899Y-52697925D01*
X78198815Y-52698815D01*
X78119463Y-52795506D01*
X78060498Y-52905820D01*
X78024188Y-53025518D01*
X78011928Y-53150000D01*
X78011928Y-53750000D01*
X78024188Y-53874482D01*
X78060498Y-53994180D01*
X78119463Y-54104494D01*
X78198815Y-54201185D01*
X78295506Y-54280537D01*
X78405820Y-54339502D01*
X78525518Y-54375812D01*
X78650000Y-54388072D01*
X78932284Y-54388072D01*
X79251407Y-54707196D01*
X79273673Y-54734327D01*
X79300804Y-54756593D01*
X79300808Y-54756597D01*
X79381967Y-54823202D01*
X79505519Y-54889242D01*
X79639580Y-54929909D01*
X79744064Y-54940200D01*
X79744073Y-54940200D01*
X79778999Y-54943640D01*
X79813925Y-54940200D01*
X81495965Y-54940200D01*
X82921000Y-56365237D01*
X82921001Y-59575304D01*
X82898298Y-59602967D01*
X82866783Y-59661928D01*
X82657500Y-59661928D01*
X82540000Y-59673500D01*
X82422500Y-59661928D01*
X82290337Y-59661928D01*
X82315000Y-59537939D01*
X82315000Y-59334061D01*
X82275226Y-59134102D01*
X82197205Y-58945744D01*
X82083937Y-58776226D01*
X81939774Y-58632063D01*
X81770256Y-58518795D01*
X81581898Y-58440774D01*
X81381939Y-58401000D01*
X81178061Y-58401000D01*
X81113896Y-58413763D01*
X81125812Y-58374482D01*
X81138072Y-58250000D01*
X81138072Y-55750000D01*
X81125812Y-55625518D01*
X81089502Y-55505820D01*
X81030537Y-55395506D01*
X80951185Y-55298815D01*
X80854494Y-55219463D01*
X80744180Y-55160498D01*
X80624482Y-55124188D01*
X80500000Y-55111928D01*
X78550000Y-55111928D01*
X78425518Y-55124188D01*
X78305820Y-55160498D01*
X78195506Y-55219463D01*
X78098815Y-55298815D01*
X78019463Y-55395506D01*
X78000521Y-55430943D01*
X77943237Y-55345211D01*
X77854789Y-55256763D01*
X77750785Y-55187270D01*
X77635223Y-55139403D01*
X77512542Y-55115000D01*
X76760750Y-55115000D01*
X76602000Y-55273750D01*
X76602000Y-56873000D01*
X76622000Y-56873000D01*
X76622000Y-57127000D01*
X76602000Y-57127000D01*
X76602000Y-58726250D01*
X76760750Y-58885000D01*
X77512542Y-58885000D01*
X77635223Y-58860597D01*
X77750785Y-58812730D01*
X77854789Y-58743237D01*
X77943237Y-58654789D01*
X78000521Y-58569057D01*
X78019463Y-58604494D01*
X78098815Y-58701185D01*
X78195506Y-58780537D01*
X78305820Y-58839502D01*
X78425518Y-58875812D01*
X78550000Y-58888072D01*
X78771282Y-58888072D01*
X78835301Y-59007842D01*
X78848716Y-59024188D01*
X78938459Y-59133541D01*
X78969966Y-59159398D01*
X79473392Y-59662825D01*
X79365000Y-59673500D01*
X79247500Y-59661928D01*
X78847500Y-59661928D01*
X78730000Y-59673500D01*
X78612500Y-59661928D01*
X78212500Y-59661928D01*
X78095000Y-59673500D01*
X77977500Y-59661928D01*
X77577500Y-59661928D01*
X77460000Y-59673500D01*
X77342500Y-59661928D01*
X76942500Y-59661928D01*
X76825000Y-59673500D01*
X76707500Y-59661928D01*
X76307500Y-59661928D01*
X76190000Y-59673500D01*
X76072500Y-59661928D01*
X75672500Y-59661928D01*
X75548018Y-59674188D01*
X75428320Y-59710498D01*
X75318006Y-59769463D01*
X75256111Y-59820259D01*
X75290226Y-59737898D01*
X75330000Y-59537939D01*
X75330000Y-59334061D01*
X75290226Y-59134102D01*
X75212205Y-58945744D01*
X75098937Y-58776226D01*
X74954774Y-58632063D01*
X74785256Y-58518795D01*
X74596898Y-58440774D01*
X74396939Y-58401000D01*
X74193061Y-58401000D01*
X73993102Y-58440774D01*
X73881853Y-58486855D01*
X73875812Y-58425518D01*
X73839502Y-58305820D01*
X73780537Y-58195506D01*
X73701185Y-58098815D01*
X73604494Y-58019463D01*
X73569057Y-58000521D01*
X73654789Y-57943237D01*
X73743237Y-57854789D01*
X73812730Y-57750785D01*
X73860597Y-57635223D01*
X73885000Y-57512542D01*
X73885000Y-57285750D01*
X74865000Y-57285750D01*
X74865000Y-58312542D01*
X74889403Y-58435223D01*
X74937270Y-58550785D01*
X75006763Y-58654789D01*
X75095211Y-58743237D01*
X75199215Y-58812730D01*
X75314777Y-58860597D01*
X75437458Y-58885000D01*
X76189250Y-58885000D01*
X76348000Y-58726250D01*
X76348000Y-57127000D01*
X75023750Y-57127000D01*
X74865000Y-57285750D01*
X73885000Y-57285750D01*
X73885000Y-56760750D01*
X73726250Y-56602000D01*
X72127000Y-56602000D01*
X72127000Y-56622000D01*
X71873000Y-56622000D01*
X71873000Y-56602000D01*
X70273750Y-56602000D01*
X70115000Y-56760750D01*
X70115000Y-57512542D01*
X70139403Y-57635223D01*
X70187270Y-57750785D01*
X70256763Y-57854789D01*
X70345211Y-57943237D01*
X70430943Y-58000521D01*
X70395506Y-58019463D01*
X70298815Y-58098815D01*
X70219463Y-58195506D01*
X70160498Y-58305820D01*
X70124188Y-58425518D01*
X70111928Y-58550000D01*
X70111928Y-58559824D01*
X69951939Y-58528000D01*
X69748061Y-58528000D01*
X69548102Y-58567774D01*
X69359744Y-58645795D01*
X69190226Y-58759063D01*
X69046063Y-58903226D01*
X68932795Y-59072744D01*
X68854774Y-59261102D01*
X68815000Y-59461061D01*
X68815000Y-59664939D01*
X68854774Y-59864898D01*
X68932795Y-60053256D01*
X69046063Y-60222774D01*
X69190226Y-60366937D01*
X69359744Y-60480205D01*
X69548102Y-60558226D01*
X69748061Y-60598000D01*
X69951939Y-60598000D01*
X70118320Y-60564905D01*
X70124188Y-60624482D01*
X70160498Y-60744180D01*
X70219463Y-60854494D01*
X70298815Y-60951185D01*
X70395506Y-61030537D01*
X70505820Y-61089502D01*
X70625518Y-61125812D01*
X70750000Y-61138072D01*
X73250000Y-61138072D01*
X73374482Y-61125812D01*
X73494180Y-61089502D01*
X73604494Y-61030537D01*
X73701185Y-60951185D01*
X73780537Y-60854494D01*
X73839502Y-60744180D01*
X73875812Y-60624482D01*
X73888072Y-60500000D01*
X73888072Y-60477500D01*
X74159215Y-60477500D01*
X74206000Y-60482108D01*
X74252785Y-60477500D01*
X74318779Y-60471000D01*
X74396939Y-60471000D01*
X74596898Y-60431226D01*
X74785256Y-60353205D01*
X74954774Y-60239937D01*
X75058660Y-60136051D01*
X75046688Y-60175518D01*
X75034428Y-60300000D01*
X75034428Y-61466139D01*
X74326068Y-62174500D01*
X74102752Y-62174500D01*
X74089502Y-62130820D01*
X74030537Y-62020506D01*
X73951185Y-61923815D01*
X73854494Y-61844463D01*
X73744180Y-61785498D01*
X73624482Y-61749188D01*
X73500000Y-61736928D01*
X72500000Y-61736928D01*
X72375518Y-61749188D01*
X72255820Y-61785498D01*
X72145506Y-61844463D01*
X72048815Y-61923815D01*
X72001092Y-61981966D01*
X71993237Y-61970211D01*
X71904789Y-61881763D01*
X71800785Y-61812270D01*
X71685223Y-61764403D01*
X71562542Y-61740000D01*
X71285750Y-61740000D01*
X71127000Y-61898750D01*
X71127000Y-62873000D01*
X71147000Y-62873000D01*
X71147000Y-63127000D01*
X71127000Y-63127000D01*
X71127000Y-64101250D01*
X71285750Y-64260000D01*
X71562542Y-64260000D01*
X71685223Y-64235597D01*
X71800785Y-64187730D01*
X71904789Y-64118237D01*
X71993237Y-64029789D01*
X72001092Y-64018034D01*
X72048815Y-64076185D01*
X72145506Y-64155537D01*
X72255820Y-64214502D01*
X72375518Y-64250812D01*
X72500000Y-64263072D01*
X73500000Y-64263072D01*
X73624482Y-64250812D01*
X73744180Y-64214502D01*
X73854494Y-64155537D01*
X73951185Y-64076185D01*
X74030537Y-63979494D01*
X74089502Y-63869180D01*
X74102752Y-63825500D01*
X74627450Y-63825500D01*
X74668000Y-63829494D01*
X74708550Y-63825500D01*
X74708553Y-63825500D01*
X74829826Y-63813556D01*
X74985434Y-63766353D01*
X75128842Y-63689699D01*
X75254541Y-63586541D01*
X75280398Y-63555034D01*
X75882500Y-62952933D01*
X76222611Y-63293045D01*
X76248459Y-63324541D01*
X76279955Y-63350389D01*
X76279958Y-63350392D01*
X76374157Y-63427699D01*
X76462574Y-63474959D01*
X76517566Y-63504353D01*
X76673174Y-63551556D01*
X76794447Y-63563500D01*
X76794449Y-63563500D01*
X76835000Y-63567494D01*
X76875550Y-63563500D01*
X80811067Y-63563500D01*
X81486958Y-64239392D01*
X81486969Y-64239401D01*
X82032000Y-64784433D01*
X82032000Y-64861928D01*
X82022500Y-64861928D01*
X81905000Y-64873500D01*
X81787500Y-64861928D01*
X81387500Y-64861928D01*
X81270000Y-64873500D01*
X81152500Y-64861928D01*
X80752500Y-64861928D01*
X80635000Y-64873500D01*
X80517500Y-64861928D01*
X80117500Y-64861928D01*
X80000000Y-64873500D01*
X79882500Y-64861928D01*
X79482500Y-64861928D01*
X79365000Y-64873500D01*
X79247500Y-64861928D01*
X78847500Y-64861928D01*
X78730000Y-64873500D01*
X78612500Y-64861928D01*
X78212500Y-64861928D01*
X78095000Y-64873500D01*
X77977500Y-64861928D01*
X77577500Y-64861928D01*
X77460000Y-64873500D01*
X77342500Y-64861928D01*
X76942500Y-64861928D01*
X76825000Y-64873500D01*
X76707500Y-64861928D01*
X76307500Y-64861928D01*
X76183018Y-64874188D01*
X76182311Y-64874402D01*
X76135042Y-64865000D01*
X76131250Y-64865000D01*
X76095520Y-64900730D01*
X76063320Y-64910498D01*
X75953006Y-64969463D01*
X75856315Y-65048815D01*
X75776963Y-65145506D01*
X75772500Y-65153856D01*
X75772500Y-65023750D01*
X75613750Y-64865000D01*
X75609958Y-64865000D01*
X75487277Y-64889403D01*
X75371715Y-64937270D01*
X75267711Y-65006763D01*
X75179263Y-65095211D01*
X75109770Y-65199215D01*
X75061903Y-65314777D01*
X75037500Y-65437458D01*
X75037500Y-65814250D01*
X75196250Y-65973000D01*
X75669428Y-65973000D01*
X75669428Y-66227000D01*
X75196250Y-66227000D01*
X75037500Y-66385750D01*
X75037500Y-66762542D01*
X75061903Y-66885223D01*
X75109770Y-67000785D01*
X75179263Y-67104789D01*
X75216672Y-67142198D01*
X74087649Y-68271221D01*
X74058579Y-68295078D01*
X74034722Y-68324148D01*
X74034721Y-68324149D01*
X73963355Y-68411108D01*
X73962917Y-68411928D01*
X73900000Y-68411928D01*
X73775518Y-68424188D01*
X73655820Y-68460498D01*
X73545506Y-68519463D01*
X73502180Y-68555020D01*
X73400785Y-68487270D01*
X73285223Y-68439403D01*
X73162542Y-68415000D01*
X72685750Y-68415000D01*
X72527000Y-68573750D01*
X72527000Y-69523000D01*
X72547000Y-69523000D01*
X72547000Y-69777000D01*
X72527000Y-69777000D01*
X72527000Y-69797000D01*
X72273000Y-69797000D01*
X72273000Y-69777000D01*
X71223750Y-69777000D01*
X71065000Y-69935750D01*
X71065000Y-70312542D01*
X71089403Y-70435223D01*
X71115088Y-70497233D01*
X71110498Y-70505820D01*
X71074188Y-70625518D01*
X71061928Y-70750000D01*
X71061928Y-71950000D01*
X71074188Y-72074482D01*
X71110498Y-72194180D01*
X71169463Y-72304494D01*
X71248815Y-72401185D01*
X71345506Y-72480537D01*
X71455820Y-72539502D01*
X71575518Y-72575812D01*
X71700000Y-72588072D01*
X72399441Y-72588072D01*
X72840721Y-73029351D01*
X72864578Y-73058422D01*
X72893648Y-73082279D01*
X72980607Y-73153645D01*
X73019995Y-73174698D01*
X73112985Y-73224402D01*
X73256622Y-73267974D01*
X73368574Y-73279000D01*
X73368577Y-73279000D01*
X73406000Y-73282686D01*
X73443423Y-73279000D01*
X75527577Y-73279000D01*
X75565000Y-73282686D01*
X75602423Y-73279000D01*
X75602426Y-73279000D01*
X75714378Y-73267974D01*
X75858015Y-73224402D01*
X75990392Y-73153645D01*
X76106422Y-73058422D01*
X76130284Y-73029346D01*
X76458346Y-72701284D01*
X76487422Y-72677422D01*
X76582645Y-72561392D01*
X76653402Y-72429015D01*
X76696974Y-72285378D01*
X76708000Y-72173426D01*
X76708000Y-72173424D01*
X76711686Y-72136001D01*
X76708000Y-72098578D01*
X76708000Y-68641630D01*
X77206000Y-68143630D01*
X77206001Y-73936762D01*
X75069765Y-76073000D01*
X70726237Y-76073000D01*
X67183000Y-72529765D01*
X67183000Y-68987458D01*
X71065000Y-68987458D01*
X71065000Y-69364250D01*
X71223750Y-69523000D01*
X72273000Y-69523000D01*
X72273000Y-68573750D01*
X72114250Y-68415000D01*
X71637458Y-68415000D01*
X71514777Y-68439403D01*
X71399215Y-68487270D01*
X71295211Y-68556763D01*
X71206763Y-68645211D01*
X71137270Y-68749215D01*
X71089403Y-68864777D01*
X71065000Y-68987458D01*
X67183000Y-68987458D01*
X67183000Y-63285750D01*
X69865000Y-63285750D01*
X69865000Y-63687542D01*
X69889403Y-63810223D01*
X69937270Y-63925785D01*
X70006763Y-64029789D01*
X70095211Y-64118237D01*
X70199215Y-64187730D01*
X70314777Y-64235597D01*
X70437458Y-64260000D01*
X70714250Y-64260000D01*
X70873000Y-64101250D01*
X70873000Y-63127000D01*
X70023750Y-63127000D01*
X69865000Y-63285750D01*
X67183000Y-63285750D01*
X67183000Y-62312458D01*
X69865000Y-62312458D01*
X69865000Y-62714250D01*
X70023750Y-62873000D01*
X70873000Y-62873000D01*
X70873000Y-61898750D01*
X70714250Y-61740000D01*
X70437458Y-61740000D01*
X70314777Y-61764403D01*
X70199215Y-61812270D01*
X70095211Y-61881763D01*
X70006763Y-61970211D01*
X69937270Y-62074215D01*
X69889403Y-62189777D01*
X69865000Y-62312458D01*
X67183000Y-62312458D01*
X67183000Y-59775725D01*
X67186440Y-59740799D01*
X67183000Y-59705873D01*
X67183000Y-59705864D01*
X67172709Y-59601380D01*
X67132042Y-59467319D01*
X67066002Y-59343767D01*
X67061497Y-59338278D01*
X66999397Y-59262608D01*
X66999393Y-59262604D01*
X66977127Y-59235473D01*
X66949996Y-59213207D01*
X65888072Y-58151284D01*
X65888072Y-57650000D01*
X65875812Y-57525518D01*
X65839502Y-57405820D01*
X65780537Y-57295506D01*
X65701185Y-57198815D01*
X65604494Y-57119463D01*
X65494180Y-57060498D01*
X65374482Y-57024188D01*
X65250000Y-57011928D01*
X64650000Y-57011928D01*
X64525518Y-57024188D01*
X64491828Y-57034408D01*
X64597743Y-56928493D01*
X64631659Y-56900659D01*
X64742753Y-56765291D01*
X64825303Y-56610851D01*
X64876136Y-56443274D01*
X64879603Y-56408072D01*
X65015000Y-56408072D01*
X65139482Y-56395812D01*
X65259180Y-56359502D01*
X65369494Y-56300537D01*
X65466185Y-56221185D01*
X65545537Y-56124494D01*
X65604502Y-56014180D01*
X65640812Y-55894482D01*
X65653072Y-55770000D01*
X65653072Y-55437458D01*
X70115000Y-55437458D01*
X70115000Y-56189250D01*
X70273750Y-56348000D01*
X71873000Y-56348000D01*
X71873000Y-55023750D01*
X72127000Y-55023750D01*
X72127000Y-56348000D01*
X73726250Y-56348000D01*
X73885000Y-56189250D01*
X73885000Y-55687458D01*
X74865000Y-55687458D01*
X74865000Y-56714250D01*
X75023750Y-56873000D01*
X76348000Y-56873000D01*
X76348000Y-55273750D01*
X76189250Y-55115000D01*
X75437458Y-55115000D01*
X75314777Y-55139403D01*
X75199215Y-55187270D01*
X75095211Y-55256763D01*
X75006763Y-55345211D01*
X74937270Y-55449215D01*
X74889403Y-55564777D01*
X74865000Y-55687458D01*
X73885000Y-55687458D01*
X73885000Y-55437458D01*
X73860597Y-55314777D01*
X73812730Y-55199215D01*
X73743237Y-55095211D01*
X73654789Y-55006763D01*
X73550785Y-54937270D01*
X73435223Y-54889403D01*
X73312542Y-54865000D01*
X72285750Y-54865000D01*
X72127000Y-55023750D01*
X71873000Y-55023750D01*
X71714250Y-54865000D01*
X70687458Y-54865000D01*
X70564777Y-54889403D01*
X70449215Y-54937270D01*
X70345211Y-55006763D01*
X70256763Y-55095211D01*
X70187270Y-55199215D01*
X70139403Y-55314777D01*
X70115000Y-55437458D01*
X65653072Y-55437458D01*
X65653072Y-54630000D01*
X65640812Y-54505518D01*
X65604502Y-54385820D01*
X65545537Y-54275506D01*
X65466185Y-54178815D01*
X65369494Y-54099463D01*
X65259180Y-54040498D01*
X65139482Y-54004188D01*
X65096959Y-54000000D01*
X65139482Y-53995812D01*
X65259180Y-53959502D01*
X65369494Y-53900537D01*
X65466185Y-53821185D01*
X65522553Y-53752500D01*
X68311215Y-53752500D01*
X68358000Y-53757108D01*
X68404785Y-53752500D01*
X68531697Y-53740000D01*
X68554939Y-53740000D01*
X68576305Y-53735750D01*
X75215000Y-53735750D01*
X75215000Y-53862542D01*
X75239403Y-53985223D01*
X75287270Y-54100785D01*
X75356763Y-54204789D01*
X75445211Y-54293237D01*
X75549215Y-54362730D01*
X75664777Y-54410597D01*
X75787458Y-54435000D01*
X76214250Y-54435000D01*
X76373000Y-54276250D01*
X76373000Y-53577000D01*
X76627000Y-53577000D01*
X76627000Y-54276250D01*
X76785750Y-54435000D01*
X77212542Y-54435000D01*
X77335223Y-54410597D01*
X77450785Y-54362730D01*
X77554789Y-54293237D01*
X77643237Y-54204789D01*
X77712730Y-54100785D01*
X77760597Y-53985223D01*
X77785000Y-53862542D01*
X77785000Y-53735750D01*
X77626250Y-53577000D01*
X76627000Y-53577000D01*
X76373000Y-53577000D01*
X75373750Y-53577000D01*
X75215000Y-53735750D01*
X68576305Y-53735750D01*
X68754898Y-53700226D01*
X68943256Y-53622205D01*
X69112774Y-53508937D01*
X69256937Y-53364774D01*
X69370205Y-53195256D01*
X69448226Y-53006898D01*
X69488000Y-52806939D01*
X69488000Y-52603061D01*
X69448226Y-52403102D01*
X69370205Y-52214744D01*
X69256937Y-52045226D01*
X69112774Y-51901063D01*
X68943256Y-51787795D01*
X68754898Y-51709774D01*
X68554939Y-51670000D01*
X68351061Y-51670000D01*
X68151102Y-51709774D01*
X67962744Y-51787795D01*
X67873389Y-51847500D01*
X65522553Y-51847500D01*
X65466185Y-51778815D01*
X65369494Y-51699463D01*
X65259180Y-51640498D01*
X65139482Y-51604188D01*
X65015000Y-51591928D01*
X62985000Y-51591928D01*
X62860518Y-51604188D01*
X62740820Y-51640498D01*
X62630506Y-51699463D01*
X62533815Y-51778815D01*
X62454463Y-51875506D01*
X62395498Y-51985820D01*
X62359188Y-52105518D01*
X62346928Y-52230000D01*
X62346928Y-53370000D01*
X62359188Y-53494482D01*
X62395498Y-53614180D01*
X62454463Y-53724494D01*
X62533815Y-53821185D01*
X62630506Y-53900537D01*
X62740820Y-53959502D01*
X62860518Y-53995812D01*
X62903041Y-54000000D01*
X62860518Y-54004188D01*
X62740820Y-54040498D01*
X62630506Y-54099463D01*
X62533815Y-54178815D01*
X62477447Y-54247500D01*
X60844814Y-54247500D01*
X60782581Y-54214236D01*
X60521507Y-54135040D01*
X60318037Y-54115000D01*
X60127000Y-54115000D01*
X60127000Y-44127000D01*
X74373000Y-44127000D01*
X74373000Y-48500000D01*
X74373000Y-48500000D01*
G37*
X74373000Y-48500000D02*
X74375440Y-48524776D01*
X74382667Y-48548601D01*
X74394403Y-48570557D01*
X74410197Y-48589803D01*
X74429443Y-48605597D01*
X74451399Y-48617333D01*
X74475224Y-48624560D01*
X74500000Y-48627000D01*
X75873423Y-48627000D01*
X75912270Y-48720785D01*
X75981763Y-48824789D01*
X76070211Y-48913237D01*
X76174215Y-48982730D01*
X76289777Y-49030597D01*
X76412458Y-49055000D01*
X76489250Y-49055000D01*
X76647998Y-48896252D01*
X76647998Y-49055000D01*
X76661001Y-49055000D01*
X76661001Y-49257000D01*
X76479061Y-49257000D01*
X76279102Y-49296774D01*
X76090744Y-49374795D01*
X75921226Y-49488063D01*
X75777063Y-49632226D01*
X75663795Y-49801744D01*
X75585774Y-49990102D01*
X75546000Y-50190061D01*
X75546000Y-50393939D01*
X75585774Y-50593898D01*
X75595037Y-50616262D01*
X75495506Y-50669463D01*
X75398815Y-50748815D01*
X75319463Y-50845506D01*
X75260498Y-50955820D01*
X75224188Y-51075518D01*
X75211928Y-51200000D01*
X75211928Y-51900000D01*
X75224188Y-52024482D01*
X75260498Y-52144180D01*
X75319463Y-52254494D01*
X75398815Y-52351185D01*
X75495506Y-52430537D01*
X75605820Y-52489502D01*
X75639715Y-52499784D01*
X75549215Y-52537270D01*
X75445211Y-52606763D01*
X75356763Y-52695211D01*
X75287270Y-52799215D01*
X75239403Y-52914777D01*
X75215000Y-53037458D01*
X75215000Y-53164250D01*
X75373750Y-53323000D01*
X76373000Y-53323000D01*
X76373000Y-53303000D01*
X76627000Y-53303000D01*
X76627000Y-53323000D01*
X77626250Y-53323000D01*
X77785000Y-53164250D01*
X77785000Y-53037458D01*
X77760597Y-52914777D01*
X77712730Y-52799215D01*
X77643237Y-52695211D01*
X77554789Y-52606763D01*
X77450785Y-52537270D01*
X77360285Y-52499784D01*
X77394180Y-52489502D01*
X77504494Y-52430537D01*
X77601185Y-52351185D01*
X77680537Y-52254494D01*
X77739502Y-52144180D01*
X77775812Y-52024482D01*
X77788072Y-51900000D01*
X77788072Y-51327000D01*
X77825939Y-51327000D01*
X78015000Y-51289394D01*
X78015000Y-51464250D01*
X78173750Y-51623000D01*
X78873000Y-51623000D01*
X78873000Y-50773750D01*
X78714250Y-50615000D01*
X78710485Y-50615000D01*
X78719226Y-50593898D01*
X78725388Y-50562922D01*
X78914898Y-50525226D01*
X79103256Y-50447205D01*
X79121001Y-50435348D01*
X79121000Y-51897000D01*
X78873000Y-51897000D01*
X78873000Y-51877000D01*
X78173750Y-51877000D01*
X78015000Y-52035750D01*
X78015000Y-52312542D01*
X78039403Y-52435223D01*
X78087270Y-52550785D01*
X78156763Y-52654789D01*
X78199899Y-52697925D01*
X78198815Y-52698815D01*
X78119463Y-52795506D01*
X78060498Y-52905820D01*
X78024188Y-53025518D01*
X78011928Y-53150000D01*
X78011928Y-53750000D01*
X78024188Y-53874482D01*
X78060498Y-53994180D01*
X78119463Y-54104494D01*
X78198815Y-54201185D01*
X78295506Y-54280537D01*
X78405820Y-54339502D01*
X78525518Y-54375812D01*
X78650000Y-54388072D01*
X78932284Y-54388072D01*
X79251407Y-54707196D01*
X79273673Y-54734327D01*
X79300804Y-54756593D01*
X79300808Y-54756597D01*
X79381967Y-54823202D01*
X79505519Y-54889242D01*
X79639580Y-54929909D01*
X79744064Y-54940200D01*
X79744073Y-54940200D01*
X79778999Y-54943640D01*
X79813925Y-54940200D01*
X81495965Y-54940200D01*
X82921000Y-56365237D01*
X82921001Y-59575304D01*
X82898298Y-59602967D01*
X82866783Y-59661928D01*
X82657500Y-59661928D01*
X82540000Y-59673500D01*
X82422500Y-59661928D01*
X82290337Y-59661928D01*
X82315000Y-59537939D01*
X82315000Y-59334061D01*
X82275226Y-59134102D01*
X82197205Y-58945744D01*
X82083937Y-58776226D01*
X81939774Y-58632063D01*
X81770256Y-58518795D01*
X81581898Y-58440774D01*
X81381939Y-58401000D01*
X81178061Y-58401000D01*
X81113896Y-58413763D01*
X81125812Y-58374482D01*
X81138072Y-58250000D01*
X81138072Y-55750000D01*
X81125812Y-55625518D01*
X81089502Y-55505820D01*
X81030537Y-55395506D01*
X80951185Y-55298815D01*
X80854494Y-55219463D01*
X80744180Y-55160498D01*
X80624482Y-55124188D01*
X80500000Y-55111928D01*
X78550000Y-55111928D01*
X78425518Y-55124188D01*
X78305820Y-55160498D01*
X78195506Y-55219463D01*
X78098815Y-55298815D01*
X78019463Y-55395506D01*
X78000521Y-55430943D01*
X77943237Y-55345211D01*
X77854789Y-55256763D01*
X77750785Y-55187270D01*
X77635223Y-55139403D01*
X77512542Y-55115000D01*
X76760750Y-55115000D01*
X76602000Y-55273750D01*
X76602000Y-56873000D01*
X76622000Y-56873000D01*
X76622000Y-57127000D01*
X76602000Y-57127000D01*
X76602000Y-58726250D01*
X76760750Y-58885000D01*
X77512542Y-58885000D01*
X77635223Y-58860597D01*
X77750785Y-58812730D01*
X77854789Y-58743237D01*
X77943237Y-58654789D01*
X78000521Y-58569057D01*
X78019463Y-58604494D01*
X78098815Y-58701185D01*
X78195506Y-58780537D01*
X78305820Y-58839502D01*
X78425518Y-58875812D01*
X78550000Y-58888072D01*
X78771282Y-58888072D01*
X78835301Y-59007842D01*
X78848716Y-59024188D01*
X78938459Y-59133541D01*
X78969966Y-59159398D01*
X79473392Y-59662825D01*
X79365000Y-59673500D01*
X79247500Y-59661928D01*
X78847500Y-59661928D01*
X78730000Y-59673500D01*
X78612500Y-59661928D01*
X78212500Y-59661928D01*
X78095000Y-59673500D01*
X77977500Y-59661928D01*
X77577500Y-59661928D01*
X77460000Y-59673500D01*
X77342500Y-59661928D01*
X76942500Y-59661928D01*
X76825000Y-59673500D01*
X76707500Y-59661928D01*
X76307500Y-59661928D01*
X76190000Y-59673500D01*
X76072500Y-59661928D01*
X75672500Y-59661928D01*
X75548018Y-59674188D01*
X75428320Y-59710498D01*
X75318006Y-59769463D01*
X75256111Y-59820259D01*
X75290226Y-59737898D01*
X75330000Y-59537939D01*
X75330000Y-59334061D01*
X75290226Y-59134102D01*
X75212205Y-58945744D01*
X75098937Y-58776226D01*
X74954774Y-58632063D01*
X74785256Y-58518795D01*
X74596898Y-58440774D01*
X74396939Y-58401000D01*
X74193061Y-58401000D01*
X73993102Y-58440774D01*
X73881853Y-58486855D01*
X73875812Y-58425518D01*
X73839502Y-58305820D01*
X73780537Y-58195506D01*
X73701185Y-58098815D01*
X73604494Y-58019463D01*
X73569057Y-58000521D01*
X73654789Y-57943237D01*
X73743237Y-57854789D01*
X73812730Y-57750785D01*
X73860597Y-57635223D01*
X73885000Y-57512542D01*
X73885000Y-57285750D01*
X74865000Y-57285750D01*
X74865000Y-58312542D01*
X74889403Y-58435223D01*
X74937270Y-58550785D01*
X75006763Y-58654789D01*
X75095211Y-58743237D01*
X75199215Y-58812730D01*
X75314777Y-58860597D01*
X75437458Y-58885000D01*
X76189250Y-58885000D01*
X76348000Y-58726250D01*
X76348000Y-57127000D01*
X75023750Y-57127000D01*
X74865000Y-57285750D01*
X73885000Y-57285750D01*
X73885000Y-56760750D01*
X73726250Y-56602000D01*
X72127000Y-56602000D01*
X72127000Y-56622000D01*
X71873000Y-56622000D01*
X71873000Y-56602000D01*
X70273750Y-56602000D01*
X70115000Y-56760750D01*
X70115000Y-57512542D01*
X70139403Y-57635223D01*
X70187270Y-57750785D01*
X70256763Y-57854789D01*
X70345211Y-57943237D01*
X70430943Y-58000521D01*
X70395506Y-58019463D01*
X70298815Y-58098815D01*
X70219463Y-58195506D01*
X70160498Y-58305820D01*
X70124188Y-58425518D01*
X70111928Y-58550000D01*
X70111928Y-58559824D01*
X69951939Y-58528000D01*
X69748061Y-58528000D01*
X69548102Y-58567774D01*
X69359744Y-58645795D01*
X69190226Y-58759063D01*
X69046063Y-58903226D01*
X68932795Y-59072744D01*
X68854774Y-59261102D01*
X68815000Y-59461061D01*
X68815000Y-59664939D01*
X68854774Y-59864898D01*
X68932795Y-60053256D01*
X69046063Y-60222774D01*
X69190226Y-60366937D01*
X69359744Y-60480205D01*
X69548102Y-60558226D01*
X69748061Y-60598000D01*
X69951939Y-60598000D01*
X70118320Y-60564905D01*
X70124188Y-60624482D01*
X70160498Y-60744180D01*
X70219463Y-60854494D01*
X70298815Y-60951185D01*
X70395506Y-61030537D01*
X70505820Y-61089502D01*
X70625518Y-61125812D01*
X70750000Y-61138072D01*
X73250000Y-61138072D01*
X73374482Y-61125812D01*
X73494180Y-61089502D01*
X73604494Y-61030537D01*
X73701185Y-60951185D01*
X73780537Y-60854494D01*
X73839502Y-60744180D01*
X73875812Y-60624482D01*
X73888072Y-60500000D01*
X73888072Y-60477500D01*
X74159215Y-60477500D01*
X74206000Y-60482108D01*
X74252785Y-60477500D01*
X74318779Y-60471000D01*
X74396939Y-60471000D01*
X74596898Y-60431226D01*
X74785256Y-60353205D01*
X74954774Y-60239937D01*
X75058660Y-60136051D01*
X75046688Y-60175518D01*
X75034428Y-60300000D01*
X75034428Y-61466139D01*
X74326068Y-62174500D01*
X74102752Y-62174500D01*
X74089502Y-62130820D01*
X74030537Y-62020506D01*
X73951185Y-61923815D01*
X73854494Y-61844463D01*
X73744180Y-61785498D01*
X73624482Y-61749188D01*
X73500000Y-61736928D01*
X72500000Y-61736928D01*
X72375518Y-61749188D01*
X72255820Y-61785498D01*
X72145506Y-61844463D01*
X72048815Y-61923815D01*
X72001092Y-61981966D01*
X71993237Y-61970211D01*
X71904789Y-61881763D01*
X71800785Y-61812270D01*
X71685223Y-61764403D01*
X71562542Y-61740000D01*
X71285750Y-61740000D01*
X71127000Y-61898750D01*
X71127000Y-62873000D01*
X71147000Y-62873000D01*
X71147000Y-63127000D01*
X71127000Y-63127000D01*
X71127000Y-64101250D01*
X71285750Y-64260000D01*
X71562542Y-64260000D01*
X71685223Y-64235597D01*
X71800785Y-64187730D01*
X71904789Y-64118237D01*
X71993237Y-64029789D01*
X72001092Y-64018034D01*
X72048815Y-64076185D01*
X72145506Y-64155537D01*
X72255820Y-64214502D01*
X72375518Y-64250812D01*
X72500000Y-64263072D01*
X73500000Y-64263072D01*
X73624482Y-64250812D01*
X73744180Y-64214502D01*
X73854494Y-64155537D01*
X73951185Y-64076185D01*
X74030537Y-63979494D01*
X74089502Y-63869180D01*
X74102752Y-63825500D01*
X74627450Y-63825500D01*
X74668000Y-63829494D01*
X74708550Y-63825500D01*
X74708553Y-63825500D01*
X74829826Y-63813556D01*
X74985434Y-63766353D01*
X75128842Y-63689699D01*
X75254541Y-63586541D01*
X75280398Y-63555034D01*
X75882500Y-62952933D01*
X76222611Y-63293045D01*
X76248459Y-63324541D01*
X76279955Y-63350389D01*
X76279958Y-63350392D01*
X76374157Y-63427699D01*
X76462574Y-63474959D01*
X76517566Y-63504353D01*
X76673174Y-63551556D01*
X76794447Y-63563500D01*
X76794449Y-63563500D01*
X76835000Y-63567494D01*
X76875550Y-63563500D01*
X80811067Y-63563500D01*
X81486958Y-64239392D01*
X81486969Y-64239401D01*
X82032000Y-64784433D01*
X82032000Y-64861928D01*
X82022500Y-64861928D01*
X81905000Y-64873500D01*
X81787500Y-64861928D01*
X81387500Y-64861928D01*
X81270000Y-64873500D01*
X81152500Y-64861928D01*
X80752500Y-64861928D01*
X80635000Y-64873500D01*
X80517500Y-64861928D01*
X80117500Y-64861928D01*
X80000000Y-64873500D01*
X79882500Y-64861928D01*
X79482500Y-64861928D01*
X79365000Y-64873500D01*
X79247500Y-64861928D01*
X78847500Y-64861928D01*
X78730000Y-64873500D01*
X78612500Y-64861928D01*
X78212500Y-64861928D01*
X78095000Y-64873500D01*
X77977500Y-64861928D01*
X77577500Y-64861928D01*
X77460000Y-64873500D01*
X77342500Y-64861928D01*
X76942500Y-64861928D01*
X76825000Y-64873500D01*
X76707500Y-64861928D01*
X76307500Y-64861928D01*
X76183018Y-64874188D01*
X76182311Y-64874402D01*
X76135042Y-64865000D01*
X76131250Y-64865000D01*
X76095520Y-64900730D01*
X76063320Y-64910498D01*
X75953006Y-64969463D01*
X75856315Y-65048815D01*
X75776963Y-65145506D01*
X75772500Y-65153856D01*
X75772500Y-65023750D01*
X75613750Y-64865000D01*
X75609958Y-64865000D01*
X75487277Y-64889403D01*
X75371715Y-64937270D01*
X75267711Y-65006763D01*
X75179263Y-65095211D01*
X75109770Y-65199215D01*
X75061903Y-65314777D01*
X75037500Y-65437458D01*
X75037500Y-65814250D01*
X75196250Y-65973000D01*
X75669428Y-65973000D01*
X75669428Y-66227000D01*
X75196250Y-66227000D01*
X75037500Y-66385750D01*
X75037500Y-66762542D01*
X75061903Y-66885223D01*
X75109770Y-67000785D01*
X75179263Y-67104789D01*
X75216672Y-67142198D01*
X74087649Y-68271221D01*
X74058579Y-68295078D01*
X74034722Y-68324148D01*
X74034721Y-68324149D01*
X73963355Y-68411108D01*
X73962917Y-68411928D01*
X73900000Y-68411928D01*
X73775518Y-68424188D01*
X73655820Y-68460498D01*
X73545506Y-68519463D01*
X73502180Y-68555020D01*
X73400785Y-68487270D01*
X73285223Y-68439403D01*
X73162542Y-68415000D01*
X72685750Y-68415000D01*
X72527000Y-68573750D01*
X72527000Y-69523000D01*
X72547000Y-69523000D01*
X72547000Y-69777000D01*
X72527000Y-69777000D01*
X72527000Y-69797000D01*
X72273000Y-69797000D01*
X72273000Y-69777000D01*
X71223750Y-69777000D01*
X71065000Y-69935750D01*
X71065000Y-70312542D01*
X71089403Y-70435223D01*
X71115088Y-70497233D01*
X71110498Y-70505820D01*
X71074188Y-70625518D01*
X71061928Y-70750000D01*
X71061928Y-71950000D01*
X71074188Y-72074482D01*
X71110498Y-72194180D01*
X71169463Y-72304494D01*
X71248815Y-72401185D01*
X71345506Y-72480537D01*
X71455820Y-72539502D01*
X71575518Y-72575812D01*
X71700000Y-72588072D01*
X72399441Y-72588072D01*
X72840721Y-73029351D01*
X72864578Y-73058422D01*
X72893648Y-73082279D01*
X72980607Y-73153645D01*
X73019995Y-73174698D01*
X73112985Y-73224402D01*
X73256622Y-73267974D01*
X73368574Y-73279000D01*
X73368577Y-73279000D01*
X73406000Y-73282686D01*
X73443423Y-73279000D01*
X75527577Y-73279000D01*
X75565000Y-73282686D01*
X75602423Y-73279000D01*
X75602426Y-73279000D01*
X75714378Y-73267974D01*
X75858015Y-73224402D01*
X75990392Y-73153645D01*
X76106422Y-73058422D01*
X76130284Y-73029346D01*
X76458346Y-72701284D01*
X76487422Y-72677422D01*
X76582645Y-72561392D01*
X76653402Y-72429015D01*
X76696974Y-72285378D01*
X76708000Y-72173426D01*
X76708000Y-72173424D01*
X76711686Y-72136001D01*
X76708000Y-72098578D01*
X76708000Y-68641630D01*
X77206000Y-68143630D01*
X77206001Y-73936762D01*
X75069765Y-76073000D01*
X70726237Y-76073000D01*
X67183000Y-72529765D01*
X67183000Y-68987458D01*
X71065000Y-68987458D01*
X71065000Y-69364250D01*
X71223750Y-69523000D01*
X72273000Y-69523000D01*
X72273000Y-68573750D01*
X72114250Y-68415000D01*
X71637458Y-68415000D01*
X71514777Y-68439403D01*
X71399215Y-68487270D01*
X71295211Y-68556763D01*
X71206763Y-68645211D01*
X71137270Y-68749215D01*
X71089403Y-68864777D01*
X71065000Y-68987458D01*
X67183000Y-68987458D01*
X67183000Y-63285750D01*
X69865000Y-63285750D01*
X69865000Y-63687542D01*
X69889403Y-63810223D01*
X69937270Y-63925785D01*
X70006763Y-64029789D01*
X70095211Y-64118237D01*
X70199215Y-64187730D01*
X70314777Y-64235597D01*
X70437458Y-64260000D01*
X70714250Y-64260000D01*
X70873000Y-64101250D01*
X70873000Y-63127000D01*
X70023750Y-63127000D01*
X69865000Y-63285750D01*
X67183000Y-63285750D01*
X67183000Y-62312458D01*
X69865000Y-62312458D01*
X69865000Y-62714250D01*
X70023750Y-62873000D01*
X70873000Y-62873000D01*
X70873000Y-61898750D01*
X70714250Y-61740000D01*
X70437458Y-61740000D01*
X70314777Y-61764403D01*
X70199215Y-61812270D01*
X70095211Y-61881763D01*
X70006763Y-61970211D01*
X69937270Y-62074215D01*
X69889403Y-62189777D01*
X69865000Y-62312458D01*
X67183000Y-62312458D01*
X67183000Y-59775725D01*
X67186440Y-59740799D01*
X67183000Y-59705873D01*
X67183000Y-59705864D01*
X67172709Y-59601380D01*
X67132042Y-59467319D01*
X67066002Y-59343767D01*
X67061497Y-59338278D01*
X66999397Y-59262608D01*
X66999393Y-59262604D01*
X66977127Y-59235473D01*
X66949996Y-59213207D01*
X65888072Y-58151284D01*
X65888072Y-57650000D01*
X65875812Y-57525518D01*
X65839502Y-57405820D01*
X65780537Y-57295506D01*
X65701185Y-57198815D01*
X65604494Y-57119463D01*
X65494180Y-57060498D01*
X65374482Y-57024188D01*
X65250000Y-57011928D01*
X64650000Y-57011928D01*
X64525518Y-57024188D01*
X64491828Y-57034408D01*
X64597743Y-56928493D01*
X64631659Y-56900659D01*
X64742753Y-56765291D01*
X64825303Y-56610851D01*
X64876136Y-56443274D01*
X64879603Y-56408072D01*
X65015000Y-56408072D01*
X65139482Y-56395812D01*
X65259180Y-56359502D01*
X65369494Y-56300537D01*
X65466185Y-56221185D01*
X65545537Y-56124494D01*
X65604502Y-56014180D01*
X65640812Y-55894482D01*
X65653072Y-55770000D01*
X65653072Y-55437458D01*
X70115000Y-55437458D01*
X70115000Y-56189250D01*
X70273750Y-56348000D01*
X71873000Y-56348000D01*
X71873000Y-55023750D01*
X72127000Y-55023750D01*
X72127000Y-56348000D01*
X73726250Y-56348000D01*
X73885000Y-56189250D01*
X73885000Y-55687458D01*
X74865000Y-55687458D01*
X74865000Y-56714250D01*
X75023750Y-56873000D01*
X76348000Y-56873000D01*
X76348000Y-55273750D01*
X76189250Y-55115000D01*
X75437458Y-55115000D01*
X75314777Y-55139403D01*
X75199215Y-55187270D01*
X75095211Y-55256763D01*
X75006763Y-55345211D01*
X74937270Y-55449215D01*
X74889403Y-55564777D01*
X74865000Y-55687458D01*
X73885000Y-55687458D01*
X73885000Y-55437458D01*
X73860597Y-55314777D01*
X73812730Y-55199215D01*
X73743237Y-55095211D01*
X73654789Y-55006763D01*
X73550785Y-54937270D01*
X73435223Y-54889403D01*
X73312542Y-54865000D01*
X72285750Y-54865000D01*
X72127000Y-55023750D01*
X71873000Y-55023750D01*
X71714250Y-54865000D01*
X70687458Y-54865000D01*
X70564777Y-54889403D01*
X70449215Y-54937270D01*
X70345211Y-55006763D01*
X70256763Y-55095211D01*
X70187270Y-55199215D01*
X70139403Y-55314777D01*
X70115000Y-55437458D01*
X65653072Y-55437458D01*
X65653072Y-54630000D01*
X65640812Y-54505518D01*
X65604502Y-54385820D01*
X65545537Y-54275506D01*
X65466185Y-54178815D01*
X65369494Y-54099463D01*
X65259180Y-54040498D01*
X65139482Y-54004188D01*
X65096959Y-54000000D01*
X65139482Y-53995812D01*
X65259180Y-53959502D01*
X65369494Y-53900537D01*
X65466185Y-53821185D01*
X65522553Y-53752500D01*
X68311215Y-53752500D01*
X68358000Y-53757108D01*
X68404785Y-53752500D01*
X68531697Y-53740000D01*
X68554939Y-53740000D01*
X68576305Y-53735750D01*
X75215000Y-53735750D01*
X75215000Y-53862542D01*
X75239403Y-53985223D01*
X75287270Y-54100785D01*
X75356763Y-54204789D01*
X75445211Y-54293237D01*
X75549215Y-54362730D01*
X75664777Y-54410597D01*
X75787458Y-54435000D01*
X76214250Y-54435000D01*
X76373000Y-54276250D01*
X76373000Y-53577000D01*
X76627000Y-53577000D01*
X76627000Y-54276250D01*
X76785750Y-54435000D01*
X77212542Y-54435000D01*
X77335223Y-54410597D01*
X77450785Y-54362730D01*
X77554789Y-54293237D01*
X77643237Y-54204789D01*
X77712730Y-54100785D01*
X77760597Y-53985223D01*
X77785000Y-53862542D01*
X77785000Y-53735750D01*
X77626250Y-53577000D01*
X76627000Y-53577000D01*
X76373000Y-53577000D01*
X75373750Y-53577000D01*
X75215000Y-53735750D01*
X68576305Y-53735750D01*
X68754898Y-53700226D01*
X68943256Y-53622205D01*
X69112774Y-53508937D01*
X69256937Y-53364774D01*
X69370205Y-53195256D01*
X69448226Y-53006898D01*
X69488000Y-52806939D01*
X69488000Y-52603061D01*
X69448226Y-52403102D01*
X69370205Y-52214744D01*
X69256937Y-52045226D01*
X69112774Y-51901063D01*
X68943256Y-51787795D01*
X68754898Y-51709774D01*
X68554939Y-51670000D01*
X68351061Y-51670000D01*
X68151102Y-51709774D01*
X67962744Y-51787795D01*
X67873389Y-51847500D01*
X65522553Y-51847500D01*
X65466185Y-51778815D01*
X65369494Y-51699463D01*
X65259180Y-51640498D01*
X65139482Y-51604188D01*
X65015000Y-51591928D01*
X62985000Y-51591928D01*
X62860518Y-51604188D01*
X62740820Y-51640498D01*
X62630506Y-51699463D01*
X62533815Y-51778815D01*
X62454463Y-51875506D01*
X62395498Y-51985820D01*
X62359188Y-52105518D01*
X62346928Y-52230000D01*
X62346928Y-53370000D01*
X62359188Y-53494482D01*
X62395498Y-53614180D01*
X62454463Y-53724494D01*
X62533815Y-53821185D01*
X62630506Y-53900537D01*
X62740820Y-53959502D01*
X62860518Y-53995812D01*
X62903041Y-54000000D01*
X62860518Y-54004188D01*
X62740820Y-54040498D01*
X62630506Y-54099463D01*
X62533815Y-54178815D01*
X62477447Y-54247500D01*
X60844814Y-54247500D01*
X60782581Y-54214236D01*
X60521507Y-54135040D01*
X60318037Y-54115000D01*
X60127000Y-54115000D01*
X60127000Y-44127000D01*
X74373000Y-44127000D01*
X74373000Y-48500000D01*
G36*
X99217419Y-64785764D02*
X99478493Y-64864960D01*
X99681963Y-64885000D01*
X99873000Y-64885000D01*
X99873000Y-73111000D01*
X99525660Y-73111000D01*
X99482000Y-73106700D01*
X99438340Y-73111000D01*
X99438333Y-73111000D01*
X99324325Y-73122229D01*
X99307725Y-73123864D01*
X99234758Y-73145998D01*
X99140149Y-73174697D01*
X98985709Y-73257247D01*
X98850341Y-73368341D01*
X98822506Y-73402258D01*
X96952500Y-75272265D01*
X96952500Y-68096047D01*
X96995226Y-67992898D01*
X97035000Y-67792939D01*
X97035000Y-67589061D01*
X96998999Y-67408072D01*
X97015000Y-67408072D01*
X97139482Y-67395812D01*
X97259180Y-67359502D01*
X97369494Y-67300537D01*
X97466185Y-67221185D01*
X97545537Y-67124494D01*
X97604502Y-67014180D01*
X97640812Y-66894482D01*
X97653072Y-66770000D01*
X97653072Y-65630000D01*
X97640812Y-65505518D01*
X97604502Y-65385820D01*
X97545537Y-65275506D01*
X97466185Y-65178815D01*
X97369494Y-65099463D01*
X97259180Y-65040498D01*
X97139482Y-65004188D01*
X97096959Y-65000000D01*
X97139482Y-64995812D01*
X97259180Y-64959502D01*
X97369494Y-64900537D01*
X97466185Y-64821185D01*
X97522553Y-64752500D01*
X99155186Y-64752500D01*
X99217419Y-64785764D01*
X99217419Y-64785764D01*
G37*
X99217419Y-64785764D02*
X99478493Y-64864960D01*
X99681963Y-64885000D01*
X99873000Y-64885000D01*
X99873000Y-73111000D01*
X99525660Y-73111000D01*
X99482000Y-73106700D01*
X99438340Y-73111000D01*
X99438333Y-73111000D01*
X99324325Y-73122229D01*
X99307725Y-73123864D01*
X99234758Y-73145998D01*
X99140149Y-73174697D01*
X98985709Y-73257247D01*
X98850341Y-73368341D01*
X98822506Y-73402258D01*
X96952500Y-75272265D01*
X96952500Y-68096047D01*
X96995226Y-67992898D01*
X97035000Y-67792939D01*
X97035000Y-67589061D01*
X96998999Y-67408072D01*
X97015000Y-67408072D01*
X97139482Y-67395812D01*
X97259180Y-67359502D01*
X97369494Y-67300537D01*
X97466185Y-67221185D01*
X97545537Y-67124494D01*
X97604502Y-67014180D01*
X97640812Y-66894482D01*
X97653072Y-66770000D01*
X97653072Y-65630000D01*
X97640812Y-65505518D01*
X97604502Y-65385820D01*
X97545537Y-65275506D01*
X97466185Y-65178815D01*
X97369494Y-65099463D01*
X97259180Y-65040498D01*
X97139482Y-65004188D01*
X97096959Y-65000000D01*
X97139482Y-64995812D01*
X97259180Y-64959502D01*
X97369494Y-64900537D01*
X97466185Y-64821185D01*
X97522553Y-64752500D01*
X99155186Y-64752500D01*
X99217419Y-64785764D01*
G36*
X99873000Y-52111000D02*
X99443660Y-52111000D01*
X99400000Y-52106700D01*
X99356340Y-52111000D01*
X99356333Y-52111000D01*
X99242325Y-52122229D01*
X99225725Y-52123864D01*
X99197345Y-52132473D01*
X99058149Y-52174697D01*
X98903709Y-52257247D01*
X98768341Y-52368341D01*
X98740506Y-52402258D01*
X96152264Y-54990501D01*
X96118341Y-55018341D01*
X96007247Y-55153710D01*
X95924697Y-55308150D01*
X95922687Y-55314777D01*
X95885473Y-55437458D01*
X95873864Y-55475727D01*
X95861000Y-55606334D01*
X95861000Y-55606340D01*
X95856700Y-55650000D01*
X95861000Y-55693660D01*
X95861001Y-58147781D01*
X95800000Y-58197842D01*
X95704494Y-58119463D01*
X95594180Y-58060498D01*
X95474482Y-58024188D01*
X95350000Y-58011928D01*
X94750000Y-58011928D01*
X94625518Y-58024188D01*
X94505820Y-58060498D01*
X94395506Y-58119463D01*
X94298815Y-58198815D01*
X94219463Y-58295506D01*
X94160498Y-58405820D01*
X94124188Y-58525518D01*
X94111928Y-58650000D01*
X94111928Y-58932284D01*
X92823257Y-60220956D01*
X92562010Y-60482203D01*
X92534874Y-60504473D01*
X92512604Y-60531609D01*
X92512603Y-60531610D01*
X92445998Y-60612768D01*
X92398886Y-60700909D01*
X92379959Y-60736319D01*
X92342265Y-60860581D01*
X92339292Y-60870381D01*
X92325560Y-61009800D01*
X92329001Y-61044736D01*
X92329000Y-70624763D01*
X88785765Y-74168000D01*
X83299236Y-74168000D01*
X82794000Y-73662765D01*
X82794000Y-70880432D01*
X82861928Y-70948360D01*
X82861928Y-73250000D01*
X82874188Y-73374482D01*
X82910498Y-73494180D01*
X82969463Y-73604494D01*
X83048815Y-73701185D01*
X83145506Y-73780537D01*
X83255820Y-73839502D01*
X83375518Y-73875812D01*
X83500000Y-73888072D01*
X85450000Y-73888072D01*
X85574482Y-73875812D01*
X85694180Y-73839502D01*
X85804494Y-73780537D01*
X85901185Y-73701185D01*
X85980537Y-73604494D01*
X85999479Y-73569057D01*
X86056763Y-73654789D01*
X86145211Y-73743237D01*
X86249215Y-73812730D01*
X86364777Y-73860597D01*
X86487458Y-73885000D01*
X87239250Y-73885000D01*
X87398000Y-73726250D01*
X87398000Y-72127000D01*
X87652000Y-72127000D01*
X87652000Y-73726250D01*
X87810750Y-73885000D01*
X88562542Y-73885000D01*
X88685223Y-73860597D01*
X88800785Y-73812730D01*
X88904789Y-73743237D01*
X88993237Y-73654789D01*
X89062730Y-73550785D01*
X89110597Y-73435223D01*
X89135000Y-73312542D01*
X89135000Y-72285750D01*
X88976250Y-72127000D01*
X87652000Y-72127000D01*
X87398000Y-72127000D01*
X87378000Y-72127000D01*
X87378000Y-71873000D01*
X87398000Y-71873000D01*
X87398000Y-70273750D01*
X87652000Y-70273750D01*
X87652000Y-71873000D01*
X88976250Y-71873000D01*
X89135000Y-71714250D01*
X89135000Y-70687458D01*
X89110597Y-70564777D01*
X89062730Y-70449215D01*
X88993237Y-70345211D01*
X88904789Y-70256763D01*
X88800785Y-70187270D01*
X88685223Y-70139403D01*
X88562542Y-70115000D01*
X87810750Y-70115000D01*
X87652000Y-70273750D01*
X87398000Y-70273750D01*
X87239250Y-70115000D01*
X86487458Y-70115000D01*
X86364777Y-70139403D01*
X86249215Y-70187270D01*
X86145211Y-70256763D01*
X86056763Y-70345211D01*
X85999479Y-70430943D01*
X85980537Y-70395506D01*
X85901185Y-70298815D01*
X85804494Y-70219463D01*
X85694180Y-70160498D01*
X85574482Y-70124188D01*
X85450000Y-70111928D01*
X84360361Y-70111928D01*
X83683000Y-69434568D01*
X83683000Y-68350433D01*
X83861928Y-68529361D01*
X83861928Y-69125000D01*
X83874188Y-69249482D01*
X83910498Y-69369180D01*
X83969463Y-69479494D01*
X84048815Y-69576185D01*
X84145506Y-69655537D01*
X84255820Y-69714502D01*
X84375518Y-69750812D01*
X84500000Y-69763072D01*
X85500000Y-69763072D01*
X85624482Y-69750812D01*
X85744180Y-69714502D01*
X85854494Y-69655537D01*
X85951185Y-69576185D01*
X85998908Y-69518034D01*
X86006763Y-69529789D01*
X86095211Y-69618237D01*
X86199215Y-69687730D01*
X86314777Y-69735597D01*
X86437458Y-69760000D01*
X86714250Y-69760000D01*
X86873000Y-69601250D01*
X86873000Y-68627000D01*
X87127000Y-68627000D01*
X87127000Y-69601250D01*
X87285750Y-69760000D01*
X87562542Y-69760000D01*
X87685223Y-69735597D01*
X87800785Y-69687730D01*
X87904789Y-69618237D01*
X87993237Y-69529789D01*
X88062730Y-69425785D01*
X88110597Y-69310223D01*
X88135000Y-69187542D01*
X88135000Y-68785750D01*
X87976250Y-68627000D01*
X87127000Y-68627000D01*
X86873000Y-68627000D01*
X86853000Y-68627000D01*
X86853000Y-68373000D01*
X86873000Y-68373000D01*
X86873000Y-67398750D01*
X87127000Y-67398750D01*
X87127000Y-68373000D01*
X87976250Y-68373000D01*
X88135000Y-68214250D01*
X88135000Y-67812458D01*
X88110597Y-67689777D01*
X88062730Y-67574215D01*
X87993237Y-67470211D01*
X87904789Y-67381763D01*
X87800785Y-67312270D01*
X87685223Y-67264403D01*
X87562542Y-67240000D01*
X87285750Y-67240000D01*
X87127000Y-67398750D01*
X86873000Y-67398750D01*
X86714250Y-67240000D01*
X86437458Y-67240000D01*
X86314777Y-67264403D01*
X86199215Y-67312270D01*
X86095211Y-67381763D01*
X86006763Y-67470211D01*
X85998908Y-67481966D01*
X85951185Y-67423815D01*
X85854494Y-67344463D01*
X85744180Y-67285498D01*
X85624482Y-67249188D01*
X85500000Y-67236928D01*
X84904361Y-67236928D01*
X84796685Y-67129252D01*
X84858037Y-67054494D01*
X84917002Y-66944180D01*
X84941931Y-66862000D01*
X85812577Y-66862000D01*
X85850000Y-66865686D01*
X85887423Y-66862000D01*
X85887426Y-66862000D01*
X85999378Y-66850974D01*
X86143015Y-66807402D01*
X86275392Y-66736645D01*
X86391422Y-66641422D01*
X86415284Y-66612346D01*
X87589559Y-65438072D01*
X88150000Y-65438072D01*
X88274482Y-65425812D01*
X88394180Y-65389502D01*
X88504494Y-65330537D01*
X88601185Y-65251185D01*
X88680537Y-65154494D01*
X88739502Y-65044180D01*
X88775812Y-64924482D01*
X88788072Y-64800000D01*
X88788072Y-64100000D01*
X88775812Y-63975518D01*
X88739502Y-63855820D01*
X88680537Y-63745506D01*
X88601185Y-63648815D01*
X88504494Y-63569463D01*
X88394180Y-63510498D01*
X88360285Y-63500216D01*
X88450785Y-63462730D01*
X88554789Y-63393237D01*
X88643237Y-63304789D01*
X88712730Y-63200785D01*
X88760597Y-63085223D01*
X88785000Y-62962542D01*
X88785000Y-62835750D01*
X88626250Y-62677000D01*
X87627000Y-62677000D01*
X87627000Y-62697000D01*
X87373000Y-62697000D01*
X87373000Y-62677000D01*
X86373750Y-62677000D01*
X86215000Y-62835750D01*
X86215000Y-62962542D01*
X86239403Y-63085223D01*
X86287270Y-63200785D01*
X86356763Y-63304789D01*
X86445211Y-63393237D01*
X86549215Y-63462730D01*
X86639715Y-63500216D01*
X86605820Y-63510498D01*
X86495506Y-63569463D01*
X86398815Y-63648815D01*
X86319463Y-63745506D01*
X86260498Y-63855820D01*
X86224188Y-63975518D01*
X86211928Y-64100000D01*
X86211928Y-64660441D01*
X85534370Y-65338000D01*
X84941931Y-65338000D01*
X84917002Y-65255820D01*
X84858037Y-65145506D01*
X84778685Y-65048815D01*
X84681994Y-64969463D01*
X84571680Y-64910498D01*
X84451982Y-64874188D01*
X84327500Y-64861928D01*
X84318000Y-64861928D01*
X84318000Y-64102050D01*
X84321994Y-64061500D01*
X84314629Y-63986722D01*
X84306056Y-63899674D01*
X84258853Y-63744066D01*
X84204992Y-63643300D01*
X84182199Y-63600657D01*
X84104892Y-63506458D01*
X84104889Y-63506455D01*
X84079041Y-63474959D01*
X84047544Y-63449110D01*
X83469900Y-62871468D01*
X83469892Y-62871458D01*
X83338601Y-62740167D01*
X83390541Y-62697541D01*
X83414656Y-62668156D01*
X83444041Y-62644041D01*
X83547199Y-62518342D01*
X83623853Y-62374934D01*
X83671056Y-62219326D01*
X83679059Y-62138072D01*
X83692500Y-62138072D01*
X83810000Y-62126500D01*
X83927500Y-62138072D01*
X84327500Y-62138072D01*
X84333734Y-62137458D01*
X86215000Y-62137458D01*
X86215000Y-62264250D01*
X86373750Y-62423000D01*
X87373000Y-62423000D01*
X87373000Y-61723750D01*
X87627000Y-61723750D01*
X87627000Y-62423000D01*
X88626250Y-62423000D01*
X88785000Y-62264250D01*
X88785000Y-62137458D01*
X88760597Y-62014777D01*
X88712730Y-61899215D01*
X88643237Y-61795211D01*
X88554789Y-61706763D01*
X88450785Y-61637270D01*
X88335223Y-61589403D01*
X88212542Y-61565000D01*
X87785750Y-61565000D01*
X87627000Y-61723750D01*
X87373000Y-61723750D01*
X87214250Y-61565000D01*
X86787458Y-61565000D01*
X86664777Y-61589403D01*
X86549215Y-61637270D01*
X86445211Y-61706763D01*
X86356763Y-61795211D01*
X86287270Y-61899215D01*
X86239403Y-62014777D01*
X86215000Y-62137458D01*
X84333734Y-62137458D01*
X84451982Y-62125812D01*
X84571680Y-62089502D01*
X84681994Y-62030537D01*
X84778685Y-61951185D01*
X84858037Y-61854494D01*
X84917002Y-61744180D01*
X84953312Y-61624482D01*
X84965572Y-61500000D01*
X84965572Y-60300000D01*
X84953312Y-60175518D01*
X84917002Y-60055820D01*
X84858037Y-59945506D01*
X84833874Y-59916063D01*
X84828409Y-59860579D01*
X84787742Y-59726518D01*
X84721702Y-59602966D01*
X84699000Y-59575304D01*
X84699000Y-55958280D01*
X84702440Y-55923352D01*
X84699000Y-55888423D01*
X84699000Y-55888416D01*
X84688709Y-55783932D01*
X84648042Y-55649871D01*
X84582002Y-55526319D01*
X84540481Y-55475726D01*
X84515397Y-55445161D01*
X84515393Y-55445157D01*
X84493126Y-55418025D01*
X84465995Y-55395759D01*
X83505236Y-54435000D01*
X83627002Y-54435000D01*
X83627002Y-54276252D01*
X83785750Y-54435000D01*
X84212542Y-54435000D01*
X84335223Y-54410597D01*
X84450785Y-54362730D01*
X84554789Y-54293237D01*
X84643237Y-54204789D01*
X84712730Y-54100785D01*
X84760597Y-53985223D01*
X84785000Y-53862542D01*
X84785000Y-53735750D01*
X84626250Y-53577000D01*
X83627000Y-53577000D01*
X83627000Y-53597000D01*
X83373000Y-53597000D01*
X83373000Y-53577000D01*
X83353000Y-53577000D01*
X83353000Y-53323000D01*
X83373000Y-53323000D01*
X83373000Y-53303000D01*
X83627000Y-53303000D01*
X83627000Y-53323000D01*
X84626250Y-53323000D01*
X84785000Y-53164250D01*
X84785000Y-53037458D01*
X84760597Y-52914777D01*
X84712730Y-52799215D01*
X84643237Y-52695211D01*
X84554789Y-52606763D01*
X84450785Y-52537270D01*
X84360285Y-52499784D01*
X84394180Y-52489502D01*
X84504494Y-52430537D01*
X84601185Y-52351185D01*
X84680537Y-52254494D01*
X84739502Y-52144180D01*
X84775812Y-52024482D01*
X84788072Y-51900000D01*
X84788072Y-51200000D01*
X84775812Y-51075518D01*
X84739502Y-50955820D01*
X84680537Y-50845506D01*
X84601185Y-50748815D01*
X84504494Y-50669463D01*
X84421337Y-50625014D01*
X84434226Y-50593898D01*
X84474000Y-50393939D01*
X84474000Y-50190061D01*
X84434226Y-49990102D01*
X84356205Y-49801744D01*
X84242937Y-49632226D01*
X84098774Y-49488063D01*
X83929256Y-49374795D01*
X83740898Y-49296774D01*
X83540939Y-49257000D01*
X83339000Y-49257000D01*
X83339000Y-49235750D01*
X85715000Y-49235750D01*
X85715000Y-49362542D01*
X85739403Y-49485223D01*
X85787270Y-49600785D01*
X85856763Y-49704789D01*
X85945211Y-49793237D01*
X86049215Y-49862730D01*
X86164777Y-49910597D01*
X86287458Y-49935000D01*
X86714250Y-49935000D01*
X86873000Y-49776250D01*
X86873000Y-49077000D01*
X87127000Y-49077000D01*
X87127000Y-49776250D01*
X87285750Y-49935000D01*
X87712542Y-49935000D01*
X87835223Y-49910597D01*
X87950785Y-49862730D01*
X88054789Y-49793237D01*
X88143237Y-49704789D01*
X88212730Y-49600785D01*
X88260597Y-49485223D01*
X88285000Y-49362542D01*
X88285000Y-49235750D01*
X88126250Y-49077000D01*
X87127000Y-49077000D01*
X86873000Y-49077000D01*
X85873750Y-49077000D01*
X85715000Y-49235750D01*
X83339000Y-49235750D01*
X83339000Y-49055000D01*
X83352002Y-49055000D01*
X83352002Y-48896252D01*
X83510750Y-49055000D01*
X83587542Y-49055000D01*
X83710223Y-49030597D01*
X83825785Y-48982730D01*
X83929789Y-48913237D01*
X84018237Y-48824789D01*
X84087730Y-48720785D01*
X84126577Y-48627000D01*
X85500000Y-48627000D01*
X85524776Y-48624560D01*
X85548601Y-48617333D01*
X85570557Y-48605597D01*
X85589803Y-48589803D01*
X85605597Y-48570557D01*
X85617333Y-48548601D01*
X85624560Y-48524776D01*
X85627000Y-48500000D01*
X85627000Y-47875500D01*
X85928443Y-47875500D01*
X85995506Y-47930537D01*
X86105820Y-47989502D01*
X86139715Y-47999784D01*
X86049215Y-48037270D01*
X85945211Y-48106763D01*
X85856763Y-48195211D01*
X85787270Y-48299215D01*
X85739403Y-48414777D01*
X85715000Y-48537458D01*
X85715000Y-48664250D01*
X85873750Y-48823000D01*
X86873000Y-48823000D01*
X86873000Y-48803000D01*
X87127000Y-48803000D01*
X87127000Y-48823000D01*
X88126250Y-48823000D01*
X88285000Y-48664250D01*
X88285000Y-48537458D01*
X88260597Y-48414777D01*
X88212730Y-48299215D01*
X88143237Y-48195211D01*
X88054789Y-48106763D01*
X87950785Y-48037270D01*
X87860285Y-47999784D01*
X87894180Y-47989502D01*
X88004494Y-47930537D01*
X88101185Y-47851185D01*
X88180537Y-47754494D01*
X88239502Y-47644180D01*
X88275812Y-47524482D01*
X88288072Y-47400000D01*
X88288072Y-46700000D01*
X88275812Y-46575518D01*
X88239502Y-46455820D01*
X88180537Y-46345506D01*
X88101185Y-46248815D01*
X88004494Y-46169463D01*
X87894180Y-46110498D01*
X87774482Y-46074188D01*
X87650000Y-46061928D01*
X86350000Y-46061928D01*
X86225518Y-46074188D01*
X86105820Y-46110498D01*
X85995506Y-46169463D01*
X85928443Y-46224500D01*
X85627000Y-46224500D01*
X85627000Y-44127000D01*
X99873000Y-44127000D01*
X99873000Y-52111000D01*
X99873000Y-52111000D01*
G37*
X99873000Y-52111000D02*
X99443660Y-52111000D01*
X99400000Y-52106700D01*
X99356340Y-52111000D01*
X99356333Y-52111000D01*
X99242325Y-52122229D01*
X99225725Y-52123864D01*
X99197345Y-52132473D01*
X99058149Y-52174697D01*
X98903709Y-52257247D01*
X98768341Y-52368341D01*
X98740506Y-52402258D01*
X96152264Y-54990501D01*
X96118341Y-55018341D01*
X96007247Y-55153710D01*
X95924697Y-55308150D01*
X95922687Y-55314777D01*
X95885473Y-55437458D01*
X95873864Y-55475727D01*
X95861000Y-55606334D01*
X95861000Y-55606340D01*
X95856700Y-55650000D01*
X95861000Y-55693660D01*
X95861001Y-58147781D01*
X95800000Y-58197842D01*
X95704494Y-58119463D01*
X95594180Y-58060498D01*
X95474482Y-58024188D01*
X95350000Y-58011928D01*
X94750000Y-58011928D01*
X94625518Y-58024188D01*
X94505820Y-58060498D01*
X94395506Y-58119463D01*
X94298815Y-58198815D01*
X94219463Y-58295506D01*
X94160498Y-58405820D01*
X94124188Y-58525518D01*
X94111928Y-58650000D01*
X94111928Y-58932284D01*
X92823257Y-60220956D01*
X92562010Y-60482203D01*
X92534874Y-60504473D01*
X92512604Y-60531609D01*
X92512603Y-60531610D01*
X92445998Y-60612768D01*
X92398886Y-60700909D01*
X92379959Y-60736319D01*
X92342265Y-60860581D01*
X92339292Y-60870381D01*
X92325560Y-61009800D01*
X92329001Y-61044736D01*
X92329000Y-70624763D01*
X88785765Y-74168000D01*
X83299236Y-74168000D01*
X82794000Y-73662765D01*
X82794000Y-70880432D01*
X82861928Y-70948360D01*
X82861928Y-73250000D01*
X82874188Y-73374482D01*
X82910498Y-73494180D01*
X82969463Y-73604494D01*
X83048815Y-73701185D01*
X83145506Y-73780537D01*
X83255820Y-73839502D01*
X83375518Y-73875812D01*
X83500000Y-73888072D01*
X85450000Y-73888072D01*
X85574482Y-73875812D01*
X85694180Y-73839502D01*
X85804494Y-73780537D01*
X85901185Y-73701185D01*
X85980537Y-73604494D01*
X85999479Y-73569057D01*
X86056763Y-73654789D01*
X86145211Y-73743237D01*
X86249215Y-73812730D01*
X86364777Y-73860597D01*
X86487458Y-73885000D01*
X87239250Y-73885000D01*
X87398000Y-73726250D01*
X87398000Y-72127000D01*
X87652000Y-72127000D01*
X87652000Y-73726250D01*
X87810750Y-73885000D01*
X88562542Y-73885000D01*
X88685223Y-73860597D01*
X88800785Y-73812730D01*
X88904789Y-73743237D01*
X88993237Y-73654789D01*
X89062730Y-73550785D01*
X89110597Y-73435223D01*
X89135000Y-73312542D01*
X89135000Y-72285750D01*
X88976250Y-72127000D01*
X87652000Y-72127000D01*
X87398000Y-72127000D01*
X87378000Y-72127000D01*
X87378000Y-71873000D01*
X87398000Y-71873000D01*
X87398000Y-70273750D01*
X87652000Y-70273750D01*
X87652000Y-71873000D01*
X88976250Y-71873000D01*
X89135000Y-71714250D01*
X89135000Y-70687458D01*
X89110597Y-70564777D01*
X89062730Y-70449215D01*
X88993237Y-70345211D01*
X88904789Y-70256763D01*
X88800785Y-70187270D01*
X88685223Y-70139403D01*
X88562542Y-70115000D01*
X87810750Y-70115000D01*
X87652000Y-70273750D01*
X87398000Y-70273750D01*
X87239250Y-70115000D01*
X86487458Y-70115000D01*
X86364777Y-70139403D01*
X86249215Y-70187270D01*
X86145211Y-70256763D01*
X86056763Y-70345211D01*
X85999479Y-70430943D01*
X85980537Y-70395506D01*
X85901185Y-70298815D01*
X85804494Y-70219463D01*
X85694180Y-70160498D01*
X85574482Y-70124188D01*
X85450000Y-70111928D01*
X84360361Y-70111928D01*
X83683000Y-69434568D01*
X83683000Y-68350433D01*
X83861928Y-68529361D01*
X83861928Y-69125000D01*
X83874188Y-69249482D01*
X83910498Y-69369180D01*
X83969463Y-69479494D01*
X84048815Y-69576185D01*
X84145506Y-69655537D01*
X84255820Y-69714502D01*
X84375518Y-69750812D01*
X84500000Y-69763072D01*
X85500000Y-69763072D01*
X85624482Y-69750812D01*
X85744180Y-69714502D01*
X85854494Y-69655537D01*
X85951185Y-69576185D01*
X85998908Y-69518034D01*
X86006763Y-69529789D01*
X86095211Y-69618237D01*
X86199215Y-69687730D01*
X86314777Y-69735597D01*
X86437458Y-69760000D01*
X86714250Y-69760000D01*
X86873000Y-69601250D01*
X86873000Y-68627000D01*
X87127000Y-68627000D01*
X87127000Y-69601250D01*
X87285750Y-69760000D01*
X87562542Y-69760000D01*
X87685223Y-69735597D01*
X87800785Y-69687730D01*
X87904789Y-69618237D01*
X87993237Y-69529789D01*
X88062730Y-69425785D01*
X88110597Y-69310223D01*
X88135000Y-69187542D01*
X88135000Y-68785750D01*
X87976250Y-68627000D01*
X87127000Y-68627000D01*
X86873000Y-68627000D01*
X86853000Y-68627000D01*
X86853000Y-68373000D01*
X86873000Y-68373000D01*
X86873000Y-67398750D01*
X87127000Y-67398750D01*
X87127000Y-68373000D01*
X87976250Y-68373000D01*
X88135000Y-68214250D01*
X88135000Y-67812458D01*
X88110597Y-67689777D01*
X88062730Y-67574215D01*
X87993237Y-67470211D01*
X87904789Y-67381763D01*
X87800785Y-67312270D01*
X87685223Y-67264403D01*
X87562542Y-67240000D01*
X87285750Y-67240000D01*
X87127000Y-67398750D01*
X86873000Y-67398750D01*
X86714250Y-67240000D01*
X86437458Y-67240000D01*
X86314777Y-67264403D01*
X86199215Y-67312270D01*
X86095211Y-67381763D01*
X86006763Y-67470211D01*
X85998908Y-67481966D01*
X85951185Y-67423815D01*
X85854494Y-67344463D01*
X85744180Y-67285498D01*
X85624482Y-67249188D01*
X85500000Y-67236928D01*
X84904361Y-67236928D01*
X84796685Y-67129252D01*
X84858037Y-67054494D01*
X84917002Y-66944180D01*
X84941931Y-66862000D01*
X85812577Y-66862000D01*
X85850000Y-66865686D01*
X85887423Y-66862000D01*
X85887426Y-66862000D01*
X85999378Y-66850974D01*
X86143015Y-66807402D01*
X86275392Y-66736645D01*
X86391422Y-66641422D01*
X86415284Y-66612346D01*
X87589559Y-65438072D01*
X88150000Y-65438072D01*
X88274482Y-65425812D01*
X88394180Y-65389502D01*
X88504494Y-65330537D01*
X88601185Y-65251185D01*
X88680537Y-65154494D01*
X88739502Y-65044180D01*
X88775812Y-64924482D01*
X88788072Y-64800000D01*
X88788072Y-64100000D01*
X88775812Y-63975518D01*
X88739502Y-63855820D01*
X88680537Y-63745506D01*
X88601185Y-63648815D01*
X88504494Y-63569463D01*
X88394180Y-63510498D01*
X88360285Y-63500216D01*
X88450785Y-63462730D01*
X88554789Y-63393237D01*
X88643237Y-63304789D01*
X88712730Y-63200785D01*
X88760597Y-63085223D01*
X88785000Y-62962542D01*
X88785000Y-62835750D01*
X88626250Y-62677000D01*
X87627000Y-62677000D01*
X87627000Y-62697000D01*
X87373000Y-62697000D01*
X87373000Y-62677000D01*
X86373750Y-62677000D01*
X86215000Y-62835750D01*
X86215000Y-62962542D01*
X86239403Y-63085223D01*
X86287270Y-63200785D01*
X86356763Y-63304789D01*
X86445211Y-63393237D01*
X86549215Y-63462730D01*
X86639715Y-63500216D01*
X86605820Y-63510498D01*
X86495506Y-63569463D01*
X86398815Y-63648815D01*
X86319463Y-63745506D01*
X86260498Y-63855820D01*
X86224188Y-63975518D01*
X86211928Y-64100000D01*
X86211928Y-64660441D01*
X85534370Y-65338000D01*
X84941931Y-65338000D01*
X84917002Y-65255820D01*
X84858037Y-65145506D01*
X84778685Y-65048815D01*
X84681994Y-64969463D01*
X84571680Y-64910498D01*
X84451982Y-64874188D01*
X84327500Y-64861928D01*
X84318000Y-64861928D01*
X84318000Y-64102050D01*
X84321994Y-64061500D01*
X84314629Y-63986722D01*
X84306056Y-63899674D01*
X84258853Y-63744066D01*
X84204992Y-63643300D01*
X84182199Y-63600657D01*
X84104892Y-63506458D01*
X84104889Y-63506455D01*
X84079041Y-63474959D01*
X84047544Y-63449110D01*
X83469900Y-62871468D01*
X83469892Y-62871458D01*
X83338601Y-62740167D01*
X83390541Y-62697541D01*
X83414656Y-62668156D01*
X83444041Y-62644041D01*
X83547199Y-62518342D01*
X83623853Y-62374934D01*
X83671056Y-62219326D01*
X83679059Y-62138072D01*
X83692500Y-62138072D01*
X83810000Y-62126500D01*
X83927500Y-62138072D01*
X84327500Y-62138072D01*
X84333734Y-62137458D01*
X86215000Y-62137458D01*
X86215000Y-62264250D01*
X86373750Y-62423000D01*
X87373000Y-62423000D01*
X87373000Y-61723750D01*
X87627000Y-61723750D01*
X87627000Y-62423000D01*
X88626250Y-62423000D01*
X88785000Y-62264250D01*
X88785000Y-62137458D01*
X88760597Y-62014777D01*
X88712730Y-61899215D01*
X88643237Y-61795211D01*
X88554789Y-61706763D01*
X88450785Y-61637270D01*
X88335223Y-61589403D01*
X88212542Y-61565000D01*
X87785750Y-61565000D01*
X87627000Y-61723750D01*
X87373000Y-61723750D01*
X87214250Y-61565000D01*
X86787458Y-61565000D01*
X86664777Y-61589403D01*
X86549215Y-61637270D01*
X86445211Y-61706763D01*
X86356763Y-61795211D01*
X86287270Y-61899215D01*
X86239403Y-62014777D01*
X86215000Y-62137458D01*
X84333734Y-62137458D01*
X84451982Y-62125812D01*
X84571680Y-62089502D01*
X84681994Y-62030537D01*
X84778685Y-61951185D01*
X84858037Y-61854494D01*
X84917002Y-61744180D01*
X84953312Y-61624482D01*
X84965572Y-61500000D01*
X84965572Y-60300000D01*
X84953312Y-60175518D01*
X84917002Y-60055820D01*
X84858037Y-59945506D01*
X84833874Y-59916063D01*
X84828409Y-59860579D01*
X84787742Y-59726518D01*
X84721702Y-59602966D01*
X84699000Y-59575304D01*
X84699000Y-55958280D01*
X84702440Y-55923352D01*
X84699000Y-55888423D01*
X84699000Y-55888416D01*
X84688709Y-55783932D01*
X84648042Y-55649871D01*
X84582002Y-55526319D01*
X84540481Y-55475726D01*
X84515397Y-55445161D01*
X84515393Y-55445157D01*
X84493126Y-55418025D01*
X84465995Y-55395759D01*
X83505236Y-54435000D01*
X83627002Y-54435000D01*
X83627002Y-54276252D01*
X83785750Y-54435000D01*
X84212542Y-54435000D01*
X84335223Y-54410597D01*
X84450785Y-54362730D01*
X84554789Y-54293237D01*
X84643237Y-54204789D01*
X84712730Y-54100785D01*
X84760597Y-53985223D01*
X84785000Y-53862542D01*
X84785000Y-53735750D01*
X84626250Y-53577000D01*
X83627000Y-53577000D01*
X83627000Y-53597000D01*
X83373000Y-53597000D01*
X83373000Y-53577000D01*
X83353000Y-53577000D01*
X83353000Y-53323000D01*
X83373000Y-53323000D01*
X83373000Y-53303000D01*
X83627000Y-53303000D01*
X83627000Y-53323000D01*
X84626250Y-53323000D01*
X84785000Y-53164250D01*
X84785000Y-53037458D01*
X84760597Y-52914777D01*
X84712730Y-52799215D01*
X84643237Y-52695211D01*
X84554789Y-52606763D01*
X84450785Y-52537270D01*
X84360285Y-52499784D01*
X84394180Y-52489502D01*
X84504494Y-52430537D01*
X84601185Y-52351185D01*
X84680537Y-52254494D01*
X84739502Y-52144180D01*
X84775812Y-52024482D01*
X84788072Y-51900000D01*
X84788072Y-51200000D01*
X84775812Y-51075518D01*
X84739502Y-50955820D01*
X84680537Y-50845506D01*
X84601185Y-50748815D01*
X84504494Y-50669463D01*
X84421337Y-50625014D01*
X84434226Y-50593898D01*
X84474000Y-50393939D01*
X84474000Y-50190061D01*
X84434226Y-49990102D01*
X84356205Y-49801744D01*
X84242937Y-49632226D01*
X84098774Y-49488063D01*
X83929256Y-49374795D01*
X83740898Y-49296774D01*
X83540939Y-49257000D01*
X83339000Y-49257000D01*
X83339000Y-49235750D01*
X85715000Y-49235750D01*
X85715000Y-49362542D01*
X85739403Y-49485223D01*
X85787270Y-49600785D01*
X85856763Y-49704789D01*
X85945211Y-49793237D01*
X86049215Y-49862730D01*
X86164777Y-49910597D01*
X86287458Y-49935000D01*
X86714250Y-49935000D01*
X86873000Y-49776250D01*
X86873000Y-49077000D01*
X87127000Y-49077000D01*
X87127000Y-49776250D01*
X87285750Y-49935000D01*
X87712542Y-49935000D01*
X87835223Y-49910597D01*
X87950785Y-49862730D01*
X88054789Y-49793237D01*
X88143237Y-49704789D01*
X88212730Y-49600785D01*
X88260597Y-49485223D01*
X88285000Y-49362542D01*
X88285000Y-49235750D01*
X88126250Y-49077000D01*
X87127000Y-49077000D01*
X86873000Y-49077000D01*
X85873750Y-49077000D01*
X85715000Y-49235750D01*
X83339000Y-49235750D01*
X83339000Y-49055000D01*
X83352002Y-49055000D01*
X83352002Y-48896252D01*
X83510750Y-49055000D01*
X83587542Y-49055000D01*
X83710223Y-49030597D01*
X83825785Y-48982730D01*
X83929789Y-48913237D01*
X84018237Y-48824789D01*
X84087730Y-48720785D01*
X84126577Y-48627000D01*
X85500000Y-48627000D01*
X85524776Y-48624560D01*
X85548601Y-48617333D01*
X85570557Y-48605597D01*
X85589803Y-48589803D01*
X85605597Y-48570557D01*
X85617333Y-48548601D01*
X85624560Y-48524776D01*
X85627000Y-48500000D01*
X85627000Y-47875500D01*
X85928443Y-47875500D01*
X85995506Y-47930537D01*
X86105820Y-47989502D01*
X86139715Y-47999784D01*
X86049215Y-48037270D01*
X85945211Y-48106763D01*
X85856763Y-48195211D01*
X85787270Y-48299215D01*
X85739403Y-48414777D01*
X85715000Y-48537458D01*
X85715000Y-48664250D01*
X85873750Y-48823000D01*
X86873000Y-48823000D01*
X86873000Y-48803000D01*
X87127000Y-48803000D01*
X87127000Y-48823000D01*
X88126250Y-48823000D01*
X88285000Y-48664250D01*
X88285000Y-48537458D01*
X88260597Y-48414777D01*
X88212730Y-48299215D01*
X88143237Y-48195211D01*
X88054789Y-48106763D01*
X87950785Y-48037270D01*
X87860285Y-47999784D01*
X87894180Y-47989502D01*
X88004494Y-47930537D01*
X88101185Y-47851185D01*
X88180537Y-47754494D01*
X88239502Y-47644180D01*
X88275812Y-47524482D01*
X88288072Y-47400000D01*
X88288072Y-46700000D01*
X88275812Y-46575518D01*
X88239502Y-46455820D01*
X88180537Y-46345506D01*
X88101185Y-46248815D01*
X88004494Y-46169463D01*
X87894180Y-46110498D01*
X87774482Y-46074188D01*
X87650000Y-46061928D01*
X86350000Y-46061928D01*
X86225518Y-46074188D01*
X86105820Y-46110498D01*
X85995506Y-46169463D01*
X85928443Y-46224500D01*
X85627000Y-46224500D01*
X85627000Y-44127000D01*
X99873000Y-44127000D01*
X99873000Y-52111000D01*
G36*
X74727000Y-71223000D02*
X74747000Y-71223000D01*
X74747000Y-71477000D01*
X74727000Y-71477000D01*
X74727000Y-71497000D01*
X74473000Y-71497000D01*
X74473000Y-71477000D01*
X74453000Y-71477000D01*
X74453000Y-71223000D01*
X74473000Y-71223000D01*
X74473000Y-71203000D01*
X74727000Y-71203000D01*
X74727000Y-71223000D01*
X74727000Y-71223000D01*
G37*
X74727000Y-71223000D02*
X74747000Y-71223000D01*
X74747000Y-71477000D01*
X74727000Y-71477000D01*
X74727000Y-71497000D01*
X74473000Y-71497000D01*
X74473000Y-71477000D01*
X74453000Y-71477000D01*
X74453000Y-71223000D01*
X74473000Y-71223000D01*
X74473000Y-71203000D01*
X74727000Y-71203000D01*
X74727000Y-71223000D01*
G36*
X62111928Y-60350000D02*
X62124188Y-60474482D01*
X62160498Y-60594180D01*
X62219463Y-60704494D01*
X62298815Y-60801185D01*
X62361000Y-60852219D01*
X62361001Y-63508764D01*
X60758765Y-65111000D01*
X60127000Y-65111000D01*
X60127000Y-63885000D01*
X60127002Y-63885000D01*
X60127002Y-63731874D01*
X60346056Y-63892744D01*
X60615921Y-63847243D01*
X60871724Y-63749968D01*
X61103634Y-63604658D01*
X61302740Y-63416897D01*
X61461390Y-63193900D01*
X61573487Y-62944236D01*
X61592318Y-62841185D01*
X61469656Y-62627000D01*
X60127000Y-62627000D01*
X60127000Y-62373000D01*
X61469656Y-62373000D01*
X61592318Y-62158815D01*
X61573487Y-62055764D01*
X61461390Y-61806100D01*
X61302740Y-61583103D01*
X61103634Y-61395342D01*
X60871724Y-61250032D01*
X60858698Y-61245079D01*
X61023188Y-61157157D01*
X61234081Y-60984081D01*
X61407157Y-60773188D01*
X61535764Y-60532581D01*
X61614960Y-60271507D01*
X61641701Y-60000000D01*
X61630768Y-59889000D01*
X62111928Y-59889000D01*
X62111928Y-60350000D01*
X62111928Y-60350000D01*
G37*
X62111928Y-60350000D02*
X62124188Y-60474482D01*
X62160498Y-60594180D01*
X62219463Y-60704494D01*
X62298815Y-60801185D01*
X62361000Y-60852219D01*
X62361001Y-63508764D01*
X60758765Y-65111000D01*
X60127000Y-65111000D01*
X60127000Y-63885000D01*
X60127002Y-63885000D01*
X60127002Y-63731874D01*
X60346056Y-63892744D01*
X60615921Y-63847243D01*
X60871724Y-63749968D01*
X61103634Y-63604658D01*
X61302740Y-63416897D01*
X61461390Y-63193900D01*
X61573487Y-62944236D01*
X61592318Y-62841185D01*
X61469656Y-62627000D01*
X60127000Y-62627000D01*
X60127000Y-62373000D01*
X61469656Y-62373000D01*
X61592318Y-62158815D01*
X61573487Y-62055764D01*
X61461390Y-61806100D01*
X61302740Y-61583103D01*
X61103634Y-61395342D01*
X60871724Y-61250032D01*
X60858698Y-61245079D01*
X61023188Y-61157157D01*
X61234081Y-60984081D01*
X61407157Y-60773188D01*
X61535764Y-60532581D01*
X61614960Y-60271507D01*
X61641701Y-60000000D01*
X61630768Y-59889000D01*
X62111928Y-59889000D01*
X62111928Y-60350000D01*
G36*
X99873000Y-55115000D02*
X99872998Y-55115000D01*
X99872998Y-55268126D01*
X99653944Y-55107256D01*
X99384079Y-55152757D01*
X99128276Y-55250032D01*
X98896366Y-55395342D01*
X98697260Y-55583103D01*
X98538610Y-55806100D01*
X98426513Y-56055764D01*
X98407682Y-56158815D01*
X98530344Y-56373000D01*
X99873000Y-56373000D01*
X99873000Y-56627000D01*
X98530344Y-56627000D01*
X98407682Y-56841185D01*
X98426513Y-56944236D01*
X98538610Y-57193900D01*
X98697260Y-57416897D01*
X98896366Y-57604658D01*
X99128276Y-57749968D01*
X99141302Y-57754921D01*
X98976812Y-57842843D01*
X98765919Y-58015919D01*
X98592843Y-58226812D01*
X98464236Y-58467419D01*
X98385040Y-58728493D01*
X98358299Y-59000000D01*
X98369232Y-59111000D01*
X97888072Y-59111000D01*
X97888072Y-58650000D01*
X97875812Y-58525518D01*
X97839502Y-58405820D01*
X97780537Y-58295506D01*
X97701185Y-58198815D01*
X97639000Y-58147781D01*
X97639000Y-56018235D01*
X99768236Y-53889000D01*
X99873000Y-53889000D01*
X99873000Y-55115000D01*
X99873000Y-55115000D01*
G37*
X99873000Y-55115000D02*
X99872998Y-55115000D01*
X99872998Y-55268126D01*
X99653944Y-55107256D01*
X99384079Y-55152757D01*
X99128276Y-55250032D01*
X98896366Y-55395342D01*
X98697260Y-55583103D01*
X98538610Y-55806100D01*
X98426513Y-56055764D01*
X98407682Y-56158815D01*
X98530344Y-56373000D01*
X99873000Y-56373000D01*
X99873000Y-56627000D01*
X98530344Y-56627000D01*
X98407682Y-56841185D01*
X98426513Y-56944236D01*
X98538610Y-57193900D01*
X98697260Y-57416897D01*
X98896366Y-57604658D01*
X99128276Y-57749968D01*
X99141302Y-57754921D01*
X98976812Y-57842843D01*
X98765919Y-58015919D01*
X98592843Y-58226812D01*
X98464236Y-58467419D01*
X98385040Y-58728493D01*
X98358299Y-59000000D01*
X98369232Y-59111000D01*
X97888072Y-59111000D01*
X97888072Y-58650000D01*
X97875812Y-58525518D01*
X97839502Y-58405820D01*
X97780537Y-58295506D01*
X97701185Y-58198815D01*
X97639000Y-58147781D01*
X97639000Y-56018235D01*
X99768236Y-53889000D01*
X99873000Y-53889000D01*
X99873000Y-55115000D01*
G04 #@! TO.N,GNDA*
G36*
X54855915Y-40724365D02*
X54963895Y-40735000D01*
X105036105Y-40735000D01*
X105137075Y-40725055D01*
X105759192Y-40780578D01*
X106494389Y-40981705D01*
X107182351Y-41309846D01*
X107801331Y-41754628D01*
X108331761Y-42301988D01*
X108756884Y-42934639D01*
X109063251Y-43632561D01*
X109242499Y-44379183D01*
X109277143Y-44850946D01*
X109275635Y-44855916D01*
X109265000Y-44963896D01*
X109265001Y-95036105D01*
X109274945Y-95137069D01*
X109219422Y-95759193D01*
X109018295Y-96494389D01*
X108690152Y-97182355D01*
X108245374Y-97801328D01*
X107698012Y-98331761D01*
X107065362Y-98756883D01*
X106367439Y-99063251D01*
X105620819Y-99242499D01*
X105149055Y-99277143D01*
X105144085Y-99275635D01*
X105036105Y-99265000D01*
X101127000Y-99265000D01*
X101127000Y-96989775D01*
X103189830Y-96989775D01*
X103429976Y-97377018D01*
X103923877Y-97637641D01*
X104459133Y-97796901D01*
X105015174Y-97848678D01*
X105570632Y-97790981D01*
X106104161Y-97626028D01*
X106570024Y-97377018D01*
X106810170Y-96989775D01*
X105000000Y-95179605D01*
X103189830Y-96989775D01*
X101127000Y-96989775D01*
X101127000Y-95015174D01*
X102151322Y-95015174D01*
X102209019Y-95570632D01*
X102373972Y-96104161D01*
X102622982Y-96570024D01*
X103010225Y-96810170D01*
X104820395Y-95000000D01*
X105179605Y-95000000D01*
X106989775Y-96810170D01*
X107377018Y-96570024D01*
X107637641Y-96076123D01*
X107796901Y-95540867D01*
X107848678Y-94984826D01*
X107790981Y-94429368D01*
X107626028Y-93895839D01*
X107377018Y-93429976D01*
X106989775Y-93189830D01*
X105179605Y-95000000D01*
X104820395Y-95000000D01*
X103010225Y-93189830D01*
X102622982Y-93429976D01*
X102362359Y-93923877D01*
X102203099Y-94459133D01*
X102151322Y-95015174D01*
X101127000Y-95015174D01*
X101127000Y-93010225D01*
X103189830Y-93010225D01*
X105000000Y-94820395D01*
X106810170Y-93010225D01*
X106570024Y-92622982D01*
X106076123Y-92362359D01*
X105540867Y-92203099D01*
X104984826Y-92151322D01*
X104429368Y-92209019D01*
X103895839Y-92373972D01*
X103429976Y-92622982D01*
X103189830Y-93010225D01*
X101127000Y-93010225D01*
X101127000Y-89762608D01*
X101219998Y-89669610D01*
X101406073Y-90010766D01*
X101823409Y-90226513D01*
X102274815Y-90356696D01*
X102742946Y-90396313D01*
X103209811Y-90343842D01*
X103657468Y-90201297D01*
X104013927Y-90010766D01*
X104200003Y-89669609D01*
X102710000Y-88179605D01*
X102695858Y-88193748D01*
X102516252Y-88014142D01*
X102530395Y-88000000D01*
X102889605Y-88000000D01*
X104379609Y-89490003D01*
X104720766Y-89303927D01*
X104936513Y-88886591D01*
X105066696Y-88435185D01*
X105106313Y-87967054D01*
X105053842Y-87500189D01*
X104911297Y-87052532D01*
X104720766Y-86696073D01*
X104379609Y-86509997D01*
X102889605Y-88000000D01*
X102530395Y-88000000D01*
X102516252Y-87985858D01*
X102695858Y-87806252D01*
X102710000Y-87820395D01*
X104200003Y-86330391D01*
X104013927Y-85989234D01*
X103596591Y-85773487D01*
X103145185Y-85643304D01*
X102677054Y-85603687D01*
X102210189Y-85656158D01*
X101762532Y-85798703D01*
X101406073Y-85989234D01*
X101219998Y-86330390D01*
X101127000Y-86237392D01*
X101127000Y-85571960D01*
X101234081Y-85484081D01*
X101407157Y-85273188D01*
X101535764Y-85032581D01*
X101614960Y-84771507D01*
X101641701Y-84500000D01*
X101614960Y-84228493D01*
X101535764Y-83967419D01*
X101407157Y-83726812D01*
X101234081Y-83515919D01*
X101127000Y-83428040D01*
X101127000Y-83071960D01*
X101234081Y-82984081D01*
X101407157Y-82773188D01*
X101535764Y-82532581D01*
X101614960Y-82271507D01*
X101641701Y-82000000D01*
X101614960Y-81728493D01*
X101535764Y-81467419D01*
X101407157Y-81226812D01*
X101234081Y-81015919D01*
X101214684Y-81000000D01*
X101234081Y-80984081D01*
X101407157Y-80773188D01*
X101535764Y-80532581D01*
X101614960Y-80271507D01*
X101641701Y-80000000D01*
X101614960Y-79728493D01*
X101535764Y-79467419D01*
X101407157Y-79226812D01*
X101234081Y-79015919D01*
X101127000Y-78928040D01*
X101127000Y-78571960D01*
X101234081Y-78484081D01*
X101407157Y-78273188D01*
X101535764Y-78032581D01*
X101614960Y-77771507D01*
X101641701Y-77500000D01*
X101614960Y-77228493D01*
X101535764Y-76967419D01*
X101407157Y-76726812D01*
X101234081Y-76515919D01*
X101127000Y-76428040D01*
X101127000Y-75762608D01*
X101219998Y-75669610D01*
X101406073Y-76010766D01*
X101823409Y-76226513D01*
X102274815Y-76356696D01*
X102742946Y-76396313D01*
X103209811Y-76343842D01*
X103657468Y-76201297D01*
X104013927Y-76010766D01*
X104200003Y-75669609D01*
X102710000Y-74179605D01*
X102695858Y-74193748D01*
X102516252Y-74014142D01*
X102530395Y-74000000D01*
X102889605Y-74000000D01*
X104379609Y-75490003D01*
X104720766Y-75303927D01*
X104936513Y-74886591D01*
X105066696Y-74435185D01*
X105106313Y-73967054D01*
X105053842Y-73500189D01*
X104911297Y-73052532D01*
X104720766Y-72696073D01*
X104379609Y-72509997D01*
X102889605Y-74000000D01*
X102530395Y-74000000D01*
X102516252Y-73985858D01*
X102695858Y-73806252D01*
X102710000Y-73820395D01*
X104200003Y-72330391D01*
X104013927Y-71989234D01*
X103596591Y-71773487D01*
X103145185Y-71643304D01*
X102677054Y-71603687D01*
X102210189Y-71656158D01*
X101762532Y-71798703D01*
X101406073Y-71989234D01*
X101219998Y-72330390D01*
X101127000Y-72237392D01*
X101127000Y-68762608D01*
X101219998Y-68669610D01*
X101406073Y-69010766D01*
X101823409Y-69226513D01*
X102274815Y-69356696D01*
X102742946Y-69396313D01*
X103209811Y-69343842D01*
X103657468Y-69201297D01*
X104013927Y-69010766D01*
X104200003Y-68669609D01*
X102710000Y-67179605D01*
X102695858Y-67193748D01*
X102516252Y-67014142D01*
X102530395Y-67000000D01*
X102889605Y-67000000D01*
X104379609Y-68490003D01*
X104720766Y-68303927D01*
X104936513Y-67886591D01*
X105066696Y-67435185D01*
X105106313Y-66967054D01*
X105053842Y-66500189D01*
X104911297Y-66052532D01*
X104720766Y-65696073D01*
X104379609Y-65509997D01*
X102889605Y-67000000D01*
X102530395Y-67000000D01*
X102516252Y-66985858D01*
X102695858Y-66806252D01*
X102710000Y-66820395D01*
X104200003Y-65330391D01*
X104013927Y-64989234D01*
X103596591Y-64773487D01*
X103145185Y-64643304D01*
X102677054Y-64603687D01*
X102210189Y-64656158D01*
X101762532Y-64798703D01*
X101406073Y-64989234D01*
X101219998Y-65330390D01*
X101127000Y-65237392D01*
X101127000Y-64571960D01*
X101234081Y-64484081D01*
X101407157Y-64273188D01*
X101535764Y-64032581D01*
X101614960Y-63771507D01*
X101641701Y-63500000D01*
X101614960Y-63228493D01*
X101535764Y-62967419D01*
X101407157Y-62726812D01*
X101234081Y-62515919D01*
X101127000Y-62428040D01*
X101127000Y-62071960D01*
X101234081Y-61984081D01*
X101407157Y-61773188D01*
X101535764Y-61532581D01*
X101614960Y-61271507D01*
X101641701Y-61000000D01*
X101614960Y-60728493D01*
X101535764Y-60467419D01*
X101407157Y-60226812D01*
X101234081Y-60015919D01*
X101214684Y-60000000D01*
X101234081Y-59984081D01*
X101407157Y-59773188D01*
X101535764Y-59532581D01*
X101614960Y-59271507D01*
X101641701Y-59000000D01*
X101614960Y-58728493D01*
X101535764Y-58467419D01*
X101407157Y-58226812D01*
X101234081Y-58015919D01*
X101127000Y-57928040D01*
X101127000Y-57571960D01*
X101234081Y-57484081D01*
X101407157Y-57273188D01*
X101535764Y-57032581D01*
X101614960Y-56771507D01*
X101641701Y-56500000D01*
X101614960Y-56228493D01*
X101535764Y-55967419D01*
X101407157Y-55726812D01*
X101234081Y-55515919D01*
X101127000Y-55428040D01*
X101127000Y-54762608D01*
X101219998Y-54669610D01*
X101406073Y-55010766D01*
X101823409Y-55226513D01*
X102274815Y-55356696D01*
X102742946Y-55396313D01*
X103209811Y-55343842D01*
X103657468Y-55201297D01*
X104013927Y-55010766D01*
X104200003Y-54669609D01*
X102710000Y-53179605D01*
X102695858Y-53193748D01*
X102516252Y-53014142D01*
X102530395Y-53000000D01*
X102889605Y-53000000D01*
X104379609Y-54490003D01*
X104720766Y-54303927D01*
X104936513Y-53886591D01*
X105066696Y-53435185D01*
X105106313Y-52967054D01*
X105053842Y-52500189D01*
X104911297Y-52052532D01*
X104720766Y-51696073D01*
X104379609Y-51509997D01*
X102889605Y-53000000D01*
X102530395Y-53000000D01*
X102516252Y-52985858D01*
X102695858Y-52806252D01*
X102710000Y-52820395D01*
X104200003Y-51330391D01*
X104013927Y-50989234D01*
X103596591Y-50773487D01*
X103145185Y-50643304D01*
X102677054Y-50603687D01*
X102210189Y-50656158D01*
X101762532Y-50798703D01*
X101406073Y-50989234D01*
X101219998Y-51330390D01*
X101127000Y-51237392D01*
X101127000Y-46989775D01*
X103189830Y-46989775D01*
X103429976Y-47377018D01*
X103923877Y-47637641D01*
X104459133Y-47796901D01*
X105015174Y-47848678D01*
X105570632Y-47790981D01*
X106104161Y-47626028D01*
X106570024Y-47377018D01*
X106810170Y-46989775D01*
X105000000Y-45179605D01*
X103189830Y-46989775D01*
X101127000Y-46989775D01*
X101127000Y-45015174D01*
X102151322Y-45015174D01*
X102209019Y-45570632D01*
X102373972Y-46104161D01*
X102622982Y-46570024D01*
X103010225Y-46810170D01*
X104820395Y-45000000D01*
X105179605Y-45000000D01*
X106989775Y-46810170D01*
X107377018Y-46570024D01*
X107637641Y-46076123D01*
X107796901Y-45540867D01*
X107848678Y-44984826D01*
X107790981Y-44429368D01*
X107626028Y-43895839D01*
X107377018Y-43429976D01*
X106989775Y-43189830D01*
X105179605Y-45000000D01*
X104820395Y-45000000D01*
X103010225Y-43189830D01*
X102622982Y-43429976D01*
X102362359Y-43923877D01*
X102203099Y-44459133D01*
X102151322Y-45015174D01*
X101127000Y-45015174D01*
X101127000Y-43010225D01*
X103189830Y-43010225D01*
X105000000Y-44820395D01*
X106810170Y-43010225D01*
X106570024Y-42622982D01*
X106076123Y-42362359D01*
X105540867Y-42203099D01*
X104984826Y-42151322D01*
X104429368Y-42209019D01*
X103895839Y-42373972D01*
X103429976Y-42622982D01*
X103189830Y-43010225D01*
X101127000Y-43010225D01*
X101127000Y-42500000D01*
X101124560Y-42475224D01*
X101117333Y-42451399D01*
X101105597Y-42429443D01*
X101089803Y-42410197D01*
X101070557Y-42394403D01*
X101048601Y-42382667D01*
X101024776Y-42375440D01*
X101000000Y-42373000D01*
X85455000Y-42373000D01*
X85455000Y-42173000D01*
X85408415Y-41954013D01*
X85320003Y-41748322D01*
X85193161Y-41563831D01*
X85032764Y-41407631D01*
X84844976Y-41285724D01*
X84621874Y-41205881D01*
X84447000Y-41332046D01*
X84447000Y-42385018D01*
X84429443Y-42394403D01*
X84410197Y-42410197D01*
X84394403Y-42429443D01*
X84382667Y-42451399D01*
X84375440Y-42475224D01*
X84373000Y-42500000D01*
X84373000Y-46873000D01*
X84173000Y-46873000D01*
X84173000Y-46653000D01*
X84193000Y-46653000D01*
X84193000Y-45262046D01*
X84018126Y-45135881D01*
X83795024Y-45215724D01*
X83607236Y-45337631D01*
X83462884Y-45478206D01*
X83344731Y-45399259D01*
X83170022Y-45326892D01*
X82984552Y-45290000D01*
X82795448Y-45290000D01*
X82609978Y-45326892D01*
X82435269Y-45399259D01*
X82278036Y-45504319D01*
X82144319Y-45638036D01*
X82039259Y-45795269D01*
X81966892Y-45969978D01*
X81930000Y-46155448D01*
X81930000Y-46334883D01*
X81900000Y-46331928D01*
X81600000Y-46331928D01*
X81500000Y-46341777D01*
X81400000Y-46331928D01*
X81304367Y-46331928D01*
X81255327Y-46272173D01*
X81228185Y-46249898D01*
X81109102Y-46130815D01*
X81086827Y-46103673D01*
X80978533Y-46014798D01*
X80854981Y-45948758D01*
X80720920Y-45908091D01*
X80616436Y-45897800D01*
X80616426Y-45897800D01*
X80581500Y-45894360D01*
X80546574Y-45897800D01*
X79981428Y-45897800D01*
X79946500Y-45894360D01*
X79911571Y-45897800D01*
X79911564Y-45897800D01*
X79807080Y-45908091D01*
X79673019Y-45948758D01*
X79549467Y-46014798D01*
X79441173Y-46103673D01*
X79418898Y-46130815D01*
X79271811Y-46277902D01*
X79244673Y-46300174D01*
X79218613Y-46331928D01*
X79100000Y-46331928D01*
X79000000Y-46341777D01*
X78900000Y-46331928D01*
X78600000Y-46331928D01*
X78500000Y-46341777D01*
X78400000Y-46331928D01*
X78100000Y-46331928D01*
X78070000Y-46334883D01*
X78070000Y-46155448D01*
X78033108Y-45969978D01*
X77960741Y-45795269D01*
X77855681Y-45638036D01*
X77721964Y-45504319D01*
X77564731Y-45399259D01*
X77390022Y-45326892D01*
X77204552Y-45290000D01*
X77015448Y-45290000D01*
X76829978Y-45326892D01*
X76655269Y-45399259D01*
X76537116Y-45478206D01*
X76392764Y-45337631D01*
X76204976Y-45215724D01*
X75981874Y-45135881D01*
X75807000Y-45262046D01*
X75807000Y-46653000D01*
X75827000Y-46653000D01*
X75827000Y-46873000D01*
X75627000Y-46873000D01*
X75627000Y-42727000D01*
X75807000Y-42727000D01*
X75807000Y-43867954D01*
X75981874Y-43994119D01*
X76204976Y-43914276D01*
X76392764Y-43792369D01*
X76553161Y-43636169D01*
X76680003Y-43451678D01*
X76768415Y-43245987D01*
X76815000Y-43027000D01*
X76815000Y-42727000D01*
X83185000Y-42727000D01*
X83185000Y-43027000D01*
X83231585Y-43245987D01*
X83319997Y-43451678D01*
X83446839Y-43636169D01*
X83607236Y-43792369D01*
X83795024Y-43914276D01*
X84018126Y-43994119D01*
X84193000Y-43867954D01*
X84193000Y-42727000D01*
X83185000Y-42727000D01*
X76815000Y-42727000D01*
X75807000Y-42727000D01*
X75627000Y-42727000D01*
X75627000Y-42500000D01*
X75624560Y-42475224D01*
X75617333Y-42451399D01*
X75605597Y-42429443D01*
X75589803Y-42410197D01*
X75570557Y-42394403D01*
X75553000Y-42385018D01*
X75553000Y-41332046D01*
X75807000Y-41332046D01*
X75807000Y-42473000D01*
X76815000Y-42473000D01*
X76815000Y-42173000D01*
X83185000Y-42173000D01*
X83185000Y-42473000D01*
X84193000Y-42473000D01*
X84193000Y-41332046D01*
X84018126Y-41205881D01*
X83795024Y-41285724D01*
X83607236Y-41407631D01*
X83446839Y-41563831D01*
X83319997Y-41748322D01*
X83231585Y-41954013D01*
X83185000Y-42173000D01*
X76815000Y-42173000D01*
X76768415Y-41954013D01*
X76680003Y-41748322D01*
X76553161Y-41563831D01*
X76392764Y-41407631D01*
X76204976Y-41285724D01*
X75981874Y-41205881D01*
X75807000Y-41332046D01*
X75553000Y-41332046D01*
X75378126Y-41205881D01*
X75155024Y-41285724D01*
X74967236Y-41407631D01*
X74806839Y-41563831D01*
X74679997Y-41748322D01*
X74591585Y-41954013D01*
X74545000Y-42173000D01*
X74545000Y-42373000D01*
X59000000Y-42373000D01*
X58975224Y-42375440D01*
X58951399Y-42382667D01*
X58929443Y-42394403D01*
X58910197Y-42410197D01*
X58894403Y-42429443D01*
X58882667Y-42451399D01*
X58875440Y-42475224D01*
X58873000Y-42500000D01*
X58873000Y-50237392D01*
X58780002Y-50330390D01*
X58593927Y-49989234D01*
X58176591Y-49773487D01*
X57725185Y-49643304D01*
X57257054Y-49603687D01*
X56790189Y-49656158D01*
X56342532Y-49798703D01*
X55986073Y-49989234D01*
X55799997Y-50330391D01*
X57290000Y-51820395D01*
X57304142Y-51806252D01*
X57483748Y-51985858D01*
X57469605Y-52000000D01*
X57483748Y-52014142D01*
X57304142Y-52193748D01*
X57290000Y-52179605D01*
X55799997Y-53669609D01*
X55986073Y-54010766D01*
X56403409Y-54226513D01*
X56854815Y-54356696D01*
X57322946Y-54396313D01*
X57789811Y-54343842D01*
X58237468Y-54201297D01*
X58593927Y-54010766D01*
X58780002Y-53669610D01*
X58873000Y-53762608D01*
X58873000Y-54428040D01*
X58765919Y-54515919D01*
X58592843Y-54726812D01*
X58464236Y-54967419D01*
X58385040Y-55228493D01*
X58358299Y-55500000D01*
X58385040Y-55771507D01*
X58464236Y-56032581D01*
X58592843Y-56273188D01*
X58765919Y-56484081D01*
X58873000Y-56571960D01*
X58873000Y-56928040D01*
X58765919Y-57015919D01*
X58592843Y-57226812D01*
X58464236Y-57467419D01*
X58385040Y-57728493D01*
X58358299Y-58000000D01*
X58385040Y-58271507D01*
X58464236Y-58532581D01*
X58592843Y-58773188D01*
X58765919Y-58984081D01*
X58785316Y-59000000D01*
X58765919Y-59015919D01*
X58592843Y-59226812D01*
X58464236Y-59467419D01*
X58385040Y-59728493D01*
X58358299Y-60000000D01*
X58385040Y-60271507D01*
X58464236Y-60532581D01*
X58592843Y-60773188D01*
X58765919Y-60984081D01*
X58873000Y-61071960D01*
X58873000Y-61428040D01*
X58765919Y-61515919D01*
X58592843Y-61726812D01*
X58464236Y-61967419D01*
X58385040Y-62228493D01*
X58358299Y-62500000D01*
X58385040Y-62771507D01*
X58464236Y-63032581D01*
X58592843Y-63273188D01*
X58765919Y-63484081D01*
X58873000Y-63571960D01*
X58873000Y-64237392D01*
X58780002Y-64330390D01*
X58593927Y-63989234D01*
X58176591Y-63773487D01*
X57725185Y-63643304D01*
X57257054Y-63603687D01*
X56790189Y-63656158D01*
X56342532Y-63798703D01*
X55986073Y-63989234D01*
X55799997Y-64330391D01*
X57290000Y-65820395D01*
X57304142Y-65806252D01*
X57483748Y-65985858D01*
X57469605Y-66000000D01*
X57483748Y-66014142D01*
X57304142Y-66193748D01*
X57290000Y-66179605D01*
X55799997Y-67669609D01*
X55986073Y-68010766D01*
X56403409Y-68226513D01*
X56854815Y-68356696D01*
X57322946Y-68396313D01*
X57789811Y-68343842D01*
X58237468Y-68201297D01*
X58593927Y-68010766D01*
X58780002Y-67669610D01*
X58873000Y-67762608D01*
X58873000Y-72237392D01*
X58780002Y-72330390D01*
X58593927Y-71989234D01*
X58176591Y-71773487D01*
X57725185Y-71643304D01*
X57257054Y-71603687D01*
X56790189Y-71656158D01*
X56342532Y-71798703D01*
X55986073Y-71989234D01*
X55799997Y-72330391D01*
X57290000Y-73820395D01*
X57304142Y-73806252D01*
X57483748Y-73985858D01*
X57469605Y-74000000D01*
X57483748Y-74014142D01*
X57304142Y-74193748D01*
X57290000Y-74179605D01*
X55799997Y-75669609D01*
X55986073Y-76010766D01*
X56403409Y-76226513D01*
X56854815Y-76356696D01*
X57322946Y-76396313D01*
X57789811Y-76343842D01*
X58237468Y-76201297D01*
X58593927Y-76010766D01*
X58780002Y-75669610D01*
X58873000Y-75762608D01*
X58873000Y-76428040D01*
X58765919Y-76515919D01*
X58592843Y-76726812D01*
X58464236Y-76967419D01*
X58385040Y-77228493D01*
X58358299Y-77500000D01*
X58385040Y-77771507D01*
X58464236Y-78032581D01*
X58592843Y-78273188D01*
X58765919Y-78484081D01*
X58873000Y-78571960D01*
X58873000Y-78928040D01*
X58765919Y-79015919D01*
X58592843Y-79226812D01*
X58464236Y-79467419D01*
X58385040Y-79728493D01*
X58358299Y-80000000D01*
X58385040Y-80271507D01*
X58464236Y-80532581D01*
X58592843Y-80773188D01*
X58765919Y-80984081D01*
X58785316Y-81000000D01*
X58765919Y-81015919D01*
X58592843Y-81226812D01*
X58464236Y-81467419D01*
X58385040Y-81728493D01*
X58358299Y-82000000D01*
X58385040Y-82271507D01*
X58464236Y-82532581D01*
X58592843Y-82773188D01*
X58765919Y-82984081D01*
X58873000Y-83071960D01*
X58873000Y-83428040D01*
X58765919Y-83515919D01*
X58592843Y-83726812D01*
X58464236Y-83967419D01*
X58385040Y-84228493D01*
X58358299Y-84500000D01*
X58385040Y-84771507D01*
X58464236Y-85032581D01*
X58592843Y-85273188D01*
X58765919Y-85484081D01*
X58873000Y-85571960D01*
X58873000Y-86237392D01*
X58780002Y-86330390D01*
X58593927Y-85989234D01*
X58176591Y-85773487D01*
X57725185Y-85643304D01*
X57257054Y-85603687D01*
X56790189Y-85656158D01*
X56342532Y-85798703D01*
X55986073Y-85989234D01*
X55799997Y-86330391D01*
X57290000Y-87820395D01*
X57304142Y-87806252D01*
X57483748Y-87985858D01*
X57469605Y-88000000D01*
X57483748Y-88014142D01*
X57304142Y-88193748D01*
X57290000Y-88179605D01*
X55799997Y-89669609D01*
X55986073Y-90010766D01*
X56403409Y-90226513D01*
X56854815Y-90356696D01*
X57322946Y-90396313D01*
X57789811Y-90343842D01*
X58237468Y-90201297D01*
X58593927Y-90010766D01*
X58780002Y-89669610D01*
X58873000Y-89762608D01*
X58873000Y-99265000D01*
X54963895Y-99265000D01*
X54862925Y-99274945D01*
X54240807Y-99219422D01*
X53505611Y-99018295D01*
X52817645Y-98690152D01*
X52198672Y-98245374D01*
X51668239Y-97698012D01*
X51243117Y-97065362D01*
X51209937Y-96989775D01*
X53189830Y-96989775D01*
X53429976Y-97377018D01*
X53923877Y-97637641D01*
X54459133Y-97796901D01*
X55015174Y-97848678D01*
X55570632Y-97790981D01*
X56104161Y-97626028D01*
X56570024Y-97377018D01*
X56810170Y-96989775D01*
X55000000Y-95179605D01*
X53189830Y-96989775D01*
X51209937Y-96989775D01*
X50936749Y-96367439D01*
X50757501Y-95620819D01*
X50722857Y-95149055D01*
X50724365Y-95144085D01*
X50735000Y-95036105D01*
X50735000Y-95015174D01*
X52151322Y-95015174D01*
X52209019Y-95570632D01*
X52373972Y-96104161D01*
X52622982Y-96570024D01*
X53010225Y-96810170D01*
X54820395Y-95000000D01*
X55179605Y-95000000D01*
X56989775Y-96810170D01*
X57377018Y-96570024D01*
X57637641Y-96076123D01*
X57796901Y-95540867D01*
X57848678Y-94984826D01*
X57790981Y-94429368D01*
X57626028Y-93895839D01*
X57377018Y-93429976D01*
X56989775Y-93189830D01*
X55179605Y-95000000D01*
X54820395Y-95000000D01*
X53010225Y-93189830D01*
X52622982Y-93429976D01*
X52362359Y-93923877D01*
X52203099Y-94459133D01*
X52151322Y-95015174D01*
X50735000Y-95015174D01*
X50735000Y-93010225D01*
X53189830Y-93010225D01*
X55000000Y-94820395D01*
X56810170Y-93010225D01*
X56570024Y-92622982D01*
X56076123Y-92362359D01*
X55540867Y-92203099D01*
X54984826Y-92151322D01*
X54429368Y-92209019D01*
X53895839Y-92373972D01*
X53429976Y-92622982D01*
X53189830Y-93010225D01*
X50735000Y-93010225D01*
X50735000Y-88032946D01*
X54893687Y-88032946D01*
X54946158Y-88499811D01*
X55088703Y-88947468D01*
X55279234Y-89303927D01*
X55620391Y-89490003D01*
X57110395Y-88000000D01*
X55620391Y-86509997D01*
X55279234Y-86696073D01*
X55063487Y-87113409D01*
X54933304Y-87564815D01*
X54893687Y-88032946D01*
X50735000Y-88032946D01*
X50735000Y-74032946D01*
X54893687Y-74032946D01*
X54946158Y-74499811D01*
X55088703Y-74947468D01*
X55279234Y-75303927D01*
X55620391Y-75490003D01*
X57110395Y-74000000D01*
X55620391Y-72509997D01*
X55279234Y-72696073D01*
X55063487Y-73113409D01*
X54933304Y-73564815D01*
X54893687Y-74032946D01*
X50735000Y-74032946D01*
X50735000Y-66032946D01*
X54893687Y-66032946D01*
X54946158Y-66499811D01*
X55088703Y-66947468D01*
X55279234Y-67303927D01*
X55620391Y-67490003D01*
X57110395Y-66000000D01*
X55620391Y-64509997D01*
X55279234Y-64696073D01*
X55063487Y-65113409D01*
X54933304Y-65564815D01*
X54893687Y-66032946D01*
X50735000Y-66032946D01*
X50735000Y-52032946D01*
X54893687Y-52032946D01*
X54946158Y-52499811D01*
X55088703Y-52947468D01*
X55279234Y-53303927D01*
X55620391Y-53490003D01*
X57110395Y-52000000D01*
X55620391Y-50509997D01*
X55279234Y-50696073D01*
X55063487Y-51113409D01*
X54933304Y-51564815D01*
X54893687Y-52032946D01*
X50735000Y-52032946D01*
X50735000Y-46989775D01*
X53189830Y-46989775D01*
X53429976Y-47377018D01*
X53923877Y-47637641D01*
X54459133Y-47796901D01*
X55015174Y-47848678D01*
X55570632Y-47790981D01*
X56104161Y-47626028D01*
X56570024Y-47377018D01*
X56810170Y-46989775D01*
X55000000Y-45179605D01*
X53189830Y-46989775D01*
X50735000Y-46989775D01*
X50735000Y-45015174D01*
X52151322Y-45015174D01*
X52209019Y-45570632D01*
X52373972Y-46104161D01*
X52622982Y-46570024D01*
X53010225Y-46810170D01*
X54820395Y-45000000D01*
X55179605Y-45000000D01*
X56989775Y-46810170D01*
X57377018Y-46570024D01*
X57637641Y-46076123D01*
X57796901Y-45540867D01*
X57848678Y-44984826D01*
X57790981Y-44429368D01*
X57626028Y-43895839D01*
X57377018Y-43429976D01*
X56989775Y-43189830D01*
X55179605Y-45000000D01*
X54820395Y-45000000D01*
X53010225Y-43189830D01*
X52622982Y-43429976D01*
X52362359Y-43923877D01*
X52203099Y-44459133D01*
X52151322Y-45015174D01*
X50735000Y-45015174D01*
X50735000Y-44963895D01*
X50725055Y-44862925D01*
X50780578Y-44240808D01*
X50981705Y-43505611D01*
X51217991Y-43010225D01*
X53189830Y-43010225D01*
X55000000Y-44820395D01*
X56810170Y-43010225D01*
X56570024Y-42622982D01*
X56076123Y-42362359D01*
X55540867Y-42203099D01*
X54984826Y-42151322D01*
X54429368Y-42209019D01*
X53895839Y-42373972D01*
X53429976Y-42622982D01*
X53189830Y-43010225D01*
X51217991Y-43010225D01*
X51309846Y-42817649D01*
X51754628Y-42198669D01*
X52301988Y-41668239D01*
X52934639Y-41243116D01*
X53632561Y-40936749D01*
X54379183Y-40757501D01*
X54850945Y-40722857D01*
X54855915Y-40724365D01*
X54855915Y-40724365D01*
G37*
X54855915Y-40724365D02*
X54963895Y-40735000D01*
X105036105Y-40735000D01*
X105137075Y-40725055D01*
X105759192Y-40780578D01*
X106494389Y-40981705D01*
X107182351Y-41309846D01*
X107801331Y-41754628D01*
X108331761Y-42301988D01*
X108756884Y-42934639D01*
X109063251Y-43632561D01*
X109242499Y-44379183D01*
X109277143Y-44850946D01*
X109275635Y-44855916D01*
X109265000Y-44963896D01*
X109265001Y-95036105D01*
X109274945Y-95137069D01*
X109219422Y-95759193D01*
X109018295Y-96494389D01*
X108690152Y-97182355D01*
X108245374Y-97801328D01*
X107698012Y-98331761D01*
X107065362Y-98756883D01*
X106367439Y-99063251D01*
X105620819Y-99242499D01*
X105149055Y-99277143D01*
X105144085Y-99275635D01*
X105036105Y-99265000D01*
X101127000Y-99265000D01*
X101127000Y-96989775D01*
X103189830Y-96989775D01*
X103429976Y-97377018D01*
X103923877Y-97637641D01*
X104459133Y-97796901D01*
X105015174Y-97848678D01*
X105570632Y-97790981D01*
X106104161Y-97626028D01*
X106570024Y-97377018D01*
X106810170Y-96989775D01*
X105000000Y-95179605D01*
X103189830Y-96989775D01*
X101127000Y-96989775D01*
X101127000Y-95015174D01*
X102151322Y-95015174D01*
X102209019Y-95570632D01*
X102373972Y-96104161D01*
X102622982Y-96570024D01*
X103010225Y-96810170D01*
X104820395Y-95000000D01*
X105179605Y-95000000D01*
X106989775Y-96810170D01*
X107377018Y-96570024D01*
X107637641Y-96076123D01*
X107796901Y-95540867D01*
X107848678Y-94984826D01*
X107790981Y-94429368D01*
X107626028Y-93895839D01*
X107377018Y-93429976D01*
X106989775Y-93189830D01*
X105179605Y-95000000D01*
X104820395Y-95000000D01*
X103010225Y-93189830D01*
X102622982Y-93429976D01*
X102362359Y-93923877D01*
X102203099Y-94459133D01*
X102151322Y-95015174D01*
X101127000Y-95015174D01*
X101127000Y-93010225D01*
X103189830Y-93010225D01*
X105000000Y-94820395D01*
X106810170Y-93010225D01*
X106570024Y-92622982D01*
X106076123Y-92362359D01*
X105540867Y-92203099D01*
X104984826Y-92151322D01*
X104429368Y-92209019D01*
X103895839Y-92373972D01*
X103429976Y-92622982D01*
X103189830Y-93010225D01*
X101127000Y-93010225D01*
X101127000Y-89762608D01*
X101219998Y-89669610D01*
X101406073Y-90010766D01*
X101823409Y-90226513D01*
X102274815Y-90356696D01*
X102742946Y-90396313D01*
X103209811Y-90343842D01*
X103657468Y-90201297D01*
X104013927Y-90010766D01*
X104200003Y-89669609D01*
X102710000Y-88179605D01*
X102695858Y-88193748D01*
X102516252Y-88014142D01*
X102530395Y-88000000D01*
X102889605Y-88000000D01*
X104379609Y-89490003D01*
X104720766Y-89303927D01*
X104936513Y-88886591D01*
X105066696Y-88435185D01*
X105106313Y-87967054D01*
X105053842Y-87500189D01*
X104911297Y-87052532D01*
X104720766Y-86696073D01*
X104379609Y-86509997D01*
X102889605Y-88000000D01*
X102530395Y-88000000D01*
X102516252Y-87985858D01*
X102695858Y-87806252D01*
X102710000Y-87820395D01*
X104200003Y-86330391D01*
X104013927Y-85989234D01*
X103596591Y-85773487D01*
X103145185Y-85643304D01*
X102677054Y-85603687D01*
X102210189Y-85656158D01*
X101762532Y-85798703D01*
X101406073Y-85989234D01*
X101219998Y-86330390D01*
X101127000Y-86237392D01*
X101127000Y-85571960D01*
X101234081Y-85484081D01*
X101407157Y-85273188D01*
X101535764Y-85032581D01*
X101614960Y-84771507D01*
X101641701Y-84500000D01*
X101614960Y-84228493D01*
X101535764Y-83967419D01*
X101407157Y-83726812D01*
X101234081Y-83515919D01*
X101127000Y-83428040D01*
X101127000Y-83071960D01*
X101234081Y-82984081D01*
X101407157Y-82773188D01*
X101535764Y-82532581D01*
X101614960Y-82271507D01*
X101641701Y-82000000D01*
X101614960Y-81728493D01*
X101535764Y-81467419D01*
X101407157Y-81226812D01*
X101234081Y-81015919D01*
X101214684Y-81000000D01*
X101234081Y-80984081D01*
X101407157Y-80773188D01*
X101535764Y-80532581D01*
X101614960Y-80271507D01*
X101641701Y-80000000D01*
X101614960Y-79728493D01*
X101535764Y-79467419D01*
X101407157Y-79226812D01*
X101234081Y-79015919D01*
X101127000Y-78928040D01*
X101127000Y-78571960D01*
X101234081Y-78484081D01*
X101407157Y-78273188D01*
X101535764Y-78032581D01*
X101614960Y-77771507D01*
X101641701Y-77500000D01*
X101614960Y-77228493D01*
X101535764Y-76967419D01*
X101407157Y-76726812D01*
X101234081Y-76515919D01*
X101127000Y-76428040D01*
X101127000Y-75762608D01*
X101219998Y-75669610D01*
X101406073Y-76010766D01*
X101823409Y-76226513D01*
X102274815Y-76356696D01*
X102742946Y-76396313D01*
X103209811Y-76343842D01*
X103657468Y-76201297D01*
X104013927Y-76010766D01*
X104200003Y-75669609D01*
X102710000Y-74179605D01*
X102695858Y-74193748D01*
X102516252Y-74014142D01*
X102530395Y-74000000D01*
X102889605Y-74000000D01*
X104379609Y-75490003D01*
X104720766Y-75303927D01*
X104936513Y-74886591D01*
X105066696Y-74435185D01*
X105106313Y-73967054D01*
X105053842Y-73500189D01*
X104911297Y-73052532D01*
X104720766Y-72696073D01*
X104379609Y-72509997D01*
X102889605Y-74000000D01*
X102530395Y-74000000D01*
X102516252Y-73985858D01*
X102695858Y-73806252D01*
X102710000Y-73820395D01*
X104200003Y-72330391D01*
X104013927Y-71989234D01*
X103596591Y-71773487D01*
X103145185Y-71643304D01*
X102677054Y-71603687D01*
X102210189Y-71656158D01*
X101762532Y-71798703D01*
X101406073Y-71989234D01*
X101219998Y-72330390D01*
X101127000Y-72237392D01*
X101127000Y-68762608D01*
X101219998Y-68669610D01*
X101406073Y-69010766D01*
X101823409Y-69226513D01*
X102274815Y-69356696D01*
X102742946Y-69396313D01*
X103209811Y-69343842D01*
X103657468Y-69201297D01*
X104013927Y-69010766D01*
X104200003Y-68669609D01*
X102710000Y-67179605D01*
X102695858Y-67193748D01*
X102516252Y-67014142D01*
X102530395Y-67000000D01*
X102889605Y-67000000D01*
X104379609Y-68490003D01*
X104720766Y-68303927D01*
X104936513Y-67886591D01*
X105066696Y-67435185D01*
X105106313Y-66967054D01*
X105053842Y-66500189D01*
X104911297Y-66052532D01*
X104720766Y-65696073D01*
X104379609Y-65509997D01*
X102889605Y-67000000D01*
X102530395Y-67000000D01*
X102516252Y-66985858D01*
X102695858Y-66806252D01*
X102710000Y-66820395D01*
X104200003Y-65330391D01*
X104013927Y-64989234D01*
X103596591Y-64773487D01*
X103145185Y-64643304D01*
X102677054Y-64603687D01*
X102210189Y-64656158D01*
X101762532Y-64798703D01*
X101406073Y-64989234D01*
X101219998Y-65330390D01*
X101127000Y-65237392D01*
X101127000Y-64571960D01*
X101234081Y-64484081D01*
X101407157Y-64273188D01*
X101535764Y-64032581D01*
X101614960Y-63771507D01*
X101641701Y-63500000D01*
X101614960Y-63228493D01*
X101535764Y-62967419D01*
X101407157Y-62726812D01*
X101234081Y-62515919D01*
X101127000Y-62428040D01*
X101127000Y-62071960D01*
X101234081Y-61984081D01*
X101407157Y-61773188D01*
X101535764Y-61532581D01*
X101614960Y-61271507D01*
X101641701Y-61000000D01*
X101614960Y-60728493D01*
X101535764Y-60467419D01*
X101407157Y-60226812D01*
X101234081Y-60015919D01*
X101214684Y-60000000D01*
X101234081Y-59984081D01*
X101407157Y-59773188D01*
X101535764Y-59532581D01*
X101614960Y-59271507D01*
X101641701Y-59000000D01*
X101614960Y-58728493D01*
X101535764Y-58467419D01*
X101407157Y-58226812D01*
X101234081Y-58015919D01*
X101127000Y-57928040D01*
X101127000Y-57571960D01*
X101234081Y-57484081D01*
X101407157Y-57273188D01*
X101535764Y-57032581D01*
X101614960Y-56771507D01*
X101641701Y-56500000D01*
X101614960Y-56228493D01*
X101535764Y-55967419D01*
X101407157Y-55726812D01*
X101234081Y-55515919D01*
X101127000Y-55428040D01*
X101127000Y-54762608D01*
X101219998Y-54669610D01*
X101406073Y-55010766D01*
X101823409Y-55226513D01*
X102274815Y-55356696D01*
X102742946Y-55396313D01*
X103209811Y-55343842D01*
X103657468Y-55201297D01*
X104013927Y-55010766D01*
X104200003Y-54669609D01*
X102710000Y-53179605D01*
X102695858Y-53193748D01*
X102516252Y-53014142D01*
X102530395Y-53000000D01*
X102889605Y-53000000D01*
X104379609Y-54490003D01*
X104720766Y-54303927D01*
X104936513Y-53886591D01*
X105066696Y-53435185D01*
X105106313Y-52967054D01*
X105053842Y-52500189D01*
X104911297Y-52052532D01*
X104720766Y-51696073D01*
X104379609Y-51509997D01*
X102889605Y-53000000D01*
X102530395Y-53000000D01*
X102516252Y-52985858D01*
X102695858Y-52806252D01*
X102710000Y-52820395D01*
X104200003Y-51330391D01*
X104013927Y-50989234D01*
X103596591Y-50773487D01*
X103145185Y-50643304D01*
X102677054Y-50603687D01*
X102210189Y-50656158D01*
X101762532Y-50798703D01*
X101406073Y-50989234D01*
X101219998Y-51330390D01*
X101127000Y-51237392D01*
X101127000Y-46989775D01*
X103189830Y-46989775D01*
X103429976Y-47377018D01*
X103923877Y-47637641D01*
X104459133Y-47796901D01*
X105015174Y-47848678D01*
X105570632Y-47790981D01*
X106104161Y-47626028D01*
X106570024Y-47377018D01*
X106810170Y-46989775D01*
X105000000Y-45179605D01*
X103189830Y-46989775D01*
X101127000Y-46989775D01*
X101127000Y-45015174D01*
X102151322Y-45015174D01*
X102209019Y-45570632D01*
X102373972Y-46104161D01*
X102622982Y-46570024D01*
X103010225Y-46810170D01*
X104820395Y-45000000D01*
X105179605Y-45000000D01*
X106989775Y-46810170D01*
X107377018Y-46570024D01*
X107637641Y-46076123D01*
X107796901Y-45540867D01*
X107848678Y-44984826D01*
X107790981Y-44429368D01*
X107626028Y-43895839D01*
X107377018Y-43429976D01*
X106989775Y-43189830D01*
X105179605Y-45000000D01*
X104820395Y-45000000D01*
X103010225Y-43189830D01*
X102622982Y-43429976D01*
X102362359Y-43923877D01*
X102203099Y-44459133D01*
X102151322Y-45015174D01*
X101127000Y-45015174D01*
X101127000Y-43010225D01*
X103189830Y-43010225D01*
X105000000Y-44820395D01*
X106810170Y-43010225D01*
X106570024Y-42622982D01*
X106076123Y-42362359D01*
X105540867Y-42203099D01*
X104984826Y-42151322D01*
X104429368Y-42209019D01*
X103895839Y-42373972D01*
X103429976Y-42622982D01*
X103189830Y-43010225D01*
X101127000Y-43010225D01*
X101127000Y-42500000D01*
X101124560Y-42475224D01*
X101117333Y-42451399D01*
X101105597Y-42429443D01*
X101089803Y-42410197D01*
X101070557Y-42394403D01*
X101048601Y-42382667D01*
X101024776Y-42375440D01*
X101000000Y-42373000D01*
X85455000Y-42373000D01*
X85455000Y-42173000D01*
X85408415Y-41954013D01*
X85320003Y-41748322D01*
X85193161Y-41563831D01*
X85032764Y-41407631D01*
X84844976Y-41285724D01*
X84621874Y-41205881D01*
X84447000Y-41332046D01*
X84447000Y-42385018D01*
X84429443Y-42394403D01*
X84410197Y-42410197D01*
X84394403Y-42429443D01*
X84382667Y-42451399D01*
X84375440Y-42475224D01*
X84373000Y-42500000D01*
X84373000Y-46873000D01*
X84173000Y-46873000D01*
X84173000Y-46653000D01*
X84193000Y-46653000D01*
X84193000Y-45262046D01*
X84018126Y-45135881D01*
X83795024Y-45215724D01*
X83607236Y-45337631D01*
X83462884Y-45478206D01*
X83344731Y-45399259D01*
X83170022Y-45326892D01*
X82984552Y-45290000D01*
X82795448Y-45290000D01*
X82609978Y-45326892D01*
X82435269Y-45399259D01*
X82278036Y-45504319D01*
X82144319Y-45638036D01*
X82039259Y-45795269D01*
X81966892Y-45969978D01*
X81930000Y-46155448D01*
X81930000Y-46334883D01*
X81900000Y-46331928D01*
X81600000Y-46331928D01*
X81500000Y-46341777D01*
X81400000Y-46331928D01*
X81304367Y-46331928D01*
X81255327Y-46272173D01*
X81228185Y-46249898D01*
X81109102Y-46130815D01*
X81086827Y-46103673D01*
X80978533Y-46014798D01*
X80854981Y-45948758D01*
X80720920Y-45908091D01*
X80616436Y-45897800D01*
X80616426Y-45897800D01*
X80581500Y-45894360D01*
X80546574Y-45897800D01*
X79981428Y-45897800D01*
X79946500Y-45894360D01*
X79911571Y-45897800D01*
X79911564Y-45897800D01*
X79807080Y-45908091D01*
X79673019Y-45948758D01*
X79549467Y-46014798D01*
X79441173Y-46103673D01*
X79418898Y-46130815D01*
X79271811Y-46277902D01*
X79244673Y-46300174D01*
X79218613Y-46331928D01*
X79100000Y-46331928D01*
X79000000Y-46341777D01*
X78900000Y-46331928D01*
X78600000Y-46331928D01*
X78500000Y-46341777D01*
X78400000Y-46331928D01*
X78100000Y-46331928D01*
X78070000Y-46334883D01*
X78070000Y-46155448D01*
X78033108Y-45969978D01*
X77960741Y-45795269D01*
X77855681Y-45638036D01*
X77721964Y-45504319D01*
X77564731Y-45399259D01*
X77390022Y-45326892D01*
X77204552Y-45290000D01*
X77015448Y-45290000D01*
X76829978Y-45326892D01*
X76655269Y-45399259D01*
X76537116Y-45478206D01*
X76392764Y-45337631D01*
X76204976Y-45215724D01*
X75981874Y-45135881D01*
X75807000Y-45262046D01*
X75807000Y-46653000D01*
X75827000Y-46653000D01*
X75827000Y-46873000D01*
X75627000Y-46873000D01*
X75627000Y-42727000D01*
X75807000Y-42727000D01*
X75807000Y-43867954D01*
X75981874Y-43994119D01*
X76204976Y-43914276D01*
X76392764Y-43792369D01*
X76553161Y-43636169D01*
X76680003Y-43451678D01*
X76768415Y-43245987D01*
X76815000Y-43027000D01*
X76815000Y-42727000D01*
X83185000Y-42727000D01*
X83185000Y-43027000D01*
X83231585Y-43245987D01*
X83319997Y-43451678D01*
X83446839Y-43636169D01*
X83607236Y-43792369D01*
X83795024Y-43914276D01*
X84018126Y-43994119D01*
X84193000Y-43867954D01*
X84193000Y-42727000D01*
X83185000Y-42727000D01*
X76815000Y-42727000D01*
X75807000Y-42727000D01*
X75627000Y-42727000D01*
X75627000Y-42500000D01*
X75624560Y-42475224D01*
X75617333Y-42451399D01*
X75605597Y-42429443D01*
X75589803Y-42410197D01*
X75570557Y-42394403D01*
X75553000Y-42385018D01*
X75553000Y-41332046D01*
X75807000Y-41332046D01*
X75807000Y-42473000D01*
X76815000Y-42473000D01*
X76815000Y-42173000D01*
X83185000Y-42173000D01*
X83185000Y-42473000D01*
X84193000Y-42473000D01*
X84193000Y-41332046D01*
X84018126Y-41205881D01*
X83795024Y-41285724D01*
X83607236Y-41407631D01*
X83446839Y-41563831D01*
X83319997Y-41748322D01*
X83231585Y-41954013D01*
X83185000Y-42173000D01*
X76815000Y-42173000D01*
X76768415Y-41954013D01*
X76680003Y-41748322D01*
X76553161Y-41563831D01*
X76392764Y-41407631D01*
X76204976Y-41285724D01*
X75981874Y-41205881D01*
X75807000Y-41332046D01*
X75553000Y-41332046D01*
X75378126Y-41205881D01*
X75155024Y-41285724D01*
X74967236Y-41407631D01*
X74806839Y-41563831D01*
X74679997Y-41748322D01*
X74591585Y-41954013D01*
X74545000Y-42173000D01*
X74545000Y-42373000D01*
X59000000Y-42373000D01*
X58975224Y-42375440D01*
X58951399Y-42382667D01*
X58929443Y-42394403D01*
X58910197Y-42410197D01*
X58894403Y-42429443D01*
X58882667Y-42451399D01*
X58875440Y-42475224D01*
X58873000Y-42500000D01*
X58873000Y-50237392D01*
X58780002Y-50330390D01*
X58593927Y-49989234D01*
X58176591Y-49773487D01*
X57725185Y-49643304D01*
X57257054Y-49603687D01*
X56790189Y-49656158D01*
X56342532Y-49798703D01*
X55986073Y-49989234D01*
X55799997Y-50330391D01*
X57290000Y-51820395D01*
X57304142Y-51806252D01*
X57483748Y-51985858D01*
X57469605Y-52000000D01*
X57483748Y-52014142D01*
X57304142Y-52193748D01*
X57290000Y-52179605D01*
X55799997Y-53669609D01*
X55986073Y-54010766D01*
X56403409Y-54226513D01*
X56854815Y-54356696D01*
X57322946Y-54396313D01*
X57789811Y-54343842D01*
X58237468Y-54201297D01*
X58593927Y-54010766D01*
X58780002Y-53669610D01*
X58873000Y-53762608D01*
X58873000Y-54428040D01*
X58765919Y-54515919D01*
X58592843Y-54726812D01*
X58464236Y-54967419D01*
X58385040Y-55228493D01*
X58358299Y-55500000D01*
X58385040Y-55771507D01*
X58464236Y-56032581D01*
X58592843Y-56273188D01*
X58765919Y-56484081D01*
X58873000Y-56571960D01*
X58873000Y-56928040D01*
X58765919Y-57015919D01*
X58592843Y-57226812D01*
X58464236Y-57467419D01*
X58385040Y-57728493D01*
X58358299Y-58000000D01*
X58385040Y-58271507D01*
X58464236Y-58532581D01*
X58592843Y-58773188D01*
X58765919Y-58984081D01*
X58785316Y-59000000D01*
X58765919Y-59015919D01*
X58592843Y-59226812D01*
X58464236Y-59467419D01*
X58385040Y-59728493D01*
X58358299Y-60000000D01*
X58385040Y-60271507D01*
X58464236Y-60532581D01*
X58592843Y-60773188D01*
X58765919Y-60984081D01*
X58873000Y-61071960D01*
X58873000Y-61428040D01*
X58765919Y-61515919D01*
X58592843Y-61726812D01*
X58464236Y-61967419D01*
X58385040Y-62228493D01*
X58358299Y-62500000D01*
X58385040Y-62771507D01*
X58464236Y-63032581D01*
X58592843Y-63273188D01*
X58765919Y-63484081D01*
X58873000Y-63571960D01*
X58873000Y-64237392D01*
X58780002Y-64330390D01*
X58593927Y-63989234D01*
X58176591Y-63773487D01*
X57725185Y-63643304D01*
X57257054Y-63603687D01*
X56790189Y-63656158D01*
X56342532Y-63798703D01*
X55986073Y-63989234D01*
X55799997Y-64330391D01*
X57290000Y-65820395D01*
X57304142Y-65806252D01*
X57483748Y-65985858D01*
X57469605Y-66000000D01*
X57483748Y-66014142D01*
X57304142Y-66193748D01*
X57290000Y-66179605D01*
X55799997Y-67669609D01*
X55986073Y-68010766D01*
X56403409Y-68226513D01*
X56854815Y-68356696D01*
X57322946Y-68396313D01*
X57789811Y-68343842D01*
X58237468Y-68201297D01*
X58593927Y-68010766D01*
X58780002Y-67669610D01*
X58873000Y-67762608D01*
X58873000Y-72237392D01*
X58780002Y-72330390D01*
X58593927Y-71989234D01*
X58176591Y-71773487D01*
X57725185Y-71643304D01*
X57257054Y-71603687D01*
X56790189Y-71656158D01*
X56342532Y-71798703D01*
X55986073Y-71989234D01*
X55799997Y-72330391D01*
X57290000Y-73820395D01*
X57304142Y-73806252D01*
X57483748Y-73985858D01*
X57469605Y-74000000D01*
X57483748Y-74014142D01*
X57304142Y-74193748D01*
X57290000Y-74179605D01*
X55799997Y-75669609D01*
X55986073Y-76010766D01*
X56403409Y-76226513D01*
X56854815Y-76356696D01*
X57322946Y-76396313D01*
X57789811Y-76343842D01*
X58237468Y-76201297D01*
X58593927Y-76010766D01*
X58780002Y-75669610D01*
X58873000Y-75762608D01*
X58873000Y-76428040D01*
X58765919Y-76515919D01*
X58592843Y-76726812D01*
X58464236Y-76967419D01*
X58385040Y-77228493D01*
X58358299Y-77500000D01*
X58385040Y-77771507D01*
X58464236Y-78032581D01*
X58592843Y-78273188D01*
X58765919Y-78484081D01*
X58873000Y-78571960D01*
X58873000Y-78928040D01*
X58765919Y-79015919D01*
X58592843Y-79226812D01*
X58464236Y-79467419D01*
X58385040Y-79728493D01*
X58358299Y-80000000D01*
X58385040Y-80271507D01*
X58464236Y-80532581D01*
X58592843Y-80773188D01*
X58765919Y-80984081D01*
X58785316Y-81000000D01*
X58765919Y-81015919D01*
X58592843Y-81226812D01*
X58464236Y-81467419D01*
X58385040Y-81728493D01*
X58358299Y-82000000D01*
X58385040Y-82271507D01*
X58464236Y-82532581D01*
X58592843Y-82773188D01*
X58765919Y-82984081D01*
X58873000Y-83071960D01*
X58873000Y-83428040D01*
X58765919Y-83515919D01*
X58592843Y-83726812D01*
X58464236Y-83967419D01*
X58385040Y-84228493D01*
X58358299Y-84500000D01*
X58385040Y-84771507D01*
X58464236Y-85032581D01*
X58592843Y-85273188D01*
X58765919Y-85484081D01*
X58873000Y-85571960D01*
X58873000Y-86237392D01*
X58780002Y-86330390D01*
X58593927Y-85989234D01*
X58176591Y-85773487D01*
X57725185Y-85643304D01*
X57257054Y-85603687D01*
X56790189Y-85656158D01*
X56342532Y-85798703D01*
X55986073Y-85989234D01*
X55799997Y-86330391D01*
X57290000Y-87820395D01*
X57304142Y-87806252D01*
X57483748Y-87985858D01*
X57469605Y-88000000D01*
X57483748Y-88014142D01*
X57304142Y-88193748D01*
X57290000Y-88179605D01*
X55799997Y-89669609D01*
X55986073Y-90010766D01*
X56403409Y-90226513D01*
X56854815Y-90356696D01*
X57322946Y-90396313D01*
X57789811Y-90343842D01*
X58237468Y-90201297D01*
X58593927Y-90010766D01*
X58780002Y-89669610D01*
X58873000Y-89762608D01*
X58873000Y-99265000D01*
X54963895Y-99265000D01*
X54862925Y-99274945D01*
X54240807Y-99219422D01*
X53505611Y-99018295D01*
X52817645Y-98690152D01*
X52198672Y-98245374D01*
X51668239Y-97698012D01*
X51243117Y-97065362D01*
X51209937Y-96989775D01*
X53189830Y-96989775D01*
X53429976Y-97377018D01*
X53923877Y-97637641D01*
X54459133Y-97796901D01*
X55015174Y-97848678D01*
X55570632Y-97790981D01*
X56104161Y-97626028D01*
X56570024Y-97377018D01*
X56810170Y-96989775D01*
X55000000Y-95179605D01*
X53189830Y-96989775D01*
X51209937Y-96989775D01*
X50936749Y-96367439D01*
X50757501Y-95620819D01*
X50722857Y-95149055D01*
X50724365Y-95144085D01*
X50735000Y-95036105D01*
X50735000Y-95015174D01*
X52151322Y-95015174D01*
X52209019Y-95570632D01*
X52373972Y-96104161D01*
X52622982Y-96570024D01*
X53010225Y-96810170D01*
X54820395Y-95000000D01*
X55179605Y-95000000D01*
X56989775Y-96810170D01*
X57377018Y-96570024D01*
X57637641Y-96076123D01*
X57796901Y-95540867D01*
X57848678Y-94984826D01*
X57790981Y-94429368D01*
X57626028Y-93895839D01*
X57377018Y-93429976D01*
X56989775Y-93189830D01*
X55179605Y-95000000D01*
X54820395Y-95000000D01*
X53010225Y-93189830D01*
X52622982Y-93429976D01*
X52362359Y-93923877D01*
X52203099Y-94459133D01*
X52151322Y-95015174D01*
X50735000Y-95015174D01*
X50735000Y-93010225D01*
X53189830Y-93010225D01*
X55000000Y-94820395D01*
X56810170Y-93010225D01*
X56570024Y-92622982D01*
X56076123Y-92362359D01*
X55540867Y-92203099D01*
X54984826Y-92151322D01*
X54429368Y-92209019D01*
X53895839Y-92373972D01*
X53429976Y-92622982D01*
X53189830Y-93010225D01*
X50735000Y-93010225D01*
X50735000Y-88032946D01*
X54893687Y-88032946D01*
X54946158Y-88499811D01*
X55088703Y-88947468D01*
X55279234Y-89303927D01*
X55620391Y-89490003D01*
X57110395Y-88000000D01*
X55620391Y-86509997D01*
X55279234Y-86696073D01*
X55063487Y-87113409D01*
X54933304Y-87564815D01*
X54893687Y-88032946D01*
X50735000Y-88032946D01*
X50735000Y-74032946D01*
X54893687Y-74032946D01*
X54946158Y-74499811D01*
X55088703Y-74947468D01*
X55279234Y-75303927D01*
X55620391Y-75490003D01*
X57110395Y-74000000D01*
X55620391Y-72509997D01*
X55279234Y-72696073D01*
X55063487Y-73113409D01*
X54933304Y-73564815D01*
X54893687Y-74032946D01*
X50735000Y-74032946D01*
X50735000Y-66032946D01*
X54893687Y-66032946D01*
X54946158Y-66499811D01*
X55088703Y-66947468D01*
X55279234Y-67303927D01*
X55620391Y-67490003D01*
X57110395Y-66000000D01*
X55620391Y-64509997D01*
X55279234Y-64696073D01*
X55063487Y-65113409D01*
X54933304Y-65564815D01*
X54893687Y-66032946D01*
X50735000Y-66032946D01*
X50735000Y-52032946D01*
X54893687Y-52032946D01*
X54946158Y-52499811D01*
X55088703Y-52947468D01*
X55279234Y-53303927D01*
X55620391Y-53490003D01*
X57110395Y-52000000D01*
X55620391Y-50509997D01*
X55279234Y-50696073D01*
X55063487Y-51113409D01*
X54933304Y-51564815D01*
X54893687Y-52032946D01*
X50735000Y-52032946D01*
X50735000Y-46989775D01*
X53189830Y-46989775D01*
X53429976Y-47377018D01*
X53923877Y-47637641D01*
X54459133Y-47796901D01*
X55015174Y-47848678D01*
X55570632Y-47790981D01*
X56104161Y-47626028D01*
X56570024Y-47377018D01*
X56810170Y-46989775D01*
X55000000Y-45179605D01*
X53189830Y-46989775D01*
X50735000Y-46989775D01*
X50735000Y-45015174D01*
X52151322Y-45015174D01*
X52209019Y-45570632D01*
X52373972Y-46104161D01*
X52622982Y-46570024D01*
X53010225Y-46810170D01*
X54820395Y-45000000D01*
X55179605Y-45000000D01*
X56989775Y-46810170D01*
X57377018Y-46570024D01*
X57637641Y-46076123D01*
X57796901Y-45540867D01*
X57848678Y-44984826D01*
X57790981Y-44429368D01*
X57626028Y-43895839D01*
X57377018Y-43429976D01*
X56989775Y-43189830D01*
X55179605Y-45000000D01*
X54820395Y-45000000D01*
X53010225Y-43189830D01*
X52622982Y-43429976D01*
X52362359Y-43923877D01*
X52203099Y-44459133D01*
X52151322Y-45015174D01*
X50735000Y-45015174D01*
X50735000Y-44963895D01*
X50725055Y-44862925D01*
X50780578Y-44240808D01*
X50981705Y-43505611D01*
X51217991Y-43010225D01*
X53189830Y-43010225D01*
X55000000Y-44820395D01*
X56810170Y-43010225D01*
X56570024Y-42622982D01*
X56076123Y-42362359D01*
X55540867Y-42203099D01*
X54984826Y-42151322D01*
X54429368Y-42209019D01*
X53895839Y-42373972D01*
X53429976Y-42622982D01*
X53189830Y-43010225D01*
X51217991Y-43010225D01*
X51309846Y-42817649D01*
X51754628Y-42198669D01*
X52301988Y-41668239D01*
X52934639Y-41243116D01*
X53632561Y-40936749D01*
X54379183Y-40757501D01*
X54850945Y-40722857D01*
X54855915Y-40724365D01*
G04 #@! TD*
M02*
