G04 #@! TF.GenerationSoftware,KiCad,Pcbnew,(5.0.2)-1*
G04 #@! TF.CreationDate,2019-03-25T01:50:17-07:00*
G04 #@! TF.ProjectId,Orion,4f72696f-6e2e-46b6-9963-61645f706362,rev?*
G04 #@! TF.SameCoordinates,Original*
G04 #@! TF.FileFunction,Legend,Top*
G04 #@! TF.FilePolarity,Positive*
%FSLAX46Y46*%
G04 Gerber Fmt 4.6, Leading zero omitted, Abs format (unit mm)*
G04 Created by KiCad (PCBNEW (5.0.2)-1) date 3/25/2019 1:50:17 AM*
%MOMM*%
%LPD*%
G01*
G04 APERTURE LIST*
%ADD10C,0.200000*%
%ADD11C,0.300000*%
%ADD12C,0.500000*%
%ADD13C,0.120000*%
%ADD14C,0.150000*%
%ADD15C,0.010000*%
%ADD16R,2.052000X2.602000*%
%ADD17R,1.102000X1.352000*%
%ADD18R,2.602000X2.052000*%
%ADD19O,2.102000X1.602000*%
%ADD20C,3.602000*%
%ADD21R,1.402000X0.802000*%
%ADD22R,0.502000X1.302000*%
%ADD23O,1.102000X1.702000*%
%ADD24O,1.102000X2.202000*%
%ADD25C,0.752000*%
%ADD26R,0.402000X1.552000*%
%ADD27R,0.702000X1.552000*%
%ADD28R,1.502000X1.302000*%
%ADD29R,0.802000X0.702000*%
%ADD30R,0.802000X1.102000*%
%ADD31R,2.132000X1.242000*%
%ADD32C,4.502000*%
%ADD33C,0.802000*%
G04 APERTURE END LIST*
D10*
X74750000Y-66500000D02*
G75*
G03X74750000Y-66500000I-250000J0D01*
G01*
D11*
X69500000Y-79678571D02*
X69500000Y-80892857D01*
X69571428Y-81035714D01*
X69642857Y-81107142D01*
X69785714Y-81178571D01*
X70071428Y-81178571D01*
X70214285Y-81107142D01*
X70285714Y-81035714D01*
X70357142Y-80892857D01*
X70357142Y-79678571D01*
X71000000Y-81107142D02*
X71214285Y-81178571D01*
X71571428Y-81178571D01*
X71714285Y-81107142D01*
X71785714Y-81035714D01*
X71857142Y-80892857D01*
X71857142Y-80750000D01*
X71785714Y-80607142D01*
X71714285Y-80535714D01*
X71571428Y-80464285D01*
X71285714Y-80392857D01*
X71142857Y-80321428D01*
X71071428Y-80250000D01*
X71000000Y-80107142D01*
X71000000Y-79964285D01*
X71071428Y-79821428D01*
X71142857Y-79750000D01*
X71285714Y-79678571D01*
X71642857Y-79678571D01*
X71857142Y-79750000D01*
X73000000Y-80392857D02*
X73214285Y-80464285D01*
X73285714Y-80535714D01*
X73357142Y-80678571D01*
X73357142Y-80892857D01*
X73285714Y-81035714D01*
X73214285Y-81107142D01*
X73071428Y-81178571D01*
X72500000Y-81178571D01*
X72500000Y-79678571D01*
X73000000Y-79678571D01*
X73142857Y-79750000D01*
X73214285Y-79821428D01*
X73285714Y-79964285D01*
X73285714Y-80107142D01*
X73214285Y-80250000D01*
X73142857Y-80321428D01*
X73000000Y-80392857D01*
X72500000Y-80392857D01*
X75142857Y-81178571D02*
X75142857Y-79678571D01*
X75142857Y-80392857D02*
X76000000Y-80392857D01*
X76000000Y-81178571D02*
X76000000Y-79678571D01*
X77357142Y-80178571D02*
X77357142Y-81178571D01*
X76714285Y-80178571D02*
X76714285Y-80964285D01*
X76785714Y-81107142D01*
X76928571Y-81178571D01*
X77142857Y-81178571D01*
X77285714Y-81107142D01*
X77357142Y-81035714D01*
X78071428Y-81178571D02*
X78071428Y-79678571D01*
X78071428Y-80250000D02*
X78214285Y-80178571D01*
X78500000Y-80178571D01*
X78642857Y-80250000D01*
X78714285Y-80321428D01*
X78785714Y-80464285D01*
X78785714Y-80892857D01*
X78714285Y-81035714D01*
X78642857Y-81107142D01*
X78500000Y-81178571D01*
X78214285Y-81178571D01*
X78071428Y-81107142D01*
X80571428Y-81178571D02*
X80571428Y-79678571D01*
X81142857Y-79678571D01*
X81285714Y-79750000D01*
X81357142Y-79821428D01*
X81428571Y-79964285D01*
X81428571Y-80178571D01*
X81357142Y-80321428D01*
X81285714Y-80392857D01*
X81142857Y-80464285D01*
X80571428Y-80464285D01*
X82071428Y-81178571D02*
X82071428Y-80178571D01*
X82071428Y-80464285D02*
X82142857Y-80321428D01*
X82214285Y-80250000D01*
X82357142Y-80178571D01*
X82500000Y-80178571D01*
X83214285Y-81178571D02*
X83071428Y-81107142D01*
X83000000Y-81035714D01*
X82928571Y-80892857D01*
X82928571Y-80464285D01*
X83000000Y-80321428D01*
X83071428Y-80250000D01*
X83214285Y-80178571D01*
X83428571Y-80178571D01*
X83571428Y-80250000D01*
X83642857Y-80321428D01*
X83714285Y-80464285D01*
X83714285Y-80892857D01*
X83642857Y-81035714D01*
X83571428Y-81107142D01*
X83428571Y-81178571D01*
X83214285Y-81178571D01*
X84142857Y-80178571D02*
X84714285Y-80178571D01*
X84357142Y-79678571D02*
X84357142Y-80964285D01*
X84428571Y-81107142D01*
X84571428Y-81178571D01*
X84714285Y-81178571D01*
X85428571Y-81178571D02*
X85285714Y-81107142D01*
X85214285Y-81035714D01*
X85142857Y-80892857D01*
X85142857Y-80464285D01*
X85214285Y-80321428D01*
X85285714Y-80250000D01*
X85428571Y-80178571D01*
X85642857Y-80178571D01*
X85785714Y-80250000D01*
X85857142Y-80321428D01*
X85928571Y-80464285D01*
X85928571Y-80892857D01*
X85857142Y-81035714D01*
X85785714Y-81107142D01*
X85642857Y-81178571D01*
X85428571Y-81178571D01*
X86357142Y-80178571D02*
X86928571Y-80178571D01*
X86571428Y-79678571D02*
X86571428Y-80964285D01*
X86642857Y-81107142D01*
X86785714Y-81178571D01*
X86928571Y-81178571D01*
X87285714Y-80178571D02*
X87642857Y-81178571D01*
X88000000Y-80178571D02*
X87642857Y-81178571D01*
X87500000Y-81535714D01*
X87428571Y-81607142D01*
X87285714Y-81678571D01*
X88571428Y-80178571D02*
X88571428Y-81678571D01*
X88571428Y-80250000D02*
X88714285Y-80178571D01*
X89000000Y-80178571D01*
X89142857Y-80250000D01*
X89214285Y-80321428D01*
X89285714Y-80464285D01*
X89285714Y-80892857D01*
X89214285Y-81035714D01*
X89142857Y-81107142D01*
X89000000Y-81178571D01*
X88714285Y-81178571D01*
X88571428Y-81107142D01*
X90500000Y-81107142D02*
X90357142Y-81178571D01*
X90071428Y-81178571D01*
X89928571Y-81107142D01*
X89857142Y-80964285D01*
X89857142Y-80392857D01*
X89928571Y-80250000D01*
X90071428Y-80178571D01*
X90357142Y-80178571D01*
X90500000Y-80250000D01*
X90571428Y-80392857D01*
X90571428Y-80535714D01*
X89857142Y-80678571D01*
D12*
X74357142Y-74857142D02*
X74928571Y-74857142D01*
X75214285Y-75000000D01*
X75500000Y-75285714D01*
X75642857Y-75857142D01*
X75642857Y-76857142D01*
X75500000Y-77428571D01*
X75214285Y-77714285D01*
X74928571Y-77857142D01*
X74357142Y-77857142D01*
X74071428Y-77714285D01*
X73785714Y-77428571D01*
X73642857Y-76857142D01*
X73642857Y-75857142D01*
X73785714Y-75285714D01*
X74071428Y-75000000D01*
X74357142Y-74857142D01*
X78642857Y-77857142D02*
X77642857Y-76428571D01*
X76928571Y-77857142D02*
X76928571Y-74857142D01*
X78071428Y-74857142D01*
X78357142Y-75000000D01*
X78500000Y-75142857D01*
X78642857Y-75428571D01*
X78642857Y-75857142D01*
X78500000Y-76142857D01*
X78357142Y-76285714D01*
X78071428Y-76428571D01*
X76928571Y-76428571D01*
X79928571Y-77857142D02*
X79928571Y-74857142D01*
X81928571Y-74857142D02*
X82500000Y-74857142D01*
X82785714Y-75000000D01*
X83071428Y-75285714D01*
X83214285Y-75857142D01*
X83214285Y-76857142D01*
X83071428Y-77428571D01*
X82785714Y-77714285D01*
X82500000Y-77857142D01*
X81928571Y-77857142D01*
X81642857Y-77714285D01*
X81357142Y-77428571D01*
X81214285Y-76857142D01*
X81214285Y-75857142D01*
X81357142Y-75285714D01*
X81642857Y-75000000D01*
X81928571Y-74857142D01*
X84500000Y-77857142D02*
X84500000Y-74857142D01*
X86214285Y-77857142D01*
X86214285Y-74857142D01*
D11*
X76750000Y-93178571D02*
X76750000Y-91678571D01*
X76892857Y-92607142D02*
X77321428Y-93178571D01*
X77321428Y-92178571D02*
X76750000Y-92750000D01*
X77964285Y-93178571D02*
X77964285Y-91678571D01*
X77964285Y-92250000D02*
X78107142Y-92178571D01*
X78392857Y-92178571D01*
X78535714Y-92250000D01*
X78607142Y-92321428D01*
X78678571Y-92464285D01*
X78678571Y-92892857D01*
X78607142Y-93035714D01*
X78535714Y-93107142D01*
X78392857Y-93178571D01*
X78107142Y-93178571D01*
X77964285Y-93107142D01*
X79321428Y-93035714D02*
X79392857Y-93107142D01*
X79321428Y-93178571D01*
X79250000Y-93107142D01*
X79321428Y-93035714D01*
X79321428Y-93178571D01*
X80678571Y-93178571D02*
X80678571Y-92392857D01*
X80607142Y-92250000D01*
X80464285Y-92178571D01*
X80178571Y-92178571D01*
X80035714Y-92250000D01*
X80678571Y-93107142D02*
X80535714Y-93178571D01*
X80178571Y-93178571D01*
X80035714Y-93107142D01*
X79964285Y-92964285D01*
X79964285Y-92821428D01*
X80035714Y-92678571D01*
X80178571Y-92607142D01*
X80535714Y-92607142D01*
X80678571Y-92535714D01*
X81392857Y-93178571D02*
X81392857Y-92178571D01*
X81392857Y-91678571D02*
X81321428Y-91750000D01*
X81392857Y-91821428D01*
X81464285Y-91750000D01*
X81392857Y-91678571D01*
X81392857Y-91821428D01*
X82392857Y-91678571D02*
X82535714Y-91678571D01*
X82678571Y-91750000D01*
X82750000Y-91821428D01*
X82821428Y-91964285D01*
X82892857Y-92250000D01*
X82892857Y-92607142D01*
X82821428Y-92892857D01*
X82750000Y-93035714D01*
X82678571Y-93107142D01*
X82535714Y-93178571D01*
X82392857Y-93178571D01*
X82250000Y-93107142D01*
X82178571Y-93035714D01*
X82107142Y-92892857D01*
X82035714Y-92607142D01*
X82035714Y-92250000D01*
X82107142Y-91964285D01*
X82178571Y-91821428D01*
X82250000Y-91750000D01*
X82392857Y-91678571D01*
X83392857Y-91678571D02*
X84321428Y-91678571D01*
X83821428Y-92250000D01*
X84035714Y-92250000D01*
X84178571Y-92321428D01*
X84250000Y-92392857D01*
X84321428Y-92535714D01*
X84321428Y-92892857D01*
X84250000Y-93035714D01*
X84178571Y-93107142D01*
X84035714Y-93178571D01*
X83607142Y-93178571D01*
X83464285Y-93107142D01*
X83392857Y-93035714D01*
X84964285Y-93035714D02*
X85035714Y-93107142D01*
X84964285Y-93178571D01*
X84892857Y-93107142D01*
X84964285Y-93035714D01*
X84964285Y-93178571D01*
X85678571Y-93178571D02*
X85678571Y-92178571D01*
X85678571Y-92321428D02*
X85750000Y-92250000D01*
X85892857Y-92178571D01*
X86107142Y-92178571D01*
X86250000Y-92250000D01*
X86321428Y-92392857D01*
X86321428Y-93178571D01*
X86321428Y-92392857D02*
X86392857Y-92250000D01*
X86535714Y-92178571D01*
X86750000Y-92178571D01*
X86892857Y-92250000D01*
X86964285Y-92392857D01*
X86964285Y-93178571D01*
X88250000Y-93107142D02*
X88107142Y-93178571D01*
X87821428Y-93178571D01*
X87678571Y-93107142D01*
X87607142Y-92964285D01*
X87607142Y-92392857D01*
X87678571Y-92250000D01*
X87821428Y-92178571D01*
X88107142Y-92178571D01*
X88250000Y-92250000D01*
X88321428Y-92392857D01*
X88321428Y-92535714D01*
X87607142Y-92678571D01*
D10*
X84500000Y-48000000D02*
X84500000Y-40000000D01*
X75500000Y-40000000D02*
X75500000Y-48000000D01*
D13*
G04 #@! TO.C,C1*
X83200000Y-70350000D02*
X87750000Y-70350000D01*
X83200000Y-73650000D02*
X87750000Y-73650000D01*
X83200000Y-70350000D02*
X83200000Y-73650000D01*
G04 #@! TO.C,C2*
X80800000Y-58650000D02*
X80800000Y-55350000D01*
X80800000Y-55350000D02*
X76250000Y-55350000D01*
X80800000Y-58650000D02*
X76250000Y-58650000D01*
G04 #@! TO.C,C3*
X72500000Y-62150000D02*
X71500000Y-62150000D01*
X71500000Y-63850000D02*
X72500000Y-63850000D01*
G04 #@! TO.C,C4*
X86500000Y-67650000D02*
X85500000Y-67650000D01*
X85500000Y-69350000D02*
X86500000Y-69350000D01*
G04 #@! TO.C,C5*
X70350000Y-60800000D02*
X73650000Y-60800000D01*
X73650000Y-60800000D02*
X73650000Y-56250000D01*
X70350000Y-60800000D02*
X70350000Y-56250000D01*
D14*
G04 #@! TO.C,J1*
X99220000Y-67200000D02*
X99220000Y-52800000D01*
X99220000Y-67200000D02*
X113220000Y-67200000D01*
X113220000Y-52800000D02*
X113220000Y-67200000D01*
X113220000Y-52800000D02*
X99220000Y-52800000D01*
G04 #@! TO.C,J2*
X113220000Y-73800000D02*
X99220000Y-73800000D01*
X113220000Y-73800000D02*
X113220000Y-88200000D01*
X99220000Y-88200000D02*
X113220000Y-88200000D01*
X99220000Y-88200000D02*
X99220000Y-73800000D01*
G04 #@! TO.C,J3*
X60780000Y-73800000D02*
X60780000Y-88200000D01*
X60780000Y-73800000D02*
X46780000Y-73800000D01*
X46780000Y-88200000D02*
X46780000Y-73800000D01*
X46780000Y-88200000D02*
X60780000Y-88200000D01*
G04 #@! TO.C,J4*
X46780000Y-66200000D02*
X60780000Y-66200000D01*
X46780000Y-66200000D02*
X46780000Y-51800000D01*
X60780000Y-51800000D02*
X46780000Y-51800000D01*
X60780000Y-51800000D02*
X60780000Y-66200000D01*
D13*
G04 #@! TO.C,R1*
X86620000Y-64100000D02*
X86620000Y-62900000D01*
X88380000Y-62900000D02*
X88380000Y-64100000D01*
G04 #@! TO.C,R2*
X77380000Y-51900000D02*
X77380000Y-53100000D01*
X75620000Y-53100000D02*
X75620000Y-51900000D01*
G04 #@! TO.C,R3*
X82620000Y-53100000D02*
X82620000Y-51900000D01*
X84380000Y-51900000D02*
X84380000Y-53100000D01*
D14*
G04 #@! TO.C,U1*
X75400000Y-65575000D02*
X75400000Y-66700000D01*
X85080000Y-65575000D02*
X85080000Y-61425000D01*
X74920000Y-65575000D02*
X74920000Y-61425000D01*
X85080000Y-65575000D02*
X84600000Y-65575000D01*
X85080000Y-61425000D02*
X84600000Y-61425000D01*
X74920000Y-61425000D02*
X75400000Y-61425000D01*
X74920000Y-65575000D02*
X75400000Y-65575000D01*
D13*
G04 #@! TO.C,Y1*
X75500000Y-68850000D02*
X71500000Y-68850000D01*
X75500000Y-72150000D02*
X75500000Y-68850000D01*
D14*
G04 #@! TO.C,U2*
X79350000Y-53950000D02*
X80650000Y-53950000D01*
X79350000Y-51050000D02*
X79350000Y-53950000D01*
X80650000Y-51050000D02*
X79350000Y-51050000D01*
X80650000Y-51050000D02*
X80650000Y-53950000D01*
D13*
G04 #@! TO.C,F1*
X97070000Y-64000000D02*
X97070000Y-66000000D01*
X94930000Y-66000000D02*
X94930000Y-64000000D01*
G04 #@! TO.C,F2*
X94930000Y-87000000D02*
X94930000Y-85000000D01*
X97070000Y-85000000D02*
X97070000Y-87000000D01*
G04 #@! TO.C,F3*
X62930000Y-77000000D02*
X62930000Y-75000000D01*
X65070000Y-75000000D02*
X65070000Y-77000000D01*
G04 #@! TO.C,F4*
X65070000Y-53000000D02*
X65070000Y-55000000D01*
X62930000Y-55000000D02*
X62930000Y-53000000D01*
G04 #@! TO.C,R4*
X86120000Y-48600000D02*
X86120000Y-47400000D01*
X87880000Y-47400000D02*
X87880000Y-48600000D01*
D15*
G04 #@! TO.C,G\002A\002A\002A*
G36*
X73152400Y-91636400D02*
X72828550Y-91636400D01*
X72828550Y-91312550D01*
X73152400Y-91312550D01*
X73152400Y-91636400D01*
X73152400Y-91636400D01*
G37*
X73152400Y-91636400D02*
X72828550Y-91636400D01*
X72828550Y-91312550D01*
X73152400Y-91312550D01*
X73152400Y-91636400D01*
G36*
X73476250Y-92265050D02*
X73152400Y-92265050D01*
X73152400Y-91960250D01*
X73476250Y-91960250D01*
X73476250Y-92265050D01*
X73476250Y-92265050D01*
G37*
X73476250Y-92265050D02*
X73152400Y-92265050D01*
X73152400Y-91960250D01*
X73476250Y-91960250D01*
X73476250Y-92265050D01*
G36*
X72828550Y-92265050D02*
X72523750Y-92265050D01*
X72523750Y-91960250D01*
X72828550Y-91960250D01*
X72828550Y-92265050D01*
X72828550Y-92265050D01*
G37*
X72828550Y-92265050D02*
X72523750Y-92265050D01*
X72523750Y-91960250D01*
X72828550Y-91960250D01*
X72828550Y-92265050D01*
G36*
X73781050Y-92912750D02*
X73476250Y-92912750D01*
X73476250Y-92588900D01*
X73781050Y-92588900D01*
X73781050Y-92912750D01*
X73781050Y-92912750D01*
G37*
X73781050Y-92912750D02*
X73476250Y-92912750D01*
X73476250Y-92588900D01*
X73781050Y-92588900D01*
X73781050Y-92912750D01*
G36*
X73152400Y-92912750D02*
X72828550Y-92912750D01*
X72828550Y-92588900D01*
X73152400Y-92588900D01*
X73152400Y-92912750D01*
X73152400Y-92912750D01*
G37*
X73152400Y-92912750D02*
X72828550Y-92912750D01*
X72828550Y-92588900D01*
X73152400Y-92588900D01*
X73152400Y-92912750D01*
G36*
X72523750Y-92912750D02*
X72199900Y-92912750D01*
X72199900Y-92588900D01*
X72523750Y-92588900D01*
X72523750Y-92912750D01*
X72523750Y-92912750D01*
G37*
X72523750Y-92912750D02*
X72199900Y-92912750D01*
X72199900Y-92588900D01*
X72523750Y-92588900D01*
X72523750Y-92912750D01*
G36*
X74104900Y-93541400D02*
X73781050Y-93541400D01*
X73781050Y-93217550D01*
X74104900Y-93217550D01*
X74104900Y-93541400D01*
X74104900Y-93541400D01*
G37*
X74104900Y-93541400D02*
X73781050Y-93541400D01*
X73781050Y-93217550D01*
X74104900Y-93217550D01*
X74104900Y-93541400D01*
G36*
X72199900Y-93541400D02*
X71876050Y-93541400D01*
X71876050Y-93217550D01*
X72199900Y-93217550D01*
X72199900Y-93541400D01*
X72199900Y-93541400D01*
G37*
X72199900Y-93541400D02*
X71876050Y-93541400D01*
X71876050Y-93217550D01*
X72199900Y-93217550D01*
X72199900Y-93541400D01*
G36*
X73003175Y-90122435D02*
X73102469Y-90123532D01*
X73191839Y-90126857D01*
X73273913Y-90132735D01*
X73351324Y-90141487D01*
X73426702Y-90153438D01*
X73502677Y-90168909D01*
X73581881Y-90188224D01*
X73618103Y-90197934D01*
X73784941Y-90250125D01*
X73946611Y-90313593D01*
X74102502Y-90388022D01*
X74251999Y-90473094D01*
X74394491Y-90568492D01*
X74516207Y-90662893D01*
X74642342Y-90775473D01*
X74760211Y-90896629D01*
X74869268Y-91025507D01*
X74968966Y-91161253D01*
X75058757Y-91303013D01*
X75138095Y-91449932D01*
X75206433Y-91601157D01*
X75263224Y-91755834D01*
X75302227Y-91890242D01*
X75328683Y-92002231D01*
X75348971Y-92107779D01*
X75363685Y-92211197D01*
X75373420Y-92316794D01*
X75378768Y-92428879D01*
X75379291Y-92449200D01*
X75377115Y-92623837D01*
X75362560Y-92795664D01*
X75335628Y-92964656D01*
X75296325Y-93130790D01*
X75244655Y-93294043D01*
X75193297Y-93425189D01*
X75170831Y-93477401D01*
X75151581Y-93520727D01*
X75134086Y-93558090D01*
X75116885Y-93592410D01*
X75098516Y-93626610D01*
X75077520Y-93663612D01*
X75054220Y-93703325D01*
X74958845Y-93852341D01*
X74854761Y-93992122D01*
X74741863Y-94122771D01*
X74620043Y-94244397D01*
X74489197Y-94357103D01*
X74349219Y-94460998D01*
X74203325Y-94554220D01*
X74161061Y-94578995D01*
X74124330Y-94599776D01*
X74090211Y-94618024D01*
X74055782Y-94635200D01*
X74018120Y-94652765D01*
X73974305Y-94672180D01*
X73925189Y-94693297D01*
X73848202Y-94724935D01*
X73777228Y-94751366D01*
X73707537Y-94774156D01*
X73634398Y-94794871D01*
X73568325Y-94811457D01*
X73436711Y-94839901D01*
X73311036Y-94860442D01*
X73187653Y-94873514D01*
X73062919Y-94879548D01*
X72990475Y-94880010D01*
X72949500Y-94879598D01*
X72911003Y-94879034D01*
X72877498Y-94878367D01*
X72851502Y-94877650D01*
X72835527Y-94876932D01*
X72834900Y-94876886D01*
X72661960Y-94857725D01*
X72491755Y-94826536D01*
X72324970Y-94783573D01*
X72162294Y-94729090D01*
X72004412Y-94663341D01*
X71852014Y-94586580D01*
X71705785Y-94499061D01*
X71585021Y-94415036D01*
X71446678Y-94304359D01*
X71318132Y-94185670D01*
X71199560Y-94059231D01*
X71091142Y-93925305D01*
X70993059Y-93784154D01*
X70905488Y-93636041D01*
X70828610Y-93481228D01*
X70762604Y-93319977D01*
X70707650Y-93152550D01*
X70697934Y-93118103D01*
X70676841Y-93036668D01*
X70659733Y-92959608D01*
X70646287Y-92884293D01*
X70636179Y-92808093D01*
X70629088Y-92728376D01*
X70624689Y-92642511D01*
X70622660Y-92547869D01*
X70622435Y-92503175D01*
X70622975Y-92458886D01*
X71048635Y-92458886D01*
X71048717Y-92522996D01*
X71050050Y-92586728D01*
X71052607Y-92646829D01*
X71056364Y-92700047D01*
X71059340Y-92728600D01*
X71084839Y-92886438D01*
X71122161Y-93039730D01*
X71171160Y-93188177D01*
X71231695Y-93331478D01*
X71303621Y-93469335D01*
X71386794Y-93601447D01*
X71481072Y-93727514D01*
X71586310Y-93847237D01*
X71604179Y-93865808D01*
X71711566Y-93967467D01*
X71828128Y-94061816D01*
X71951704Y-94147271D01*
X72080135Y-94222253D01*
X72116766Y-94241202D01*
X72176292Y-94270522D01*
X72228485Y-94294697D01*
X72276883Y-94315151D01*
X72325022Y-94333307D01*
X72376440Y-94350586D01*
X72428500Y-94366581D01*
X72579870Y-94406112D01*
X72728471Y-94433672D01*
X72875461Y-94449371D01*
X73022002Y-94453313D01*
X73169251Y-94445608D01*
X73222484Y-94440024D01*
X73372350Y-94416869D01*
X73516015Y-94383422D01*
X73655485Y-94339082D01*
X73792766Y-94283251D01*
X73870332Y-94246292D01*
X74006838Y-94171557D01*
X74134371Y-94088569D01*
X74253537Y-93996779D01*
X74364943Y-93895639D01*
X74469195Y-93784603D01*
X74566899Y-93663122D01*
X74653513Y-93538607D01*
X74673614Y-93505654D01*
X74697072Y-93463951D01*
X74722432Y-93416397D01*
X74748238Y-93365885D01*
X74773034Y-93315311D01*
X74795364Y-93267573D01*
X74813771Y-93225565D01*
X74824522Y-93198500D01*
X74874816Y-93045267D01*
X74912732Y-92891076D01*
X74938239Y-92736359D01*
X74951304Y-92581551D01*
X74951894Y-92427085D01*
X74939977Y-92273393D01*
X74915521Y-92120909D01*
X74907678Y-92084075D01*
X74880759Y-91975040D01*
X74850113Y-91874094D01*
X74814163Y-91776805D01*
X74771330Y-91678745D01*
X74741202Y-91616766D01*
X74666239Y-91481687D01*
X74580779Y-91353338D01*
X74485438Y-91232294D01*
X74380829Y-91119131D01*
X74267568Y-91014425D01*
X74146267Y-90918751D01*
X74017541Y-90832687D01*
X73882005Y-90756808D01*
X73766660Y-90702783D01*
X73629357Y-90649667D01*
X73491314Y-90608069D01*
X73350924Y-90577662D01*
X73206580Y-90558120D01*
X73056676Y-90549117D01*
X73006350Y-90548405D01*
X72847874Y-90553501D01*
X72694572Y-90570017D01*
X72545824Y-90598138D01*
X72401011Y-90638053D01*
X72259514Y-90689948D01*
X72120715Y-90754010D01*
X71983993Y-90830427D01*
X71903435Y-90881795D01*
X71791889Y-90963017D01*
X71684530Y-91054622D01*
X71582672Y-91155071D01*
X71487628Y-91262824D01*
X71400709Y-91376344D01*
X71323228Y-91494092D01*
X71256497Y-91614528D01*
X71228661Y-91672864D01*
X71179538Y-91788751D01*
X71139353Y-91900142D01*
X71107148Y-92010500D01*
X71081964Y-92123291D01*
X71062844Y-92241976D01*
X71056123Y-92296800D01*
X71052313Y-92342536D01*
X71049825Y-92397648D01*
X71048635Y-92458886D01*
X70622975Y-92458886D01*
X70623831Y-92388778D01*
X70628530Y-92284085D01*
X70636990Y-92186419D01*
X70649668Y-92093108D01*
X70667021Y-92001475D01*
X70689509Y-91908847D01*
X70717588Y-91812549D01*
X70751717Y-91709906D01*
X70764272Y-91674500D01*
X70826980Y-91518724D01*
X70901253Y-91368057D01*
X70986937Y-91222708D01*
X71083881Y-91082886D01*
X71191933Y-90948802D01*
X71310939Y-90820666D01*
X71440746Y-90698687D01*
X71526216Y-90626543D01*
X71594879Y-90574148D01*
X71672910Y-90520288D01*
X71757398Y-90466729D01*
X71845428Y-90415244D01*
X71934090Y-90367599D01*
X72020471Y-90325566D01*
X72025275Y-90323371D01*
X72081243Y-90299473D01*
X72146188Y-90274364D01*
X72216613Y-90249229D01*
X72289023Y-90225249D01*
X72359921Y-90203608D01*
X72425811Y-90185491D01*
X72451319Y-90179176D01*
X72525899Y-90162562D01*
X72597078Y-90149234D01*
X72667482Y-90138921D01*
X72739735Y-90131355D01*
X72816462Y-90126265D01*
X72900287Y-90123382D01*
X72993836Y-90122434D01*
X73003175Y-90122435D01*
X73003175Y-90122435D01*
G37*
X73003175Y-90122435D02*
X73102469Y-90123532D01*
X73191839Y-90126857D01*
X73273913Y-90132735D01*
X73351324Y-90141487D01*
X73426702Y-90153438D01*
X73502677Y-90168909D01*
X73581881Y-90188224D01*
X73618103Y-90197934D01*
X73784941Y-90250125D01*
X73946611Y-90313593D01*
X74102502Y-90388022D01*
X74251999Y-90473094D01*
X74394491Y-90568492D01*
X74516207Y-90662893D01*
X74642342Y-90775473D01*
X74760211Y-90896629D01*
X74869268Y-91025507D01*
X74968966Y-91161253D01*
X75058757Y-91303013D01*
X75138095Y-91449932D01*
X75206433Y-91601157D01*
X75263224Y-91755834D01*
X75302227Y-91890242D01*
X75328683Y-92002231D01*
X75348971Y-92107779D01*
X75363685Y-92211197D01*
X75373420Y-92316794D01*
X75378768Y-92428879D01*
X75379291Y-92449200D01*
X75377115Y-92623837D01*
X75362560Y-92795664D01*
X75335628Y-92964656D01*
X75296325Y-93130790D01*
X75244655Y-93294043D01*
X75193297Y-93425189D01*
X75170831Y-93477401D01*
X75151581Y-93520727D01*
X75134086Y-93558090D01*
X75116885Y-93592410D01*
X75098516Y-93626610D01*
X75077520Y-93663612D01*
X75054220Y-93703325D01*
X74958845Y-93852341D01*
X74854761Y-93992122D01*
X74741863Y-94122771D01*
X74620043Y-94244397D01*
X74489197Y-94357103D01*
X74349219Y-94460998D01*
X74203325Y-94554220D01*
X74161061Y-94578995D01*
X74124330Y-94599776D01*
X74090211Y-94618024D01*
X74055782Y-94635200D01*
X74018120Y-94652765D01*
X73974305Y-94672180D01*
X73925189Y-94693297D01*
X73848202Y-94724935D01*
X73777228Y-94751366D01*
X73707537Y-94774156D01*
X73634398Y-94794871D01*
X73568325Y-94811457D01*
X73436711Y-94839901D01*
X73311036Y-94860442D01*
X73187653Y-94873514D01*
X73062919Y-94879548D01*
X72990475Y-94880010D01*
X72949500Y-94879598D01*
X72911003Y-94879034D01*
X72877498Y-94878367D01*
X72851502Y-94877650D01*
X72835527Y-94876932D01*
X72834900Y-94876886D01*
X72661960Y-94857725D01*
X72491755Y-94826536D01*
X72324970Y-94783573D01*
X72162294Y-94729090D01*
X72004412Y-94663341D01*
X71852014Y-94586580D01*
X71705785Y-94499061D01*
X71585021Y-94415036D01*
X71446678Y-94304359D01*
X71318132Y-94185670D01*
X71199560Y-94059231D01*
X71091142Y-93925305D01*
X70993059Y-93784154D01*
X70905488Y-93636041D01*
X70828610Y-93481228D01*
X70762604Y-93319977D01*
X70707650Y-93152550D01*
X70697934Y-93118103D01*
X70676841Y-93036668D01*
X70659733Y-92959608D01*
X70646287Y-92884293D01*
X70636179Y-92808093D01*
X70629088Y-92728376D01*
X70624689Y-92642511D01*
X70622660Y-92547869D01*
X70622435Y-92503175D01*
X70622975Y-92458886D01*
X71048635Y-92458886D01*
X71048717Y-92522996D01*
X71050050Y-92586728D01*
X71052607Y-92646829D01*
X71056364Y-92700047D01*
X71059340Y-92728600D01*
X71084839Y-92886438D01*
X71122161Y-93039730D01*
X71171160Y-93188177D01*
X71231695Y-93331478D01*
X71303621Y-93469335D01*
X71386794Y-93601447D01*
X71481072Y-93727514D01*
X71586310Y-93847237D01*
X71604179Y-93865808D01*
X71711566Y-93967467D01*
X71828128Y-94061816D01*
X71951704Y-94147271D01*
X72080135Y-94222253D01*
X72116766Y-94241202D01*
X72176292Y-94270522D01*
X72228485Y-94294697D01*
X72276883Y-94315151D01*
X72325022Y-94333307D01*
X72376440Y-94350586D01*
X72428500Y-94366581D01*
X72579870Y-94406112D01*
X72728471Y-94433672D01*
X72875461Y-94449371D01*
X73022002Y-94453313D01*
X73169251Y-94445608D01*
X73222484Y-94440024D01*
X73372350Y-94416869D01*
X73516015Y-94383422D01*
X73655485Y-94339082D01*
X73792766Y-94283251D01*
X73870332Y-94246292D01*
X74006838Y-94171557D01*
X74134371Y-94088569D01*
X74253537Y-93996779D01*
X74364943Y-93895639D01*
X74469195Y-93784603D01*
X74566899Y-93663122D01*
X74653513Y-93538607D01*
X74673614Y-93505654D01*
X74697072Y-93463951D01*
X74722432Y-93416397D01*
X74748238Y-93365885D01*
X74773034Y-93315311D01*
X74795364Y-93267573D01*
X74813771Y-93225565D01*
X74824522Y-93198500D01*
X74874816Y-93045267D01*
X74912732Y-92891076D01*
X74938239Y-92736359D01*
X74951304Y-92581551D01*
X74951894Y-92427085D01*
X74939977Y-92273393D01*
X74915521Y-92120909D01*
X74907678Y-92084075D01*
X74880759Y-91975040D01*
X74850113Y-91874094D01*
X74814163Y-91776805D01*
X74771330Y-91678745D01*
X74741202Y-91616766D01*
X74666239Y-91481687D01*
X74580779Y-91353338D01*
X74485438Y-91232294D01*
X74380829Y-91119131D01*
X74267568Y-91014425D01*
X74146267Y-90918751D01*
X74017541Y-90832687D01*
X73882005Y-90756808D01*
X73766660Y-90702783D01*
X73629357Y-90649667D01*
X73491314Y-90608069D01*
X73350924Y-90577662D01*
X73206580Y-90558120D01*
X73056676Y-90549117D01*
X73006350Y-90548405D01*
X72847874Y-90553501D01*
X72694572Y-90570017D01*
X72545824Y-90598138D01*
X72401011Y-90638053D01*
X72259514Y-90689948D01*
X72120715Y-90754010D01*
X71983993Y-90830427D01*
X71903435Y-90881795D01*
X71791889Y-90963017D01*
X71684530Y-91054622D01*
X71582672Y-91155071D01*
X71487628Y-91262824D01*
X71400709Y-91376344D01*
X71323228Y-91494092D01*
X71256497Y-91614528D01*
X71228661Y-91672864D01*
X71179538Y-91788751D01*
X71139353Y-91900142D01*
X71107148Y-92010500D01*
X71081964Y-92123291D01*
X71062844Y-92241976D01*
X71056123Y-92296800D01*
X71052313Y-92342536D01*
X71049825Y-92397648D01*
X71048635Y-92458886D01*
X70622975Y-92458886D01*
X70623831Y-92388778D01*
X70628530Y-92284085D01*
X70636990Y-92186419D01*
X70649668Y-92093108D01*
X70667021Y-92001475D01*
X70689509Y-91908847D01*
X70717588Y-91812549D01*
X70751717Y-91709906D01*
X70764272Y-91674500D01*
X70826980Y-91518724D01*
X70901253Y-91368057D01*
X70986937Y-91222708D01*
X71083881Y-91082886D01*
X71191933Y-90948802D01*
X71310939Y-90820666D01*
X71440746Y-90698687D01*
X71526216Y-90626543D01*
X71594879Y-90574148D01*
X71672910Y-90520288D01*
X71757398Y-90466729D01*
X71845428Y-90415244D01*
X71934090Y-90367599D01*
X72020471Y-90325566D01*
X72025275Y-90323371D01*
X72081243Y-90299473D01*
X72146188Y-90274364D01*
X72216613Y-90249229D01*
X72289023Y-90225249D01*
X72359921Y-90203608D01*
X72425811Y-90185491D01*
X72451319Y-90179176D01*
X72525899Y-90162562D01*
X72597078Y-90149234D01*
X72667482Y-90138921D01*
X72739735Y-90131355D01*
X72816462Y-90126265D01*
X72900287Y-90123382D01*
X72993836Y-90122434D01*
X73003175Y-90122435D01*
G04 #@! TO.C,C1*
D14*
X89833333Y-72357142D02*
X89785714Y-72404761D01*
X89642857Y-72452380D01*
X89547619Y-72452380D01*
X89404761Y-72404761D01*
X89309523Y-72309523D01*
X89261904Y-72214285D01*
X89214285Y-72023809D01*
X89214285Y-71880952D01*
X89261904Y-71690476D01*
X89309523Y-71595238D01*
X89404761Y-71500000D01*
X89547619Y-71452380D01*
X89642857Y-71452380D01*
X89785714Y-71500000D01*
X89833333Y-71547619D01*
X90785714Y-72452380D02*
X90214285Y-72452380D01*
X90500000Y-72452380D02*
X90500000Y-71452380D01*
X90404761Y-71595238D01*
X90309523Y-71690476D01*
X90214285Y-71738095D01*
G04 #@! TO.C,C2*
X81833333Y-57357142D02*
X81785714Y-57404761D01*
X81642857Y-57452380D01*
X81547619Y-57452380D01*
X81404761Y-57404761D01*
X81309523Y-57309523D01*
X81261904Y-57214285D01*
X81214285Y-57023809D01*
X81214285Y-56880952D01*
X81261904Y-56690476D01*
X81309523Y-56595238D01*
X81404761Y-56500000D01*
X81547619Y-56452380D01*
X81642857Y-56452380D01*
X81785714Y-56500000D01*
X81833333Y-56547619D01*
X82214285Y-56547619D02*
X82261904Y-56500000D01*
X82357142Y-56452380D01*
X82595238Y-56452380D01*
X82690476Y-56500000D01*
X82738095Y-56547619D01*
X82785714Y-56642857D01*
X82785714Y-56738095D01*
X82738095Y-56880952D01*
X82166666Y-57452380D01*
X82785714Y-57452380D01*
G04 #@! TO.C,C3*
X71833333Y-65107142D02*
X71785714Y-65154761D01*
X71642857Y-65202380D01*
X71547619Y-65202380D01*
X71404761Y-65154761D01*
X71309523Y-65059523D01*
X71261904Y-64964285D01*
X71214285Y-64773809D01*
X71214285Y-64630952D01*
X71261904Y-64440476D01*
X71309523Y-64345238D01*
X71404761Y-64250000D01*
X71547619Y-64202380D01*
X71642857Y-64202380D01*
X71785714Y-64250000D01*
X71833333Y-64297619D01*
X72166666Y-64202380D02*
X72785714Y-64202380D01*
X72452380Y-64583333D01*
X72595238Y-64583333D01*
X72690476Y-64630952D01*
X72738095Y-64678571D01*
X72785714Y-64773809D01*
X72785714Y-65011904D01*
X72738095Y-65107142D01*
X72690476Y-65154761D01*
X72595238Y-65202380D01*
X72309523Y-65202380D01*
X72214285Y-65154761D01*
X72166666Y-65107142D01*
G04 #@! TO.C,C4*
X88833333Y-68857142D02*
X88785714Y-68904761D01*
X88642857Y-68952380D01*
X88547619Y-68952380D01*
X88404761Y-68904761D01*
X88309523Y-68809523D01*
X88261904Y-68714285D01*
X88214285Y-68523809D01*
X88214285Y-68380952D01*
X88261904Y-68190476D01*
X88309523Y-68095238D01*
X88404761Y-68000000D01*
X88547619Y-67952380D01*
X88642857Y-67952380D01*
X88785714Y-68000000D01*
X88833333Y-68047619D01*
X89690476Y-68285714D02*
X89690476Y-68952380D01*
X89452380Y-67904761D02*
X89214285Y-68619047D01*
X89833333Y-68619047D01*
G04 #@! TO.C,C5*
X69857142Y-58166666D02*
X69904761Y-58214285D01*
X69952380Y-58357142D01*
X69952380Y-58452380D01*
X69904761Y-58595238D01*
X69809523Y-58690476D01*
X69714285Y-58738095D01*
X69523809Y-58785714D01*
X69380952Y-58785714D01*
X69190476Y-58738095D01*
X69095238Y-58690476D01*
X69000000Y-58595238D01*
X68952380Y-58452380D01*
X68952380Y-58357142D01*
X69000000Y-58214285D01*
X69047619Y-58166666D01*
X68952380Y-57261904D02*
X68952380Y-57738095D01*
X69428571Y-57785714D01*
X69380952Y-57738095D01*
X69333333Y-57642857D01*
X69333333Y-57404761D01*
X69380952Y-57309523D01*
X69428571Y-57261904D01*
X69523809Y-57214285D01*
X69761904Y-57214285D01*
X69857142Y-57261904D01*
X69904761Y-57309523D01*
X69952380Y-57404761D01*
X69952380Y-57642857D01*
X69904761Y-57738095D01*
X69857142Y-57785714D01*
G04 #@! TO.C,J1*
X97452380Y-60333333D02*
X98166666Y-60333333D01*
X98309523Y-60380952D01*
X98404761Y-60476190D01*
X98452380Y-60619047D01*
X98452380Y-60714285D01*
X98452380Y-59333333D02*
X98452380Y-59904761D01*
X98452380Y-59619047D02*
X97452380Y-59619047D01*
X97595238Y-59714285D01*
X97690476Y-59809523D01*
X97738095Y-59904761D01*
G04 #@! TO.C,J2*
X97452380Y-81333333D02*
X98166666Y-81333333D01*
X98309523Y-81380952D01*
X98404761Y-81476190D01*
X98452380Y-81619047D01*
X98452380Y-81714285D01*
X97547619Y-80904761D02*
X97500000Y-80857142D01*
X97452380Y-80761904D01*
X97452380Y-80523809D01*
X97500000Y-80428571D01*
X97547619Y-80380952D01*
X97642857Y-80333333D01*
X97738095Y-80333333D01*
X97880952Y-80380952D01*
X98452380Y-80952380D01*
X98452380Y-80333333D01*
G04 #@! TO.C,J3*
X61452380Y-81333333D02*
X62166666Y-81333333D01*
X62309523Y-81380952D01*
X62404761Y-81476190D01*
X62452380Y-81619047D01*
X62452380Y-81714285D01*
X61452380Y-80952380D02*
X61452380Y-80333333D01*
X61833333Y-80666666D01*
X61833333Y-80523809D01*
X61880952Y-80428571D01*
X61928571Y-80380952D01*
X62023809Y-80333333D01*
X62261904Y-80333333D01*
X62357142Y-80380952D01*
X62404761Y-80428571D01*
X62452380Y-80523809D01*
X62452380Y-80809523D01*
X62404761Y-80904761D01*
X62357142Y-80952380D01*
G04 #@! TO.C,J4*
X61452380Y-59333333D02*
X62166666Y-59333333D01*
X62309523Y-59380952D01*
X62404761Y-59476190D01*
X62452380Y-59619047D01*
X62452380Y-59714285D01*
X61785714Y-58428571D02*
X62452380Y-58428571D01*
X61404761Y-58666666D02*
X62119047Y-58904761D01*
X62119047Y-58285714D01*
G04 #@! TO.C,R1*
X89702380Y-63666666D02*
X89226190Y-64000000D01*
X89702380Y-64238095D02*
X88702380Y-64238095D01*
X88702380Y-63857142D01*
X88750000Y-63761904D01*
X88797619Y-63714285D01*
X88892857Y-63666666D01*
X89035714Y-63666666D01*
X89130952Y-63714285D01*
X89178571Y-63761904D01*
X89226190Y-63857142D01*
X89226190Y-64238095D01*
X89702380Y-62714285D02*
X89702380Y-63285714D01*
X89702380Y-63000000D02*
X88702380Y-63000000D01*
X88845238Y-63095238D01*
X88940476Y-63190476D01*
X88988095Y-63285714D01*
G04 #@! TO.C,R2*
X75302380Y-52666666D02*
X74826190Y-53000000D01*
X75302380Y-53238095D02*
X74302380Y-53238095D01*
X74302380Y-52857142D01*
X74350000Y-52761904D01*
X74397619Y-52714285D01*
X74492857Y-52666666D01*
X74635714Y-52666666D01*
X74730952Y-52714285D01*
X74778571Y-52761904D01*
X74826190Y-52857142D01*
X74826190Y-53238095D01*
X74397619Y-52285714D02*
X74350000Y-52238095D01*
X74302380Y-52142857D01*
X74302380Y-51904761D01*
X74350000Y-51809523D01*
X74397619Y-51761904D01*
X74492857Y-51714285D01*
X74588095Y-51714285D01*
X74730952Y-51761904D01*
X75302380Y-52333333D01*
X75302380Y-51714285D01*
G04 #@! TO.C,R3*
X85702380Y-52666666D02*
X85226190Y-53000000D01*
X85702380Y-53238095D02*
X84702380Y-53238095D01*
X84702380Y-52857142D01*
X84750000Y-52761904D01*
X84797619Y-52714285D01*
X84892857Y-52666666D01*
X85035714Y-52666666D01*
X85130952Y-52714285D01*
X85178571Y-52761904D01*
X85226190Y-52857142D01*
X85226190Y-53238095D01*
X84702380Y-52333333D02*
X84702380Y-51714285D01*
X85083333Y-52047619D01*
X85083333Y-51904761D01*
X85130952Y-51809523D01*
X85178571Y-51761904D01*
X85273809Y-51714285D01*
X85511904Y-51714285D01*
X85607142Y-51761904D01*
X85654761Y-51809523D01*
X85702380Y-51904761D01*
X85702380Y-52190476D01*
X85654761Y-52285714D01*
X85607142Y-52333333D01*
G04 #@! TO.C,U1*
X82738095Y-58702380D02*
X82738095Y-59511904D01*
X82785714Y-59607142D01*
X82833333Y-59654761D01*
X82928571Y-59702380D01*
X83119047Y-59702380D01*
X83214285Y-59654761D01*
X83261904Y-59607142D01*
X83309523Y-59511904D01*
X83309523Y-58702380D01*
X84309523Y-59702380D02*
X83738095Y-59702380D01*
X84023809Y-59702380D02*
X84023809Y-58702380D01*
X83928571Y-58845238D01*
X83833333Y-58940476D01*
X83738095Y-58988095D01*
G04 #@! TO.C,USB1*
X73452380Y-47738095D02*
X74261904Y-47738095D01*
X74357142Y-47690476D01*
X74404761Y-47642857D01*
X74452380Y-47547619D01*
X74452380Y-47357142D01*
X74404761Y-47261904D01*
X74357142Y-47214285D01*
X74261904Y-47166666D01*
X73452380Y-47166666D01*
X74404761Y-46738095D02*
X74452380Y-46595238D01*
X74452380Y-46357142D01*
X74404761Y-46261904D01*
X74357142Y-46214285D01*
X74261904Y-46166666D01*
X74166666Y-46166666D01*
X74071428Y-46214285D01*
X74023809Y-46261904D01*
X73976190Y-46357142D01*
X73928571Y-46547619D01*
X73880952Y-46642857D01*
X73833333Y-46690476D01*
X73738095Y-46738095D01*
X73642857Y-46738095D01*
X73547619Y-46690476D01*
X73500000Y-46642857D01*
X73452380Y-46547619D01*
X73452380Y-46309523D01*
X73500000Y-46166666D01*
X73928571Y-45404761D02*
X73976190Y-45261904D01*
X74023809Y-45214285D01*
X74119047Y-45166666D01*
X74261904Y-45166666D01*
X74357142Y-45214285D01*
X74404761Y-45261904D01*
X74452380Y-45357142D01*
X74452380Y-45738095D01*
X73452380Y-45738095D01*
X73452380Y-45404761D01*
X73500000Y-45309523D01*
X73547619Y-45261904D01*
X73642857Y-45214285D01*
X73738095Y-45214285D01*
X73833333Y-45261904D01*
X73880952Y-45309523D01*
X73928571Y-45404761D01*
X73928571Y-45738095D01*
X74452380Y-44214285D02*
X74452380Y-44785714D01*
X74452380Y-44500000D02*
X73452380Y-44500000D01*
X73595238Y-44595238D01*
X73690476Y-44690476D01*
X73738095Y-44785714D01*
G04 #@! TO.C,Y1*
X73023809Y-72926190D02*
X73023809Y-73402380D01*
X72690476Y-72402380D02*
X73023809Y-72926190D01*
X73357142Y-72402380D01*
X74214285Y-73402380D02*
X73642857Y-73402380D01*
X73928571Y-73402380D02*
X73928571Y-72402380D01*
X73833333Y-72545238D01*
X73738095Y-72640476D01*
X73642857Y-72688095D01*
G04 #@! TO.C,U2*
X79238095Y-49702380D02*
X79238095Y-50511904D01*
X79285714Y-50607142D01*
X79333333Y-50654761D01*
X79428571Y-50702380D01*
X79619047Y-50702380D01*
X79714285Y-50654761D01*
X79761904Y-50607142D01*
X79809523Y-50511904D01*
X79809523Y-49702380D01*
X80238095Y-49797619D02*
X80285714Y-49750000D01*
X80380952Y-49702380D01*
X80619047Y-49702380D01*
X80714285Y-49750000D01*
X80761904Y-49797619D01*
X80809523Y-49892857D01*
X80809523Y-49988095D01*
X80761904Y-50130952D01*
X80190476Y-50702380D01*
X80809523Y-50702380D01*
G04 #@! TO.C,F1*
X93928571Y-65333333D02*
X93928571Y-65666666D01*
X94452380Y-65666666D02*
X93452380Y-65666666D01*
X93452380Y-65190476D01*
X94452380Y-64285714D02*
X94452380Y-64857142D01*
X94452380Y-64571428D02*
X93452380Y-64571428D01*
X93595238Y-64666666D01*
X93690476Y-64761904D01*
X93738095Y-64857142D01*
G04 #@! TO.C,F2*
X93928571Y-86333333D02*
X93928571Y-86666666D01*
X94452380Y-86666666D02*
X93452380Y-86666666D01*
X93452380Y-86190476D01*
X93547619Y-85857142D02*
X93500000Y-85809523D01*
X93452380Y-85714285D01*
X93452380Y-85476190D01*
X93500000Y-85380952D01*
X93547619Y-85333333D01*
X93642857Y-85285714D01*
X93738095Y-85285714D01*
X93880952Y-85333333D01*
X94452380Y-85904761D01*
X94452380Y-85285714D01*
G04 #@! TO.C,F3*
X66178571Y-76333333D02*
X66178571Y-76666666D01*
X66702380Y-76666666D02*
X65702380Y-76666666D01*
X65702380Y-76190476D01*
X65702380Y-75904761D02*
X65702380Y-75285714D01*
X66083333Y-75619047D01*
X66083333Y-75476190D01*
X66130952Y-75380952D01*
X66178571Y-75333333D01*
X66273809Y-75285714D01*
X66511904Y-75285714D01*
X66607142Y-75333333D01*
X66654761Y-75380952D01*
X66702380Y-75476190D01*
X66702380Y-75761904D01*
X66654761Y-75857142D01*
X66607142Y-75904761D01*
G04 #@! TO.C,F4*
X66178571Y-54333333D02*
X66178571Y-54666666D01*
X66702380Y-54666666D02*
X65702380Y-54666666D01*
X65702380Y-54190476D01*
X66035714Y-53380952D02*
X66702380Y-53380952D01*
X65654761Y-53619047D02*
X66369047Y-53857142D01*
X66369047Y-53238095D01*
G04 #@! TO.C,MH1*
X53666666Y-42252380D02*
X53666666Y-41252380D01*
X54000000Y-41966666D01*
X54333333Y-41252380D01*
X54333333Y-42252380D01*
X54809523Y-42252380D02*
X54809523Y-41252380D01*
X54809523Y-41728571D02*
X55380952Y-41728571D01*
X55380952Y-42252380D02*
X55380952Y-41252380D01*
X56380952Y-42252380D02*
X55809523Y-42252380D01*
X56095238Y-42252380D02*
X56095238Y-41252380D01*
X56000000Y-41395238D01*
X55904761Y-41490476D01*
X55809523Y-41538095D01*
G04 #@! TO.C,MH2*
X103666666Y-42252380D02*
X103666666Y-41252380D01*
X104000000Y-41966666D01*
X104333333Y-41252380D01*
X104333333Y-42252380D01*
X104809523Y-42252380D02*
X104809523Y-41252380D01*
X104809523Y-41728571D02*
X105380952Y-41728571D01*
X105380952Y-42252380D02*
X105380952Y-41252380D01*
X105809523Y-41347619D02*
X105857142Y-41300000D01*
X105952380Y-41252380D01*
X106190476Y-41252380D01*
X106285714Y-41300000D01*
X106333333Y-41347619D01*
X106380952Y-41442857D01*
X106380952Y-41538095D01*
X106333333Y-41680952D01*
X105761904Y-42252380D01*
X106380952Y-42252380D01*
G04 #@! TO.C,MH3*
X53666666Y-92252380D02*
X53666666Y-91252380D01*
X54000000Y-91966666D01*
X54333333Y-91252380D01*
X54333333Y-92252380D01*
X54809523Y-92252380D02*
X54809523Y-91252380D01*
X54809523Y-91728571D02*
X55380952Y-91728571D01*
X55380952Y-92252380D02*
X55380952Y-91252380D01*
X55761904Y-91252380D02*
X56380952Y-91252380D01*
X56047619Y-91633333D01*
X56190476Y-91633333D01*
X56285714Y-91680952D01*
X56333333Y-91728571D01*
X56380952Y-91823809D01*
X56380952Y-92061904D01*
X56333333Y-92157142D01*
X56285714Y-92204761D01*
X56190476Y-92252380D01*
X55904761Y-92252380D01*
X55809523Y-92204761D01*
X55761904Y-92157142D01*
G04 #@! TO.C,MH4*
X103666666Y-92252380D02*
X103666666Y-91252380D01*
X104000000Y-91966666D01*
X104333333Y-91252380D01*
X104333333Y-92252380D01*
X104809523Y-92252380D02*
X104809523Y-91252380D01*
X104809523Y-91728571D02*
X105380952Y-91728571D01*
X105380952Y-92252380D02*
X105380952Y-91252380D01*
X106285714Y-91585714D02*
X106285714Y-92252380D01*
X106047619Y-91204761D02*
X105809523Y-91919047D01*
X106428571Y-91919047D01*
G04 #@! TO.C,R4*
X89202380Y-48166666D02*
X88726190Y-48500000D01*
X89202380Y-48738095D02*
X88202380Y-48738095D01*
X88202380Y-48357142D01*
X88250000Y-48261904D01*
X88297619Y-48214285D01*
X88392857Y-48166666D01*
X88535714Y-48166666D01*
X88630952Y-48214285D01*
X88678571Y-48261904D01*
X88726190Y-48357142D01*
X88726190Y-48738095D01*
X88535714Y-47309523D02*
X89202380Y-47309523D01*
X88154761Y-47547619D02*
X88869047Y-47785714D01*
X88869047Y-47166666D01*
G04 #@! TD*
%LPC*%
D16*
G04 #@! TO.C,C1*
X84475000Y-72000000D03*
X87525000Y-72000000D03*
G04 #@! TD*
G04 #@! TO.C,C2*
X76475000Y-57000000D03*
X79525000Y-57000000D03*
G04 #@! TD*
D17*
G04 #@! TO.C,C3*
X71000000Y-63000000D03*
X73000000Y-63000000D03*
G04 #@! TD*
G04 #@! TO.C,C4*
X85000000Y-68500000D03*
X87000000Y-68500000D03*
G04 #@! TD*
D18*
G04 #@! TO.C,C5*
X72000000Y-56475000D03*
X72000000Y-59525000D03*
G04 #@! TD*
D19*
G04 #@! TO.C,J1*
X100000000Y-63500000D03*
D20*
X102710000Y-53000000D03*
D19*
X100000000Y-61000000D03*
X100000000Y-59000000D03*
X100000000Y-56500000D03*
D20*
X102710000Y-67000000D03*
G04 #@! TD*
G04 #@! TO.C,J2*
X102710000Y-88000000D03*
D19*
X100000000Y-77500000D03*
X100000000Y-80000000D03*
X100000000Y-82000000D03*
D20*
X102710000Y-74000000D03*
D19*
X100000000Y-84500000D03*
G04 #@! TD*
G04 #@! TO.C,J3*
X60000000Y-77500000D03*
D20*
X57290000Y-88000000D03*
D19*
X60000000Y-80000000D03*
X60000000Y-82000000D03*
X60000000Y-84500000D03*
D20*
X57290000Y-74000000D03*
G04 #@! TD*
G04 #@! TO.C,J4*
X57290000Y-52000000D03*
D19*
X60000000Y-62500000D03*
X60000000Y-60000000D03*
X60000000Y-58000000D03*
D20*
X57290000Y-66000000D03*
D19*
X60000000Y-55500000D03*
G04 #@! TD*
D21*
G04 #@! TO.C,R1*
X87500000Y-62550000D03*
X87500000Y-64450000D03*
G04 #@! TD*
G04 #@! TO.C,R2*
X76500000Y-53450000D03*
X76500000Y-51550000D03*
G04 #@! TD*
G04 #@! TO.C,R3*
X83500000Y-51550000D03*
X83500000Y-53450000D03*
G04 #@! TD*
D22*
G04 #@! TO.C,U1*
X75872500Y-60900000D03*
X76507500Y-60900000D03*
X77142500Y-60900000D03*
X77777500Y-60900000D03*
X78412500Y-60900000D03*
X79047500Y-60900000D03*
X79682500Y-60900000D03*
X80317500Y-60900000D03*
X80952500Y-60900000D03*
X81587500Y-60900000D03*
X82222500Y-60900000D03*
X82857500Y-60900000D03*
X83492500Y-60900000D03*
X84127500Y-60900000D03*
X84127500Y-66100000D03*
X83492500Y-66100000D03*
X82857500Y-66100000D03*
X82222500Y-66100000D03*
X81587500Y-66100000D03*
X80952500Y-66100000D03*
X80317500Y-66100000D03*
X79682500Y-66100000D03*
X79047500Y-66100000D03*
X78412500Y-66100000D03*
X77777500Y-66100000D03*
X77142500Y-66100000D03*
X76507500Y-66100000D03*
X75872500Y-66100000D03*
G04 #@! TD*
D23*
G04 #@! TO.C,USB1*
X75680000Y-42600000D03*
X84320000Y-42600000D03*
D24*
X75680000Y-46780000D03*
X84320000Y-46780000D03*
D25*
X82890000Y-46250000D03*
X77110000Y-46250000D03*
D26*
X80250000Y-47695000D03*
X79750000Y-47695000D03*
X79250000Y-47695000D03*
X80750000Y-47695000D03*
X78750000Y-47695000D03*
X81250000Y-47695000D03*
X78250000Y-47695000D03*
X81750000Y-47695000D03*
D27*
X82450000Y-47695000D03*
X77550000Y-47695000D03*
X83225000Y-47695000D03*
X76775000Y-47695000D03*
G04 #@! TD*
D28*
G04 #@! TO.C,Y1*
X74600000Y-71350000D03*
X72400000Y-71350000D03*
X72400000Y-69650000D03*
X74600000Y-69650000D03*
G04 #@! TD*
D29*
G04 #@! TO.C,U2*
X81000000Y-53450000D03*
X79000000Y-53450000D03*
X81000000Y-51550000D03*
D30*
X79000000Y-51750000D03*
G04 #@! TD*
D31*
G04 #@! TO.C,F1*
X96000000Y-66200000D03*
X96000000Y-63800000D03*
G04 #@! TD*
G04 #@! TO.C,F2*
X96000000Y-84800000D03*
X96000000Y-87200000D03*
G04 #@! TD*
G04 #@! TO.C,F3*
X64000000Y-74800000D03*
X64000000Y-77200000D03*
G04 #@! TD*
G04 #@! TO.C,F4*
X64000000Y-55200000D03*
X64000000Y-52800000D03*
G04 #@! TD*
D32*
G04 #@! TO.C,MH1*
X55000000Y-45000000D03*
D33*
X56650000Y-45000000D03*
X56166726Y-46166726D03*
X55000000Y-46650000D03*
X53833274Y-46166726D03*
X53350000Y-45000000D03*
X53833274Y-43833274D03*
X55000000Y-43350000D03*
X56166726Y-43833274D03*
G04 #@! TD*
G04 #@! TO.C,MH2*
X106166726Y-43833274D03*
X105000000Y-43350000D03*
X103833274Y-43833274D03*
X103350000Y-45000000D03*
X103833274Y-46166726D03*
X105000000Y-46650000D03*
X106166726Y-46166726D03*
X106650000Y-45000000D03*
D32*
X105000000Y-45000000D03*
G04 #@! TD*
G04 #@! TO.C,MH3*
X55000000Y-95000000D03*
D33*
X56650000Y-95000000D03*
X56166726Y-96166726D03*
X55000000Y-96650000D03*
X53833274Y-96166726D03*
X53350000Y-95000000D03*
X53833274Y-93833274D03*
X55000000Y-93350000D03*
X56166726Y-93833274D03*
G04 #@! TD*
G04 #@! TO.C,MH4*
X106166726Y-93833274D03*
X105000000Y-93350000D03*
X103833274Y-93833274D03*
X103350000Y-95000000D03*
X103833274Y-96166726D03*
X105000000Y-96650000D03*
X106166726Y-96166726D03*
X106650000Y-95000000D03*
D32*
X105000000Y-95000000D03*
G04 #@! TD*
D21*
G04 #@! TO.C,R4*
X87000000Y-47050000D03*
X87000000Y-48950000D03*
G04 #@! TD*
M02*
